<svg width="213" height="61" viewBox="0 0 213 61" fill="none" xmlns="http://www.w3.org/2000/svg">
<path d="M79.2375 42.7744H73.0955L71.6197 47.139H69.0181L74.8391 30.9877H77.5411L83.3591 47.1374H80.7118L79.2375 42.7729V42.7744ZM73.7315 40.7584H78.6L76.2007 33.6732H76.1338L73.7315 40.7584ZM95.923 41.2509C95.923 44.9109 93.9695 47.2625 91.0195 47.2625C90.2725 47.3019 89.5296 47.1297 88.8758 46.7656C88.222 46.4015 87.6836 45.8602 87.3224 45.2037H87.2676V51.0353H84.8561V35.3629H87.19V37.321H87.2357C87.6132 36.6678 88.1603 36.1293 88.8188 35.7628C89.4773 35.3962 90.2225 35.2154 90.9753 35.2394C93.9573 35.2394 95.923 37.6031 95.923 41.2525V41.2509ZM93.4431 41.2509C93.4431 38.8674 92.2153 37.3012 90.3394 37.3012C88.4969 37.3012 87.257 38.9009 87.257 41.2509C87.257 43.6254 88.4969 45.2144 90.3394 45.2144C92.2153 45.2144 93.4431 43.6589 93.4431 41.2525V41.2509ZM108.854 41.2509C108.854 44.9109 106.9 47.2625 103.952 47.2625C103.205 47.3019 102.462 47.1297 101.808 46.7656C101.154 46.4015 100.616 45.8602 100.255 45.2037H100.198V51.0353H97.7868V35.3629H100.122V37.321H100.166C100.544 36.6676 101.091 36.1289 101.75 35.7624C102.409 35.3958 103.154 35.2151 103.907 35.2394C106.889 35.2394 108.854 37.6031 108.854 41.2525V41.2509ZM106.375 41.2509C106.375 38.8674 105.146 37.3012 103.272 37.3012C101.428 37.3012 100.189 38.9009 100.189 41.2509C100.189 43.6254 101.428 45.2144 103.27 45.2144C105.146 45.2144 106.375 43.6589 106.375 41.2525V41.2509ZM117.401 42.6387C117.579 44.2399 119.132 45.2922 121.253 45.2922C123.286 45.2922 124.748 44.2399 124.748 42.7958C124.748 41.5422 123.866 40.7919 121.778 40.278L119.689 39.7747C116.73 39.058 115.356 37.6702 115.356 35.4193C115.356 32.6316 117.78 30.7178 121.22 30.7178C124.625 30.7178 126.96 32.6316 127.038 35.4193H124.603C124.457 33.8074 123.128 32.8345 121.186 32.8345C119.243 32.8345 117.915 33.8181 117.915 35.2516C117.915 36.3938 118.763 37.0663 120.839 37.5803L122.615 38.0164C125.923 38.8003 127.295 40.1316 127.295 42.4938C127.295 45.5164 124.894 47.4089 121.075 47.4089C117.5 47.4089 115.088 45.5606 114.932 42.6387H117.401ZM132.501 32.5767V35.3629H134.735V37.2768H132.5V43.7702C132.5 44.7767 132.947 45.2495 133.93 45.2495C134.195 45.2434 134.459 45.2251 134.722 45.1915V47.0947C134.281 47.1771 133.832 47.2152 133.384 47.2061C131.006 47.2061 130.078 46.3109 130.078 44.028V37.2768H128.369V35.3644H130.078V32.5783H132.5L132.501 32.5767ZM136.028 41.2509C136.028 37.5452 138.205 35.218 141.601 35.218C145.007 35.218 147.174 37.5467 147.174 41.2525C147.174 44.9674 145.018 47.2854 141.601 47.2854C138.184 47.2854 136.028 44.9674 136.028 41.2525V41.2509ZM144.717 41.2509C144.717 38.7103 143.554 37.2097 141.601 37.2097C139.646 37.2097 138.485 38.721 138.485 41.2509C138.485 43.8038 139.646 45.2922 141.601 45.2922C143.554 45.2922 144.717 43.8038 144.717 41.2509ZM149.162 35.3644H151.463V37.3668H151.519C151.675 36.741 152.041 36.1879 152.555 35.8005C153.07 35.4131 153.701 35.215 154.344 35.2394C154.623 35.2394 154.9 35.2699 155.17 35.3309V37.5909C154.82 37.4834 154.454 37.434 154.087 37.4445C153.737 37.4302 153.387 37.492 153.063 37.6258C152.739 37.7596 152.447 37.9622 152.208 38.2197C151.97 38.4772 151.789 38.7834 151.68 39.1174C151.57 39.4514 151.534 39.8052 151.574 40.1545V47.139H149.162V35.3644ZM166.289 43.6803C165.965 45.8183 163.888 47.2854 161.23 47.2854C157.813 47.2854 155.692 44.9902 155.692 41.3074C155.692 37.6138 157.824 35.218 161.13 35.218C164.38 35.218 166.425 37.4567 166.425 41.0283V41.8548H158.127V42.0012C158.088 42.4346 158.142 42.8711 158.285 43.2819C158.428 43.6926 158.657 44.0682 158.956 44.3836C159.255 44.699 159.617 44.9471 160.019 45.1114C160.421 45.2757 160.853 45.3524 161.287 45.3364C162.458 45.4462 163.56 44.7722 163.999 43.6803H166.289ZM158.137 40.1651H164.01C164.032 39.7756 163.973 39.3857 163.837 39.0201C163.701 38.6544 163.492 38.3207 163.221 38.0401C162.951 37.7595 162.626 37.5378 162.266 37.3892C161.906 37.2405 161.519 37.168 161.13 37.1761C160.737 37.1737 160.348 37.2493 159.984 37.3985C159.621 37.5478 159.29 37.7677 159.012 38.0456C158.734 38.3235 158.513 38.6538 158.363 39.0176C158.213 39.3814 158.136 39.7714 158.137 40.1651Z" fill="#00974A"/>
<path d="M47.8552 30.2484C47.8725 28.9202 48.2248 27.618 48.8792 26.4629C49.5336 25.3079 50.4688 24.3375 51.5979 23.6421C50.8807 22.6152 49.9346 21.7701 48.8346 21.174C47.7346 20.5778 46.511 20.247 45.2611 20.2078C42.5956 19.9272 40.0107 21.8075 38.652 21.8075C37.2675 21.8075 35.1756 20.2367 32.9239 20.2825C31.4667 20.3295 30.0466 20.7542 28.802 21.5151C27.5573 22.276 26.5306 23.3471 25.8218 24.6242C22.7516 29.9525 25.0413 37.7834 27.9823 42.09C29.455 44.1991 31.1742 46.5552 33.4244 46.4713C35.6274 46.3798 36.449 45.0637 39.1069 45.0637C41.7405 45.0637 42.5119 46.4713 44.8077 46.4179C47.1705 46.3798 48.66 44.2997 50.0795 42.1708C51.1371 40.6681 51.9509 39.0072 52.4909 37.2496C51.118 36.6679 49.9463 35.6939 49.122 34.4491C48.2976 33.2044 47.857 31.7439 47.8552 30.2499V30.2484ZM43.5191 17.3758C44.8074 15.8257 45.4421 13.8334 45.2885 11.8218C43.3204 12.0287 41.5022 12.9712 40.1963 14.4616C39.5579 15.19 39.069 16.0374 38.7576 16.9553C38.4461 17.8733 38.3182 18.8437 38.3812 19.8113C39.3656 19.8213 40.3395 19.6074 41.2294 19.1855C42.1194 18.7637 42.9023 18.1449 43.5191 17.3758Z" fill="#00974A"/>
<path fill-rule="evenodd" clip-rule="evenodd" d="M72.9222 20.1305V18.819H74.2109C75.2804 18.819 76.0305 18.1876 76.0305 17.2772C76.0305 16.3851 75.361 15.8086 74.2245 15.8086C73.1017 15.8086 72.3654 16.379 72.2786 17.323H70.8622C70.9626 15.5814 72.2589 14.4956 74.2702 14.4956C76.1705 14.4956 77.5078 15.5616 77.5078 17.0957C77.5078 18.1617 76.7988 19.066 75.7551 19.307V19.4214C77.0057 19.5479 77.9018 20.4126 77.9018 21.7607C77.9018 23.4153 76.3378 24.6353 74.2976 24.6353C72.198 24.6353 70.7618 23.4962 70.675 21.7729H72.1113C72.1995 22.6986 73.0485 23.2949 74.2976 23.2949C75.5482 23.2949 76.3637 22.6239 76.3637 21.6784C76.3637 20.7207 75.5954 20.132 74.2519 20.132H72.9207L72.9222 20.1305ZM82.387 23.3086C83.4703 23.3086 84.2736 22.6178 84.2736 21.7134V21.1034L82.4935 21.2178C81.4924 21.2849 81.0375 21.6265 81.0375 22.2701C81.0375 22.9258 81.605 23.3071 82.387 23.3071V23.3086ZM82.0203 24.521C80.6161 24.521 79.5937 23.67 79.5937 22.3356C79.5937 21.0241 80.5689 20.2662 82.3018 20.1579L84.2736 20.0451V19.4137C84.2736 18.6436 83.7654 18.209 82.7826 18.209C81.9793 18.209 81.4255 18.5033 81.2642 19.0188H79.8751C80.0227 17.7652 81.1988 16.9615 82.851 16.9615C84.6768 16.9615 85.7052 17.8735 85.7052 19.4137V24.4005H84.3207V23.3757H84.2082C83.773 24.1062 82.9773 24.521 82.0219 24.521H82.0203ZM92.9305 18.3142H89.5742V24.4005H88.1365V17.1018H92.9305V18.3157V18.3142ZM98.6739 16.9814C100.525 16.9814 101.695 18.4301 101.695 20.7481C101.695 23.0661 100.525 24.521 98.6876 24.521C97.65 24.521 96.8284 24.065 96.4465 23.2949H96.3339V26.8268H94.8962V17.1018H96.2807V18.3081H96.3872C96.8284 17.477 97.6835 16.9814 98.6739 16.9814ZM98.2662 23.2278C99.4894 23.2278 100.218 22.2975 100.218 20.7481C100.218 19.2079 99.4879 18.2746 98.2722 18.2746C97.0627 18.2746 96.3066 19.2262 96.3066 20.7542C96.3066 22.2762 97.0627 23.2278 98.2662 23.2278ZM104.262 27.0479C104.142 27.0479 103.801 27.0342 103.669 27.0143V25.773C103.781 25.7928 104.002 25.7989 104.136 25.7989C104.817 25.7989 105.205 25.5183 105.452 24.7802L105.558 24.4264L102.926 17.1003H104.49L106.316 22.8984H106.429L108.247 17.1003H109.771L107.057 24.7009C106.435 26.476 105.747 27.0464 104.262 27.0464V27.0479ZM113.963 24.5347C112.371 24.5347 111.081 23.8027 110.947 22.3295H112.377C112.519 22.9731 113.121 23.3086 113.963 23.3086C114.92 23.3086 115.507 22.8862 115.507 22.2289C115.507 21.5259 114.979 21.1904 113.963 21.1904H112.873V20.071H113.943C114.812 20.071 115.253 19.7355 115.253 19.1255C115.253 18.5902 114.827 18.18 113.944 18.18C113.141 18.18 112.552 18.5231 112.46 19.0996H111.075C111.223 17.7988 112.298 16.9615 113.943 16.9615C115.674 16.9615 116.665 17.7454 116.665 18.9791C116.665 19.7096 116.202 20.3059 115.515 20.4736V20.588C116.458 20.8091 116.939 21.4176 116.939 22.2289C116.939 23.6166 115.761 24.5347 113.963 24.5347ZM120.488 24.4005H119.064V17.1018H120.488V22.1221H120.602L123.959 17.1018H125.383V24.4005H123.959V19.3527H123.852L120.487 24.4005H120.488ZM133.283 17.1018V18.3157H130.991V24.4005H129.554V18.3157H127.26V17.1018H133.285H133.283ZM137.91 18.1876C136.848 18.1876 136.106 18.9379 136.025 20.0786H139.702C139.669 18.9318 138.973 18.1876 137.91 18.1876ZM139.696 22.4302H141.081C140.752 23.7371 139.59 24.5408 137.924 24.5408C135.838 24.5408 134.561 23.1073 134.561 20.774C134.561 18.4423 135.865 16.9615 137.918 16.9615C139.943 16.9615 141.166 18.3493 141.166 20.6414V21.1446H136.025V21.2239C136.071 22.5049 136.815 23.3147 137.965 23.3147C138.832 23.3147 139.428 23.0005 139.696 22.4302ZM148.77 18.2075H147.186V20.0985H148.61C149.479 20.0985 149.894 19.763 149.894 19.1469C149.894 18.5765 149.532 18.2075 148.77 18.2075ZM148.709 21.1568H147.186V23.2949H148.89C149.739 23.2949 150.194 22.9197 150.194 22.2289C150.194 21.4984 149.68 21.1568 148.711 21.1568H148.709ZM145.764 24.4005V17.1018H149.045C150.469 17.1018 151.306 17.8262 151.306 18.9593C151.306 19.6959 150.784 20.3653 150.075 20.4995V20.6139C151.019 20.7207 151.633 21.4115 151.633 22.296C151.633 23.5694 150.678 24.4005 149.079 24.4005H145.762H145.764Z" fill="#00974A"/>
</svg>
