<svg width="136" height="77" viewBox="0 0 136 77" fill="none" xmlns="http://www.w3.org/2000/svg">
<path d="M119.865 5.20095V71.799C119.865 74.6613 117.529 77 114.664 77H80.3334C77.4734 77.0022 75.1326 74.6635 75.1326 71.8013V5.20095C75.1326 2.34087 77.4734 0 80.3334 0H114.662C117.522 0 119.865 2.33867 119.865 5.20095ZM91.3774 4.37812C91.3774 4.72573 91.659 5.00734 92.0066 5.00734H102.989C103.337 5.00734 103.618 4.72573 103.618 4.37812C103.618 4.03052 103.337 3.74671 102.989 3.74671H92.0066C91.6612 3.74891 91.3774 4.03052 91.3774 4.37812ZM100.098 71.8013C100.098 70.3646 98.9344 69.2008 97.4978 69.2008C96.0612 69.2008 94.8974 70.3624 94.8974 71.8013C94.8974 73.2401 96.0612 74.4039 97.4978 74.4039C98.9344 74.4039 100.098 73.2379 100.098 71.8013ZM116.246 8.24804H78.7538V67.3769H116.246V8.24804Z" fill="black"/>
<rect x="1.5" y="26.5" width="41" height="25.7347" rx="6.5" stroke="black" stroke-width="3"/>
<path d="M1.7959 38.9185H42.653" stroke="black" stroke-width="2"/>
<path d="M48.5 34.5H71" stroke="black" stroke-linecap="round"/>
<path d="M65.5 32.5L71 34.5L65.5 36.5" stroke="black" stroke-linecap="round" stroke-linejoin="round"/>
<path d="M71 44H48.5" stroke="black" stroke-linecap="round"/>
<path d="M54 42L48.5 44L54 46" stroke="black" stroke-linecap="round" stroke-linejoin="round"/>
</svg>
