<svg width="50" height="50" viewBox="0 0 50 50" fill="none" xmlns="http://www.w3.org/2000/svg">
<path d="M25 0.5C31.5487 0.5 37.6926 3.04618 42.3232 7.67679C46.9538 12.3074 49.5 18.4513 49.5 25C49.5 31.5487 46.9538 37.6926 42.3232 42.3232C37.6926 46.9538 31.5487 49.5 25 49.5C18.4513 49.5 12.3074 46.9538 7.67679 42.3232C3.04618 37.6926 0.5 31.5487 0.5 25C0.5 18.4513 3.04618 12.3074 7.67679 7.67679C12.3074 3.04618 18.4513 0.5 25 0.5Z" stroke="#979797"/>
<path d="M34.0321 15.9679C33.5749 15.5107 32.8416 15.5107 32.3844 15.9679L25 23.3514L17.6156 15.9679C17.1584 15.5107 16.4251 15.5107 15.9679 15.9679C15.5107 16.425 15.5107 17.1582 15.9679 17.6154L23.3523 24.9989L15.9679 32.3825C15.5107 32.8396 15.5107 33.5728 15.9679 34.03C16.1922 34.2542 16.4941 34.375 16.7874 34.375C17.0807 34.375 17.3827 34.2629 17.607 34.03L24.9914 26.6464L32.3758 34.03C32.6001 34.2542 32.902 34.375 33.1953 34.375C33.4972 34.375 33.7905 34.2629 34.0148 34.03C34.4721 33.5728 34.4721 32.8396 34.0148 32.3825L26.6477 24.9989L34.0321 17.6154C34.4893 17.1582 34.4893 16.425 34.0321 15.9679Z" fill="#979797" stroke="#979797" stroke-width="0.5"/>
</svg>
