<svg width="24" height="24" viewBox="0 0 24 24" fill="none" xmlns="http://www.w3.org/2000/svg">
<path d="M12 0.5C15.0744 0.5 17.9573 1.69475 20.1313 3.86871C22.3053 6.04266 23.5 8.9256 23.5 12C23.5 15.0744 22.3053 17.9573 20.1313 20.1313C17.9573 22.3053 15.0744 23.5 12 23.5C8.9256 23.5 6.04266 22.3053 3.86871 20.1313C1.69475 17.9573 0.5 15.0744 0.5 12C0.5 8.9256 1.69475 6.04266 3.8687 3.8687C6.04266 1.69475 8.9256 0.5 12 0.5ZM19.1666 19.1666C17.2503 21.083 14.7057 22.1364 12 22.1364C9.29426 22.1364 6.74971 21.083 4.83335 19.1666C0.882149 15.2154 0.882149 8.78455 4.83335 4.83335C6.74971 2.91699 9.29426 1.86364 12 1.86364C14.7057 1.86364 17.2503 2.91699 19.1666 4.83335C23.1179 8.78455 23.1179 15.2154 19.1666 19.1666ZM12 23.1364C14.971 23.1364 17.7699 21.9776 19.8738 19.8738C24.2155 15.532 24.2155 8.46797 19.8738 4.12624C17.7699 2.0224 14.971 0.863636 12 0.863636C9.02897 0.863636 6.23009 2.0224 4.12624 4.12624C-0.215482 8.46797 -0.215482 15.532 4.12624 19.8738C6.23009 21.9776 9.02897 23.1364 12 23.1364Z" fill="white" stroke="#979797"/>
<path d="M16.3354 7.66458C16.1159 7.44514 15.764 7.44514 15.5445 7.66458L12 11.2087L8.45549 7.66458C8.23603 7.44514 7.88406 7.44514 7.6646 7.66458C7.44513 7.88401 7.44513 8.23594 7.6646 8.45538L11.2091 11.9995L7.6646 15.5436C7.44513 15.763 7.44513 16.115 7.6646 16.3344C7.77226 16.442 7.91718 16.5 8.05797 16.5C8.19876 16.5 8.34369 16.4462 8.45135 16.3344L11.9959 12.7903L15.5404 16.3344C15.648 16.442 15.793 16.5 15.9337 16.5C16.0787 16.5 16.2195 16.4462 16.3271 16.3344C16.5466 16.115 16.5466 15.763 16.3271 15.5436L12.7909 11.9995L16.3354 8.45538C16.5549 8.23594 16.5549 7.88401 16.3354 7.66458Z" fill="#979797" stroke="#979797" stroke-width="0.5"/>
</svg>
