<svg width="19" height="18" viewBox="0 0 19 18" fill="none" xmlns="http://www.w3.org/2000/svg">
<path d="M18.7988 5.18488C18.9665 5.39158 19.0293 5.63961 18.9874 5.92898L18.1909 10.4349C18.163 10.6693 18.0547 10.8621 17.866 11.0137C17.6774 11.1653 17.4643 11.241 17.2267 11.241H5.61441L5.38384 12.5225H16.4512C16.7167 12.5225 16.9472 12.6156 17.1429 12.8016C17.3386 12.9876 17.4363 13.2184 17.4363 13.494C17.4363 13.7696 17.3385 14.0004 17.1429 14.1864C16.9472 14.3725 16.7167 14.4655 16.4512 14.4655H4.21003C3.91658 14.4655 3.66505 14.3483 3.45544 14.1142C3.2598 13.8799 3.18295 13.6111 3.22487 13.3081L3.74889 10.497L2.95238 2.60128L0.688604 1.89852C0.423099 1.81584 0.230958 1.65734 0.11218 1.42312C-0.00659879 1.18884 -0.0310532 0.940839 0.0388164 0.679027C0.12266 0.417215 0.286853 0.227746 0.531397 0.110619C0.775941 -0.00650702 1.02398 -0.0306213 1.27551 0.0382766L4.16811 0.947729C4.34977 1.00285 4.49999 1.10619 4.61877 1.25777C4.73755 1.40935 4.81091 1.58162 4.83886 1.77454L5.00654 3.34541L18.1281 4.79227C18.4215 4.8335 18.6451 4.96441 18.7988 5.18488ZM5.69829 15.0029C6.11751 15.0029 6.47384 15.1476 6.76729 15.437C7.06074 15.7263 7.20747 16.0777 7.20747 16.4911C7.20747 16.9044 7.06074 17.2593 6.76729 17.5556C6.47384 17.8519 6.11751 18 5.69829 18C5.27907 18 4.92274 17.8519 4.62928 17.5556C4.33583 17.2594 4.1891 16.9045 4.1891 16.4911C4.1891 16.0777 4.33583 15.7263 4.62928 15.437C4.9227 15.1476 5.27904 15.0029 5.69829 15.0029ZM14.6485 15.0029C15.0677 15.0029 15.4241 15.1476 15.7176 15.437C16.0109 15.7263 16.1578 16.0777 16.1578 16.4911C16.1578 16.9044 16.011 17.2593 15.7176 17.5556C15.4241 17.8519 15.0677 18 14.6485 18C14.2293 18 13.8729 17.8519 13.5796 17.5556C13.2861 17.2594 13.1393 16.9045 13.1393 16.4911C13.1393 16.0777 13.2861 15.7263 13.5796 15.437C13.873 15.1476 14.2293 15.0029 14.6485 15.0029Z" fill="#313131"/>
</svg>
