<svg width="35" height="35" viewBox="0 0 35 35" fill="none" xmlns="http://www.w3.org/2000/svg">
<path d="M25.2358 11.9471C25.7699 12.4812 25.7699 13.3469 25.2358 13.8807L16.0639 23.0529C15.5299 23.5867 14.6644 23.5867 14.1304 23.0529L9.76418 18.6864C9.23012 18.1526 9.23012 17.2869 9.76418 16.7531C10.298 16.2191 11.1637 16.2191 11.6975 16.7531L15.097 20.1527L23.3023 11.9471C23.8363 11.4133 24.702 11.4133 25.2358 11.9471V11.9471ZM35 17.5C35 27.1731 27.1718 35 17.5 35C7.82688 35 0 27.1718 0 17.5C0 7.82688 7.82822 0 17.5 0C27.1731 0 35 7.82822 35 17.5ZM32.2656 17.5C32.2656 9.33826 25.6607 2.73438 17.5 2.73438C9.33826 2.73438 2.73438 9.33933 2.73438 17.5C2.73438 25.6617 9.33933 32.2656 17.5 32.2656C25.6617 32.2656 32.2656 25.6607 32.2656 17.5Z" fill="black"/>
</svg>
