<svg width="35" height="35" viewBox="0 0 35 35" fill="none" xmlns="http://www.w3.org/2000/svg">
<path d="M35 17.5C35 27.1731 27.1718 35 17.5 35C7.82688 35 0 27.1718 0 17.5C0 7.82688 7.82822 0 17.5 0C27.1731 0 35 7.82822 35 17.5ZM32.2656 17.5C32.2656 9.33826 25.6607 2.73438 17.5 2.73438C9.33826 2.73438 2.73438 9.33933 2.73438 17.5C2.73438 25.6617 9.33933 32.2656 17.5 32.2656C25.6617 32.2656 32.2656 25.6607 32.2656 17.5Z" fill="#9C9C9C"/>
<path fill-rule="evenodd" clip-rule="evenodd" d="M11.3225 11.3223C11.7524 10.8925 12.4487 10.8926 12.8785 11.3224L17.3501 15.794L21.8215 11.3224C22.2513 10.8926 22.9476 10.8925 23.3775 11.3223M11.3225 11.3223C10.8926 11.7519 10.8925 12.4489 11.3224 12.8786L15.794 17.3501L11.3225 21.8216C10.8925 22.2512 10.8925 22.9483 11.3225 23.3779C11.5372 23.5923 11.8195 23.7 12.1005 23.7C12.3814 23.7 12.6637 23.5924 12.8785 23.3776L17.3501 18.906L21.8215 23.3776C22.0363 23.5924 22.3186 23.7 22.5995 23.7C22.8805 23.7 23.1627 23.5924 23.3775 23.3777C23.8075 22.9481 23.8075 22.251 23.3775 21.8213L18.9062 17.3501L23.3775 12.8787C23.8075 12.4491 23.8074 11.752 23.3775 11.3223" fill="#9C9C9C"/>
</svg>
