<svg width="32" height="32" viewBox="0 0 32 32" fill="none" xmlns="http://www.w3.org/2000/svg">
<path fill-rule="evenodd" clip-rule="evenodd" d="M16 29.1818C19.5192 29.1818 22.8272 27.8125 25.3198 25.3198C30.4579 20.1817 30.4579 11.8183 25.3198 6.68017C22.8272 4.18752 19.5192 2.81818 16 2.81818C12.4808 2.81818 9.17282 4.18752 6.68017 6.68017C1.54208 11.8183 1.54208 20.1817 6.68017 25.3198C9.17282 27.8125 12.4808 29.1818 16 29.1818ZM16 0C20.2761 0 24.2896 1.6633 27.3131 4.68687C30.3367 7.71044 32 11.7239 32 16C32 20.2761 30.3367 24.2896 27.3131 27.3131C24.2896 30.3367 20.2761 32 16 32C11.7239 32 7.71044 30.3367 4.68687 27.3131C1.6633 24.2896 0 20.2761 0 16C0 11.7239 1.6633 7.71044 4.68687 4.68687C7.71044 1.6633 11.7239 0 16 0Z" fill="white"/>
<path d="M21.7805 10.2194C21.4879 9.92686 21.0186 9.92686 20.726 10.2194L16 14.9449L11.274 10.2194C10.9814 9.92686 10.5121 9.92686 10.2195 10.2194C9.92685 10.512 9.92685 10.9813 10.2195 11.2738L14.9455 15.9993L10.2195 20.7248C9.92685 21.0174 9.92685 21.4866 10.2195 21.7792C10.363 21.9227 10.5562 22 10.744 22C10.9317 22 11.1249 21.9282 11.2685 21.7792L15.9945 17.0537L20.7205 21.7792C20.864 21.9227 21.0573 22 21.245 22C21.4382 22 21.6259 21.9282 21.7695 21.7792C22.0621 21.4866 22.0621 21.0174 21.7695 20.7248L17.0545 15.9993L21.7805 11.2738C22.0732 10.9813 22.0732 10.512 21.7805 10.2194Z" fill="white"/>
<path fill-rule="evenodd" clip-rule="evenodd" d="M10.0427 10.0426C10.4329 9.65245 11.0605 9.65245 11.4507 10.0426L16 14.5914L20.5493 10.0426C20.9395 9.65245 21.5671 9.65245 21.9573 10.0426C22.3476 10.4329 22.3476 11.0604 21.9573 11.4506L17.4079 15.9995L21.9463 20.548C22.3358 20.9377 22.3365 21.5641 21.9479 21.9543C21.7544 22.1543 21.5009 22.25 21.245 22.25C20.9906 22.25 20.7339 22.1461 20.5437 21.956L15.9945 17.4072L11.4468 21.9544C11.2526 22.155 10.9933 22.25 10.744 22.25C10.4896 22.25 10.2329 22.1461 10.0427 21.956C9.65243 21.5658 9.65243 20.9382 10.0427 20.548L14.5919 15.9993L10.0427 11.4506C9.65243 11.0604 9.65243 10.4329 10.0427 10.0426ZM11.0972 10.3962C10.9022 10.2013 10.5912 10.2013 10.3962 10.3962C10.2013 10.5912 10.2013 10.9021 10.3962 11.097L15.2991 15.9993L10.3962 20.9016C10.2013 21.0965 10.2013 21.4074 10.3962 21.6024C10.4931 21.6993 10.6229 21.75 10.744 21.75C10.8693 21.75 10.9957 21.702 11.0884 21.6058L11.0917 21.6024L15.9945 16.7002L20.8973 21.6024C20.9942 21.6993 21.1239 21.75 21.245 21.75C21.3748 21.75 21.4961 21.7027 21.5894 21.6058L21.5927 21.6024C21.7877 21.4074 21.7877 21.0965 21.5927 20.9016L16.7012 15.9991L21.6038 11.097C21.7987 10.9021 21.7987 10.5912 21.6038 10.3962C21.4088 10.2013 21.0978 10.2013 20.9028 10.3962L16 15.2984L11.0972 10.3962Z" fill="white"/>
</svg>
