<svg width="15" height="15" viewBox="0 0 15 15" fill="none" xmlns="http://www.w3.org/2000/svg">
<path d="M14.2865 2.58777C14.228 2.52931 14.1531 2.49993 14.062 2.49993H11.0443L10.3607 0.869156C10.2631 0.628214 10.0873 0.423119 9.83352 0.253837C9.57951 0.0845896 9.32222 0 9.06189 0H5.93679C5.67645 0 5.41923 0.0845896 5.16532 0.253837C4.91138 0.423119 4.7356 0.62818 4.63791 0.869156L3.95432 2.49993H0.936733C0.845507 2.49993 0.770735 2.52931 0.712107 2.58777C0.65365 2.64636 0.624268 2.72127 0.624268 2.81239V3.43746C0.624268 3.52858 0.653513 3.60349 0.712107 3.66198C0.770735 3.72054 0.845644 3.74982 0.936733 3.74982H1.87416V13.0468C1.87416 13.5874 2.02716 14.0479 2.33313 14.4286C2.63916 14.8096 3.00701 15 3.43673 15H11.5619C11.9917 15 12.3595 14.8031 12.6655 14.4093C12.9715 14.0153 13.1244 13.5482 13.1244 13.0079V3.74982H14.062C14.1531 3.74982 14.228 3.72054 14.2865 3.66198C14.3449 3.60352 14.3744 3.52858 14.3744 3.43746V2.81239C14.3745 2.72127 14.345 2.64636 14.2865 2.58777ZM5.79036 1.3572C5.83588 1.29864 5.89126 1.26272 5.95636 1.24979H9.05207C9.11716 1.26282 9.17264 1.29871 9.2181 1.3572L9.68702 2.49979H5.31183L5.79036 1.3572ZM11.8745 13.008C11.8745 13.1511 11.8518 13.283 11.8061 13.4034C11.7605 13.5237 11.7132 13.6116 11.6645 13.667C11.6155 13.7225 11.5816 13.75 11.5619 13.75H3.43676C3.41723 13.75 3.38323 13.7225 3.33428 13.667C3.2854 13.6116 3.23817 13.5237 3.19257 13.4034C3.14704 13.283 3.12426 13.151 3.12426 13.008V3.74982H11.8745V13.008H11.8745Z" fill="#979797"/>
<path d="M4.68624 11.8751H5.3112C5.40243 11.8751 5.47737 11.8459 5.53583 11.7873C5.59428 11.7286 5.62367 11.6539 5.62367 11.5626V5.93742C5.62367 5.84633 5.59428 5.77143 5.53583 5.7128C5.4772 5.65434 5.40246 5.62506 5.3112 5.62506H4.68624C4.59502 5.62506 4.52021 5.65431 4.46162 5.7128C4.40309 5.77143 4.37378 5.84633 4.37378 5.93742V11.5626C4.37378 11.6539 4.40299 11.7286 4.46162 11.7873C4.52021 11.8459 4.59502 11.8751 4.68624 11.8751Z" fill="#979797"/>
<path d="M7.18746 11.8751H7.81243C7.90362 11.8751 7.97853 11.8459 8.03695 11.7873C8.09572 11.7286 8.12483 11.6539 8.12483 11.5626V5.93742C8.12483 5.84633 8.09568 5.77143 8.03695 5.7128C7.97853 5.65434 7.90362 5.62506 7.81243 5.62506H7.18746C7.09634 5.62506 7.02143 5.65431 6.96284 5.7128C6.90421 5.77143 6.875 5.84633 6.875 5.93742V11.5626C6.875 11.6539 6.90421 11.7286 6.96284 11.7873C7.0214 11.8459 7.09634 11.8751 7.18746 11.8751Z" fill="#979797"/>
<path d="M9.68631 11.8751H10.3112C10.4025 11.8751 10.4774 11.8459 10.5359 11.7873C10.5944 11.7286 10.6235 11.6539 10.6235 11.5626V5.93742C10.6235 5.84633 10.5944 5.77143 10.5359 5.7128C10.4774 5.65434 10.4025 5.62506 10.3112 5.62506H9.68631C9.59498 5.62506 9.52031 5.65431 9.46155 5.7128C9.40302 5.77143 9.37378 5.84633 9.37378 5.93742V11.5626C9.37378 11.6539 9.40302 11.7286 9.46155 11.7873C9.52031 11.8459 9.59498 11.8751 9.68631 11.8751Z" fill="#979797"/>
</svg>
