<svg width="21" height="20" viewBox="0 0 21 20" fill="none" xmlns="http://www.w3.org/2000/svg">
<path d="M19.2894 13.4443C18.8252 13.4443 18.4514 13.8181 18.4514 14.2823V18.3242H1.67591V14.2823C1.67591 13.8181 1.30212 13.4443 0.837955 13.4443C0.373793 13.4443 0 13.8181 0 14.2823V19.1621C0 19.6263 0.373793 20.0001 0.837955 20.0001H19.2894C19.7535 20.0001 20.1273 19.6263 20.1273 19.1621V14.2823C20.1273 13.8181 19.7535 13.4443 19.2894 13.4443Z" fill="#0DB7FF"/>
<path d="M9.44736 14.4383C9.91973 14.9148 10.4989 14.6519 10.6755 14.4383L15.4938 9.25447C15.8101 8.91354 15.7895 8.38365 15.4486 8.06737C15.1077 7.75108 14.5778 7.77162 14.2656 8.11255L10.9015 11.7314V0.837955C10.9015 0.373793 10.5277 0 10.0635 0C9.59934 0 9.22555 0.373793 9.22555 0.837955V11.7355L5.86141 8.11666C5.54512 7.77572 5.01524 7.75929 4.6743 8.07147C4.33337 8.38776 4.31694 8.91764 4.62912 9.25858L9.44736 14.4383V14.4383Z" fill="#0DB7FF"/>
</svg>
