<svg width="201" height="74" viewBox="0 0 201 74" fill="none" xmlns="http://www.w3.org/2000/svg">
<path fill-rule="evenodd" clip-rule="evenodd" d="M21.4438 25.7254L6.22896 25.7103C2.53802 25.6539 0.129402 27.4383 0.194653 31.0212L0.207892 51.8757C0.176685 53.458 0.499158 55.0905 1.01171 56.3367C1.60181 57.8043 2.78484 59.0958 4.17118 59.7215C5.57644 60.332 7.08573 60.5 8.59596 60.4819H29.8593V58.099H8.25363C6.60817 58.1201 5.34759 57.592 4.32722 56.1708C3.46004 54.9547 3.31346 53.6038 3.30684 52.1443V47.6441L23.267 41.6582C26.6279 40.6704 29.4952 38.9062 30.0692 35.4138C30.2763 34.1223 30.2792 32.7996 30.0692 31.5081C29.3789 27.3036 25.4515 25.7545 21.4438 25.7254ZM26.8029 35.2016C26.5343 37.331 24.8473 38.4465 22.8037 39.0681L3.30684 44.7512L3.2955 30.4288C3.28604 28.9632 4.77925 28.1113 6.16843 28.0942L21.3502 28.0922C24.0311 28.0922 26.2922 29.2569 26.7622 31.6579C26.9608 32.6618 26.9277 34.1957 26.8029 35.2016Z" fill="black"/>
<path d="M185.53 3.65625H173.342C172.67 3.65625 172.124 4.20228 172.124 4.87501C172.124 5.54773 172.67 6.09377 173.342 6.09377H185.53C186.203 6.09377 186.749 5.54773 186.749 4.87501C186.749 4.20228 186.203 3.65625 185.53 3.65625Z" fill="black"/>
<path d="M194.061 3.65625H192.842C192.17 3.65625 191.624 4.20228 191.624 4.87501C191.624 5.54773 192.17 6.09377 192.842 6.09377H194.061C194.734 6.09377 195.28 5.54773 195.28 4.87501C195.28 4.20228 194.734 3.65625 194.061 3.65625Z" fill="black"/>
<path d="M180.948 62.1592H177.922C176.068 62.1592 174.56 63.668 174.56 65.5218V66.1105C174.56 67.9643 176.068 69.472 177.921 69.472H180.947C182.801 69.472 184.31 67.9643 184.31 66.1105V65.5218C184.31 63.668 182.801 62.1592 180.948 62.1592ZM181.872 66.1105C181.872 66.62 181.458 67.0344 180.949 67.0344H177.922C177.412 67.0344 176.997 66.62 176.997 66.1105V65.5218C176.997 65.0112 177.411 64.5967 177.922 64.5967H180.947C181.458 64.5967 181.872 65.011 181.872 65.5218V66.1105Z" fill="black"/>
<path d="M195.751 0H163.122C160.693 0 158.716 1.9769 158.716 4.40599V68.7224C158.716 71.1515 160.693 73.1284 163.122 73.1284H195.75C198.179 73.1284 200.156 71.1515 200.156 68.7237V4.40599C200.156 1.9769 198.179 0 195.751 0ZM197.718 68.7224C197.718 69.8072 196.836 70.6908 195.751 70.6908H163.122C162.036 70.6908 161.154 69.8071 161.154 68.7236V4.40599C161.154 3.3212 162.036 2.43766 163.122 2.43766H195.75C196.836 2.43766 197.718 3.32134 197.718 4.40599V68.7224Z" fill="black"/>
<path d="M198.937 7.31299H159.935C159.262 7.31299 158.716 7.85902 158.716 8.53175V59.7216C158.716 60.3944 159.262 60.9404 159.935 60.9404H198.937C199.61 60.9404 200.156 60.3944 200.156 59.7216V8.53175C200.156 7.85902 199.61 7.31299 198.937 7.31299ZM197.718 58.5029H161.154V9.75065H197.718V58.5029Z" fill="black"/>
<path d="M75 30.5156H120" stroke="black" stroke-width="3" stroke-linecap="round"/>
<path d="M89 24.5156L75 30.5156L89 36.5156" stroke="black" stroke-width="3" stroke-linecap="round" stroke-linejoin="round"/>
<path d="M121 54.5156H76" stroke="black" stroke-width="3" stroke-linecap="round"/>
<path d="M107 60.5156L121 54.5156L107 48.5156" stroke="black" stroke-width="3" stroke-linecap="round" stroke-linejoin="round"/>
</svg>
