<svg width="70" height="70" viewBox="0 0 70 70" fill="none" xmlns="http://www.w3.org/2000/svg">
<path d="M16.3997 69.0054C7.88951 69.0018 0.993668 62.1001 0.996094 53.5911C0.997307 49.5139 2.61517 45.6037 5.49413 42.7164L20.5825 27.628C21.4466 26.7675 22.4102 26.0114 23.4508 25.3761C28.4846 22.3027 34.8304 22.3715 39.7954 25.5538C40.7317 26.1512 41.5982 26.8505 42.3792 27.6399C43.0999 28.3618 43.4757 29.3597 43.4104 30.3779C43.2942 32.3383 41.6112 33.8329 39.6508 33.7167C38.7796 33.6645 37.9583 33.2947 37.342 32.6772C34.1026 29.445 28.8591 29.445 25.6198 32.6772L10.4722 47.73C7.2318 50.9704 7.2318 56.2234 10.4722 59.464C13.7127 62.7045 18.9657 62.7045 22.2063 59.464L31.2142 50.5154C33.7661 51.5525 36.4957 52.0799 39.2503 52.068H39.7244L27.2793 64.5013C24.3978 67.3923 20.4817 69.0136 16.3997 69.0054Z" fill="white"/>
<path d="M39.2513 46.1417H38.3979C37.874 46.1179 37.3513 46.067 36.8334 45.9876C36.3948 45.9165 35.9562 45.8217 35.5177 45.715L34.8776 45.5372C34.6406 45.466 34.4153 45.395 34.202 45.312C33.9886 45.229 33.7041 45.1342 33.4908 45.0512L32.7914 44.7548C31.1511 43.9963 29.6588 42.9533 28.3822 41.6731C27.6616 40.9513 27.2858 39.9534 27.351 38.9352C27.4672 36.9747 29.1503 35.4802 31.1106 35.5963C31.9818 35.6485 32.8031 36.0183 33.4195 36.6359C36.6588 39.8681 41.9023 39.8681 45.1417 36.6359L49.1123 32.6771L60.2538 21.5356C63.5109 18.2785 63.5109 12.9994 60.2538 9.74228C56.9966 6.48514 51.7176 6.48514 48.4604 9.74228L39.4999 18.7502C36.9528 17.7107 34.2267 17.1786 31.4757 17.1857H31.0134L43.4467 4.76417C49.3255 -1.38851 59.0791 -1.6113 65.2317 4.26752C71.3844 10.1463 71.6072 19.8999 65.7284 26.0525C65.5672 26.2221 65.4013 26.388 65.2317 26.5492L50.1438 41.6377C48.1822 43.6052 45.7251 45.0062 43.0323 45.6912H42.9493L42.2855 45.8216L41.9062 45.8927L41.1596 45.9993H40.7803L40.0099 46.0705H39.2633L39.2513 46.1417Z" fill="white"/>
</svg>
