<svg width="220" height="50" viewBox="0 0 220 50" fill="none" xmlns="http://www.w3.org/2000/svg">
<path d="M79.9668 11.9336H124.967" stroke="black" stroke-width="3" stroke-linecap="round"/>
<path d="M93.9668 5.93359L79.9668 11.9336L93.9668 17.9336" stroke="black" stroke-width="3" stroke-linecap="round" stroke-linejoin="round"/>
<path d="M125.967 35.9336L80.9668 35.9336" stroke="black" stroke-width="3" stroke-linecap="round"/>
<path d="M111.967 41.9336L125.967 35.9336L111.967 29.9336" stroke="black" stroke-width="3" stroke-linecap="round" stroke-linejoin="round"/>
<path d="M205.823 29.7716C204.738 28.6416 203.429 28.0374 202.041 28.0374C200.665 28.0374 199.345 28.6304 198.215 29.7604L194.679 33.2847C194.389 33.128 194.098 32.9826 193.818 32.8372C193.415 32.6358 193.035 32.4456 192.71 32.2442C189.399 30.1408 186.389 27.3997 183.503 23.8531C182.104 22.0854 181.164 20.5973 180.482 19.0869C181.399 18.2478 182.249 17.3752 183.077 16.5361C183.391 16.2228 183.704 15.8983 184.017 15.5851C186.367 13.2356 186.367 10.1924 184.017 7.84288L180.963 4.78852C180.616 4.44169 180.258 4.08367 179.922 3.72565C179.251 3.03198 178.546 2.31594 177.819 1.64465C176.734 0.570594 175.436 0 174.071 0C172.706 0 171.386 0.570594 170.267 1.64465C170.256 1.65584 170.256 1.65584 170.245 1.66703L166.441 5.50456C165.009 6.93664 164.192 8.68199 164.013 10.707C163.744 13.974 164.706 17.0171 165.445 19.0086C167.257 23.8978 169.965 28.429 174.004 33.2847C178.904 39.1361 184.8 43.7568 191.536 47.0125C194.109 48.232 197.544 49.6753 201.381 49.9214C201.616 49.9326 201.862 49.9438 202.086 49.9438C204.67 49.9438 206.841 49.0152 208.542 47.1691C208.553 47.1468 208.575 47.1356 208.586 47.1132C209.168 46.4084 209.839 45.7706 210.544 45.0882C211.025 44.6294 211.518 44.1484 211.999 43.6449C213.106 42.4925 213.688 41.1499 213.688 39.7738C213.688 38.3865 213.095 37.0551 211.965 35.9363L205.823 29.7716ZM209.828 41.5527C209.817 41.5527 209.817 41.5639 209.828 41.5527C209.392 42.0226 208.944 42.4478 208.463 42.9177C207.736 43.6113 206.998 44.3386 206.304 45.1553C205.174 46.3636 203.843 46.9342 202.097 46.9342C201.929 46.9342 201.75 46.9342 201.583 46.923C198.26 46.7104 195.172 45.4126 192.856 44.305C186.523 41.2394 180.963 36.8873 176.342 31.3715C172.527 26.7732 169.976 22.5217 168.287 17.9569C167.246 15.1711 166.866 13.0006 167.034 10.9532C167.146 9.64417 167.649 8.55892 168.578 7.6303L172.393 3.81515C172.941 3.3005 173.523 3.02079 174.093 3.02079C174.798 3.02079 175.369 3.44594 175.727 3.80396C175.738 3.81515 175.749 3.82634 175.76 3.83753C176.443 4.47525 177.092 5.13535 177.774 5.8402C178.121 6.19822 178.479 6.55624 178.837 6.92545L181.891 9.97981C183.077 11.1658 183.077 12.2622 181.891 13.4481C181.567 13.7726 181.254 14.097 180.929 14.4103C179.989 15.3725 179.094 16.2675 178.121 17.1402C178.099 17.1626 178.076 17.1738 178.065 17.1962C177.103 18.1583 177.282 19.0981 177.483 19.7359C177.495 19.7694 177.506 19.803 177.517 19.8365C178.311 21.7609 179.43 23.5734 181.131 25.7327L181.142 25.7439C184.23 29.5478 187.486 32.5127 191.077 34.7839C191.536 35.0748 192.006 35.3097 192.453 35.5335C192.856 35.7349 193.236 35.9251 193.561 36.1265C193.605 36.1488 193.65 36.1824 193.695 36.2048C194.075 36.395 194.433 36.4845 194.803 36.4845C195.731 36.4845 196.313 35.9027 196.503 35.7125L200.329 31.8862C200.71 31.5058 201.314 31.0471 202.019 31.0471C202.713 31.0471 203.283 31.4834 203.63 31.8638C203.641 31.875 203.641 31.875 203.652 31.8862L209.817 38.0508C210.969 39.192 210.969 40.3668 209.828 41.5527Z" fill="black"/>
<path d="M41.8561 29.7716C40.7708 28.6416 39.4618 28.0374 38.0745 28.0374C36.6983 28.0374 35.3781 28.6304 34.2481 29.7604L30.7127 33.2847C30.4218 33.128 30.1309 32.9826 29.8512 32.8372C29.4484 32.6358 29.068 32.4456 28.7436 32.2442C25.4319 30.1408 22.4223 27.3997 19.5358 23.8531C18.1372 22.0854 17.1974 20.5973 16.515 19.0869C17.4324 18.2478 18.2827 17.3752 19.1106 16.5361C19.4239 16.2228 19.7371 15.8983 20.0504 15.5851C22.3999 13.2356 22.3999 10.1924 20.0504 7.84288L16.996 4.78852C16.6492 4.44169 16.2912 4.08367 15.9556 3.72565C15.2843 3.03198 14.5794 2.31594 13.8522 1.64465C12.7669 0.570594 11.4691 0 10.1042 0C8.73921 0 7.41901 0.570594 6.3002 1.64465C6.28901 1.65584 6.28901 1.65584 6.27782 1.66703L2.47386 5.50456C1.04178 6.93664 0.225048 8.68199 0.0460375 10.707C-0.222478 13.974 0.739701 17.0171 1.47812 19.0086C3.29059 23.8978 5.99812 28.429 10.037 33.2847C14.9374 39.1361 20.8336 43.7568 27.5688 47.0125C30.1421 48.232 33.5769 49.6753 37.4144 49.9214C37.6493 49.9326 37.8955 49.9438 38.1192 49.9438C40.7037 49.9438 42.8742 49.0152 44.5748 47.1691C44.586 47.1468 44.6083 47.1356 44.6195 47.1132C45.2013 46.4084 45.8726 45.7706 46.5775 45.0882C47.0585 44.6294 47.5508 44.1484 48.0319 43.6449C49.1395 42.4925 49.7213 41.1499 49.7213 39.7738C49.7213 38.3865 49.1283 37.0551 47.9983 35.9363L41.8561 29.7716ZM45.8614 41.5527C45.8502 41.5527 45.8502 41.5639 45.8614 41.5527C45.4251 42.0226 44.9776 42.4478 44.4965 42.9177C43.7692 43.6113 43.0308 44.3386 42.3372 45.1553C41.2072 46.3636 39.8758 46.9342 38.1304 46.9342C37.9626 46.9342 37.7836 46.9342 37.6158 46.923C34.2929 46.7104 31.205 45.4126 28.889 44.305C22.5565 41.2394 16.9961 36.8873 12.3754 31.3715C8.5602 26.7732 6.00931 22.5217 4.3199 17.9569C3.27941 15.1711 2.89901 13.0006 3.06683 10.9532C3.17871 9.64417 3.68218 8.55892 4.61079 7.6303L8.42594 3.81515C8.97416 3.3005 9.55595 3.02079 10.1265 3.02079C10.8314 3.02079 11.402 3.44594 11.76 3.80396C11.7712 3.81515 11.7824 3.82634 11.7936 3.83753C12.476 4.47525 13.125 5.13535 13.8074 5.8402C14.1543 6.19822 14.5123 6.55624 14.8703 6.92545L17.9247 9.97981C19.1106 11.1658 19.1106 12.2622 17.9247 13.4481C17.6002 13.7726 17.2869 14.097 16.9625 14.4103C16.0227 15.3725 15.1276 16.2675 14.1543 17.1402C14.1319 17.1626 14.1095 17.1738 14.0983 17.1962C13.1361 18.1583 13.3152 19.0981 13.5165 19.7359C13.5277 19.7694 13.5389 19.803 13.5501 19.8365C14.3445 21.7609 15.4633 23.5734 17.1639 25.7327L17.1751 25.7439C20.263 29.5478 23.5187 32.5127 27.1101 34.7839C27.5688 35.0748 28.0387 35.3097 28.4863 35.5335C28.889 35.7349 29.2694 35.9251 29.5939 36.1265C29.6386 36.1488 29.6834 36.1824 29.7281 36.2048C30.1085 36.395 30.4666 36.4845 30.8358 36.4845C31.7644 36.4845 32.3462 35.9027 32.5364 35.7125L36.3627 31.8862C36.7431 31.5058 37.3473 31.0471 38.0521 31.0471C38.7458 31.0471 39.3164 31.4834 39.6632 31.8638C39.6744 31.875 39.6744 31.875 39.6856 31.8862L45.8502 38.0508C47.0026 39.192 47.0026 40.3668 45.8614 41.5527Z" fill="black"/>
<path d="M33.1642 6.33359H34.9642V18.9336H32.8942V8.54759L30.3562 9.26759L29.8522 7.50359L33.1642 6.33359Z" fill="black"/>
<path d="M192.761 18.9336V17.3136L197.153 12.8316C198.221 11.7636 198.755 10.8396 198.755 10.0596C198.755 9.44759 198.569 8.97359 198.197 8.63759C197.837 8.28959 197.375 8.11559 196.811 8.11559C195.755 8.11559 194.975 8.63759 194.471 9.68159L192.725 8.65559C193.121 7.81559 193.679 7.17959 194.399 6.74759C195.119 6.31559 195.917 6.09959 196.793 6.09959C197.897 6.09959 198.845 6.44759 199.637 7.14359C200.429 7.83959 200.825 8.78759 200.825 9.98759C200.825 11.2716 200.111 12.6396 198.683 14.0916L195.839 16.9356H201.059V18.9336H192.761Z" fill="black"/>
</svg>
