<svg width="141" height="40" viewBox="0 0 141 40" fill="none" xmlns="http://www.w3.org/2000/svg">
<path d="M32.785 16.9283L3.64301 0.355208C2.91401 -0.118403 1.943 -0.118403 1.214 0.355208C0.486005 0.828818 0 1.5391 0 2.48604V35.6325C0 36.5794 0.486005 37.2897 1.214 37.7633C1.7 38 1.943 38 2.429 38C2.915 38 3.15701 38 3.64301 37.7633L32.786 21.1902C33.514 20.7166 34 20.0064 34 19.0594C34 18.1125 33.514 17.4019 32.785 16.9283ZM3.938 32.2974V6.5108L28.552 18.8222L3.938 32.2974Z" fill="black"/>
<path d="M62.5801 39.2H59.6401L76.4401 1.39999H79.3801L62.5801 39.2Z" fill="black"/>
<path d="M123.5 0C122 0 121 0.97491 121 2.43741V36.5626C121 38.0251 122 39 123.5 39C125 39 126 38.0251 126 36.5626V2.4377C126 0.97519 125 0 123.5 0Z" fill="black"/>
<path d="M138.5 0C137 0 136 0.97491 136 2.43741V36.5626C136 38.0251 137 39 138.5 39C140 39 141 38.0251 141 36.5626V2.4377C141 0.97519 140 0 138.5 0Z" fill="black"/>
</svg>
