<svg width="193" height="54" viewBox="0 0 193 54" fill="none" xmlns="http://www.w3.org/2000/svg">
<path d="M41.8891 32.838C40.8041 31.708 39.4951 31.1039 38.1081 31.1039C36.7321 31.1039 35.4111 31.6968 34.2811 32.8268L30.7461 36.3511C30.4551 36.1945 30.1641 36.049 29.8841 35.9036C29.4821 35.7022 29.1011 35.512 28.7771 35.3106C25.4651 33.2072 22.4551 30.4661 19.5691 26.9195C18.1701 25.1518 17.2311 23.6637 16.5481 22.1534C17.4661 21.3142 18.3161 20.4416 19.1441 19.6025C19.4571 19.2892 19.7701 18.9647 20.0841 18.6515C22.4331 16.302 22.4331 13.2588 20.0841 10.9093L17.0291 7.85493C16.6821 7.50809 16.3241 7.15007 15.9891 6.79205C15.3171 6.09839 14.6131 5.38235 13.8851 4.71106C12.8001 3.637 11.5021 3.06641 10.1371 3.06641C8.77209 3.06641 7.45209 3.637 6.33309 4.71106C6.32209 4.72225 6.32208 4.72225 6.31108 4.73344L2.50709 8.57097C1.07509 10.003 0.258088 11.7484 0.0790875 13.7734C-0.188913 17.0404 0.773087 20.0835 1.51109 22.075C3.32409 26.9642 6.03108 31.4954 10.0701 36.3511C14.9711 42.2025 20.8671 46.8232 27.6021 50.0789C30.1751 51.2984 33.6101 52.7417 37.4481 52.9878C37.6831 52.999 37.9291 53.0102 38.1521 53.0102C40.7371 53.0102 42.9071 52.0816 44.6081 50.2356C44.6191 50.2132 44.6421 50.202 44.6531 50.1796C45.2351 49.4748 45.9061 48.837 46.6111 48.1546C47.0921 47.6958 47.5841 47.2148 48.0651 46.7113C49.1731 45.5589 49.7551 44.2163 49.7551 42.8402C49.7551 41.4529 49.1621 40.1215 48.0321 39.0027L41.8891 32.838ZM45.8951 44.6191C45.8831 44.6191 45.8831 44.6303 45.8951 44.6191C45.4581 45.089 45.0111 45.5142 44.5301 45.9841C43.8021 46.6777 43.0641 47.405 42.3701 48.2217C41.2401 49.43 39.9091 50.0006 38.1641 50.0006C37.9961 50.0006 37.8171 50.0006 37.6491 49.9894C34.3261 49.7768 31.2381 48.479 28.9221 47.3714C22.5901 44.3058 17.0291 39.9537 12.4091 34.4379C8.59308 29.8396 6.04308 25.5881 4.35308 21.0234C3.31308 18.2375 2.93208 16.067 3.10008 14.0196C3.21208 12.7106 3.71508 11.6253 4.64408 10.6967L8.45908 6.88156C9.00708 6.3669 9.58909 6.0872 10.1601 6.0872C10.8651 6.0872 11.4351 6.51235 11.7931 6.87037C11.8041 6.88156 11.8161 6.89275 11.8271 6.90393C12.5091 7.54166 13.1581 8.20176 13.8411 8.90661C14.1871 9.26463 14.5451 9.62265 14.9041 9.99186L17.9581 13.0462C19.1441 14.2322 19.1441 15.3286 17.9581 16.5145C17.6331 16.839 17.3201 17.1634 16.9961 17.4767C16.0561 18.4389 15.1611 19.3339 14.1871 20.2066C14.1651 20.229 14.1431 20.2402 14.1321 20.2626C13.1691 21.2247 13.3481 22.1645 13.5501 22.8023C13.5611 22.8358 13.5721 22.8694 13.5831 22.903C14.3781 24.8273 15.4961 26.6398 17.1971 28.7991L17.2081 28.8103C20.2961 32.6143 23.5521 35.5791 27.1431 37.8503C27.6021 38.1412 28.0721 38.3761 28.5191 38.5999C28.9221 38.8013 29.3031 38.9915 29.6271 39.1929C29.6721 39.2152 29.7171 39.2488 29.7611 39.2712C30.1421 39.4614 30.5001 39.5509 30.8691 39.5509C31.7981 39.5509 32.3791 38.9691 32.5701 38.7789L36.3961 34.9526C36.7761 34.5722 37.3801 34.1135 38.0851 34.1135C38.7791 34.1135 39.3501 34.5498 39.6961 34.9302C39.7081 34.9414 39.7081 34.9414 39.7191 34.9526L45.8831 41.1172C47.0361 42.2584 47.0361 43.4332 45.8951 44.6191Z" fill="black"/>
<path d="M28.6428 12.6097C31.5738 13.1019 34.2368 14.4893 36.3628 16.615C38.4888 18.7408 39.8648 21.4035 40.3678 24.3348C40.4908 25.0732 41.1288 25.5879 41.8558 25.5879C41.9458 25.5879 42.0238 25.5767 42.1138 25.5655C42.9418 25.4313 43.4898 24.6481 43.3558 23.8202C42.7508 20.2735 41.0728 17.0402 38.5108 14.4781C35.9488 11.916 32.7158 10.2378 29.1688 9.63362C28.3408 9.49937 27.5688 10.0476 27.4238 10.8643C27.2778 11.6811 27.8148 12.4754 28.6428 12.6097Z" fill="black"/>
<path d="M52.9428 23.3838C51.9478 17.5436 49.1948 12.2293 44.9658 8.00016C40.7368 3.77105 35.4228 1.01877 29.5818 0.0230268C28.7658 -0.122419 27.9938 0.436988 27.8478 1.25372C27.7138 2.08164 28.2618 2.85362 29.0898 2.99907C34.3038 3.88293 39.0588 6.35551 42.8398 10.1259C46.6218 13.9075 49.0828 18.6624 49.9668 23.8761C50.0898 24.6145 50.7278 25.1292 51.4548 25.1292C51.5448 25.1292 51.6228 25.118 51.7128 25.1068C52.5288 24.9837 53.0888 24.2006 52.9428 23.3838Z" fill="black"/>
<path d="M184.647 30.7526C183.562 29.6226 182.253 29.0184 180.865 29.0184C179.489 29.0184 178.169 29.6114 177.039 30.7414L173.504 34.2656C173.213 34.109 172.922 33.9636 172.642 33.8181C172.239 33.6167 171.859 33.4265 171.535 33.2251C168.223 31.1218 165.213 28.3807 162.327 24.834C160.928 23.0663 159.988 21.5783 159.306 20.0679C160.223 19.2288 161.074 18.3561 161.902 17.517C162.215 17.2037 162.528 16.8793 162.841 16.566C165.191 14.2165 165.191 11.1733 162.841 8.82383L159.787 5.76948C159.44 5.42264 159.082 5.06462 158.747 4.7066C158.075 4.01294 157.37 3.2969 156.643 2.62561C155.558 1.55155 154.26 0.980957 152.895 0.980957C151.53 0.980957 150.21 1.55155 149.091 2.62561C149.08 2.6368 149.08 2.6368 149.069 2.64799L145.265 6.48552C143.833 7.9176 143.016 9.66294 142.837 11.688C142.569 14.9549 143.531 17.9981 144.269 19.9896C146.082 24.8788 148.789 29.41 152.828 34.2656C157.728 40.117 163.625 44.7377 170.36 47.9935C172.933 49.213 176.368 50.6562 180.205 50.9024C180.44 50.9136 180.686 50.9248 180.91 50.9248C183.495 50.9248 185.665 49.9961 187.366 48.1501C187.377 48.1277 187.399 48.1165 187.411 48.0942C187.992 47.3893 188.664 46.7516 189.368 46.0691C189.85 45.6104 190.342 45.1293 190.823 44.6258C191.931 43.4735 192.512 42.1309 192.512 40.7548C192.512 39.3674 191.919 38.036 190.789 36.9172L184.647 30.7526ZM188.652 42.5337C188.641 42.5337 188.641 42.5449 188.652 42.5337C188.216 43.0036 187.769 43.4287 187.287 43.8986C186.56 44.5923 185.822 45.3195 185.128 46.1362C183.998 47.3446 182.667 47.9152 180.921 47.9152C180.754 47.9152 180.575 47.9152 180.407 47.904C177.084 47.6914 173.996 46.3936 171.68 45.2859C165.348 42.2204 159.787 37.8682 155.166 32.3525C151.351 27.7541 148.8 23.5027 147.111 18.9379C146.07 16.1521 145.69 13.9816 145.858 11.9341C145.97 10.6251 146.473 9.53988 147.402 8.61126L151.217 4.79611C151.765 4.28145 152.347 4.00175 152.918 4.00175C153.622 4.00175 154.193 4.4269 154.551 4.78492C154.562 4.79611 154.573 4.8073 154.585 4.81849C155.267 5.45621 155.916 6.11631 156.598 6.82116C156.945 7.17918 157.303 7.5372 157.661 7.90641L160.716 10.9608C161.902 12.1467 161.902 13.2431 160.716 14.4291C160.391 14.7535 160.078 15.078 159.754 15.3913C158.814 16.3534 157.919 17.2485 156.945 18.1212C156.923 18.1435 156.901 18.1547 156.889 18.1771C155.927 19.1393 156.106 20.0791 156.308 20.7168C156.319 20.7504 156.33 20.7839 156.341 20.8175C157.135 22.7419 158.254 24.5543 159.955 26.7137L159.966 26.7248C163.054 30.5288 166.31 33.4937 169.901 35.7648C170.36 36.0557 170.83 36.2907 171.277 36.5145C171.68 36.7158 172.06 36.906 172.385 37.1074C172.43 37.1298 172.474 37.1634 172.519 37.1857C172.9 37.3759 173.258 37.4654 173.627 37.4654C174.555 37.4654 175.137 36.8837 175.327 36.6935L179.154 32.8671C179.534 32.4867 180.138 32.028 180.843 32.028C181.537 32.028 182.107 32.4643 182.454 32.8447C182.465 32.8559 182.465 32.8559 182.477 32.8671L188.641 39.0318C189.794 40.173 189.794 41.3477 188.652 42.5337Z" fill="black"/>
<path d="M149.172 45.1559L180.095 14.2334" stroke="black" stroke-width="2" stroke-linecap="round"/>
<path d="M88.5801 46.1395H85.6401L102.44 8.33945H105.38L88.5801 46.1395Z" fill="black"/>
</svg>
