<svg width="17" height="17" viewBox="0 0 17 17" fill="none" xmlns="http://www.w3.org/2000/svg">
<path d="M8.51929 0C12.9633 0 16.608 3.39536 17 7.72725H10.0683V5.40906C10.0683 5.09693 9.87928 4.81494 9.5904 4.6951C9.30082 4.57539 8.9677 4.64175 8.74633 4.86276L5.64828 7.95377C5.34551 8.25586 5.34551 8.74414 5.64828 9.04637L8.74633 12.1372C8.9677 12.3582 9.30082 12.4247 9.5904 12.3049C9.87928 12.1852 10.0683 11.9031 10.0683 11.5909V9.27275H17C16.608 13.6046 12.9633 17 8.51929 17C3.81435 17 0 13.1943 0 8.50007C0 3.80568 3.81435 0 8.51929 0Z" fill="#979797"/>
</svg>
