<svg width="16" height="10" xmlns="http://www.w3.org/2000/svg">
 <defs>
  <clipPath id="clip0">
   <rect id="svg_1" fill="white" height="16" width="16"/>
  </clipPath>
 </defs>
 <g>
  <title>background</title>
  <rect fill="none" id="canvas_background" height="12" width="18" y="-1" x="-1"/>
 </g>
 <g>
  <title>Layer 1</title>
  <g id="svg_2" clip-path="url(#clip0)">
   <path id="svg_3" fill="#979797" d="m7.876543,0.268237c-3.05697,0 -5.82919,1.6725 -7.87481,4.38908c-0.16692,0.22256 -0.16692,0.5335 0,0.75606c2.04562,2.71986 4.81784,4.39236 7.87481,4.39236c3.057,0 5.8292,-1.6725 7.8748,-4.38909c0.1669,-0.22256 0.1669,-0.5335 0,-0.75606c-2.0456,-2.71985 -4.8178,-4.39235 -7.8748,-4.39235zm0.21929,8.1268c-2.02925,0.1277 -3.70502,-1.54482 -3.57738,-3.57735c0.10474,-1.67577 1.46303,-3.03406 3.1388,-3.13879c2.02925,-0.12765 3.70499,1.54485 3.57739,3.57737c-0.108,1.6725 -1.46631,3.03077 -3.13881,3.13877zm-0.10146,-1.55137c-1.09318,0.06874 -1.99652,-0.83133 -1.92452,-1.92451c0.05564,-0.90335 0.78879,-1.63322 1.69214,-1.69214c1.09317,-0.06873 1.99652,0.83134 1.92451,1.92452c-0.05891,0.90662 -0.79206,1.63649 -1.69213,1.69213z"/>
  </g>
 </g>
</svg>