<svg width="20" height="31" viewBox="0 0 20 31" fill="none" xmlns="http://www.w3.org/2000/svg">
<path d="M18.8337 14.1554H18.5354V13.9571H18.5566V13.2656H18.7357C18.9147 13.2656 19.0588 13.1193 19.0588 12.9413V9.51111C19.0588 9.33206 18.9147 9.18586 18.7357 9.18586H18.5566V9.26912C18.5566 9.10772 18.5439 8.93505 18.5204 8.75576C18.3998 7.26827 17.555 4.64073 16.4142 4.22654C15.4054 3.27622 15.2016 3.65326 15.2016 1.70339C15.2016 0.196046 11.7493 -0.0325925 9.51421 0.00340436C7.28008 -0.0325925 3.30091 0.19593 3.30091 1.70339C3.30091 3.66893 3.09387 3.29898 2.06645 4.24825C0.861719 4.71249 0 7.7324 0 9.09552V22.2225C0 23.6722 0.973774 26.0263 2.29916 26.4216C3.12581 27.373 3.3008 26.7876 3.3008 28.5956C3.3008 30.103 7.28008 30.3336 9.51409 30.2964C11.7473 30.3316 15.2015 30.103 15.2015 28.5956C15.2015 26.796 15.3765 27.3854 16.1919 26.4338C17.5406 26.0552 18.5353 23.6887 18.5353 22.2225V22.3057H18.7144C18.8935 22.3057 19.0376 22.1595 19.0376 21.9804V18.5504C19.0376 18.3724 18.8935 18.2261 18.7144 18.2261H18.5353V17.1307H18.8336C19.1447 17.1307 19.3999 16.8775 19.3999 16.5655V14.7207C19.4 14.4087 19.1448 14.1554 18.8337 14.1554ZM18.5584 9.42669H18.7356C18.7828 9.42669 18.8199 9.46374 18.8199 9.51111V12.9412C18.8199 12.9874 18.7829 13.0256 18.7356 13.0256H18.5584V9.42669ZM16.7316 22.7798C16.7316 23.874 15.8444 24.7611 14.7502 24.7611L9.5545 24.9592L3.8526 24.7611C2.75841 24.7611 1.87126 23.874 1.87126 22.7798L1.80519 15.3661L1.87126 8.38186C1.87126 7.28755 2.75841 6.40052 3.8526 6.40052L9.1748 6.26837L14.7502 6.40052C15.8444 6.40052 16.7316 7.28767 16.7316 8.38186L16.7975 15.4982L16.7316 22.7798ZM18.5372 18.4661H18.7146C18.7617 18.4661 18.7989 18.5041 18.7989 18.5505V21.9806C18.7989 22.0278 18.7618 22.0651 18.7146 22.0651H18.5372V18.4661ZM18.7122 16.8907H18.4651C18.2078 16.5644 18.0391 16.3357 18.0391 15.6983C18.0391 15.0755 18.2014 14.7247 18.4488 14.3952H18.7122V16.8907ZM19.1572 16.5655C19.1572 16.7025 19.0749 16.8188 18.9534 16.8662V14.419C19.0749 14.4673 19.1572 14.5837 19.1572 14.7206V16.5655Z" fill="#313131"/>
<path d="M12.9666 10.864H5.45948C4.91232 10.864 4.46875 11.3075 4.46875 11.8546V13.6379C4.46875 14.185 4.91221 14.6286 5.45948 14.6286H12.9666C13.5138 14.6286 13.9573 14.1851 13.9573 13.6379V11.8546C13.9573 11.3076 13.5138 10.864 12.9666 10.864Z" fill="#313131"/>
<path d="M9.34535 21.1575C9.75304 21.1301 9.81934 20.5639 9.46263 20.4568C9.44591 20.4513 9.42291 20.445 9.40039 20.4393L9.39737 20.4382C9.34244 20.422 9.16234 20.3741 8.93707 20.3261C8.76057 20.287 8.56874 20.2491 8.39607 20.2228C8.34301 20.2149 8.28414 20.211 8.2277 20.2149L8.21597 20.2145L8.21992 20.2156C8.0447 20.2307 7.88097 20.3235 7.88283 20.6051C7.88341 20.7841 7.89618 21.0051 8.15908 21.1131C8.46575 21.2393 9.23747 21.1657 9.34535 21.1575Z" fill="#313131"/>
<path d="M9.6361 21.5503C9.63157 21.3875 9.45739 21.3359 9.34951 21.3089C9.24094 21.2827 8.83186 21.2433 8.7205 21.2342C8.49244 21.2179 8.27309 21.2858 8.27994 21.5189C8.28482 21.7202 8.39525 21.9376 8.61762 21.9624C8.80445 21.983 9.18462 21.8757 9.39027 21.8464C9.45263 21.8373 9.64399 21.7794 9.6361 21.5503Z" fill="#313131"/>
<path d="M11.0733 17.8838C10.6645 18.1526 10.6072 18.8007 10.559 19.0115C10.5011 19.2625 10.1459 19.4719 9.95201 19.2335C9.86086 19.1226 8.92378 17.4915 8.7604 17.2665C8.5969 17.0422 8.23055 16.884 7.93955 17.1033C7.67027 17.3083 7.76131 17.572 7.90658 17.7375C7.98217 17.8237 8.46941 18.4844 8.72301 18.8698C8.88105 19.1092 8.96535 19.3164 8.88987 19.4207C8.83739 19.4924 8.56509 19.4763 8.28443 19.3242C7.84434 19.0852 7.03139 18.6547 6.87149 18.5804C6.65365 18.4803 6.34617 18.4183 6.19789 18.7462C6.06586 19.0371 6.25966 19.4042 6.47506 19.5292C6.59432 19.5982 7.7187 20.0248 8.19966 20.2083C8.51458 20.152 9.35702 20.2398 9.52144 20.3007C9.68958 20.3631 9.9541 20.4757 9.9368 20.8251C9.91787 21.1987 9.63315 21.2745 9.63315 21.2745C9.63315 21.2745 9.88838 21.399 9.81569 21.6429C9.77458 21.7798 9.65672 21.8403 9.53503 21.8646C9.70526 21.9515 10.1114 22.1477 10.7341 21.7869C11.186 21.5079 11.5049 21.0938 11.5279 20.5831C11.5455 20.1961 11.4612 19.9646 11.4244 19.7711C11.3645 19.4622 11.4498 18.7676 11.7402 18.4296C12.1423 17.9631 11.562 17.5616 11.0733 17.8838Z" fill="#313131"/>
</svg>
