<svg width="17" height="31" viewBox="0 0 17 31" fill="none" xmlns="http://www.w3.org/2000/svg">
<path d="M7.99345 8.41419C8.31718 8.41419 8.57966 8.1511 8.57966 7.82721C8.57966 7.50333 8.31693 7.24048 7.99345 7.24048C7.66921 7.24048 7.40674 7.50333 7.40674 7.82721C7.40674 8.1511 7.66946 8.41419 7.99345 8.41419ZM7.99345 7.58803C8.12518 7.58803 8.23227 7.69517 8.23227 7.82696C8.23227 7.95876 8.12518 8.06589 7.99345 8.06589C7.86121 8.06589 7.75413 7.95876 7.75413 7.82696C7.75413 7.69517 7.86121 7.58803 7.99345 7.58803Z" fill="#313131"/>
<path d="M16.3843 9.92874H16.0857V9.09461C16.0857 7.71087 15.1989 6.5237 13.966 6.07599C12.9572 5.12551 12.7535 3.65333 12.7535 1.70329C12.7535 0.195972 10.2612 -0.0324922 8.02716 0.00338436C5.79388 -0.0324922 3.29912 0.196221 3.29912 1.70329C3.29912 3.66902 3.09218 5.14819 2.06544 6.09767C0.861387 6.56182 0 7.73279 0 9.09561V21.3639C0 22.8134 0.973698 24.0449 2.29803 24.4406C3.12455 25.3915 3.29937 26.788 3.29937 28.5955C3.29937 30.1031 5.79438 30.3335 8.02716 30.2964C10.2592 30.3316 12.7535 30.1031 12.7535 28.5955C12.7535 26.796 12.9285 25.404 13.7436 24.4525C15.0918 24.0736 16.0857 22.8301 16.0857 21.3642V20.5632H16.265C16.444 20.5632 16.5882 20.4169 16.5882 20.2375V15.6847C16.5882 15.5068 16.444 15.3606 16.265 15.3606H16.0857V13.4322H16.3843C16.6948 13.4322 16.9501 13.1788 16.9501 12.8666V10.4938C16.9501 10.1819 16.6948 9.92874 16.3843 9.92874ZM16.0877 15.6005H16.2647C16.3121 15.6005 16.3492 15.6386 16.3492 15.6849V20.2375C16.3492 20.2851 16.3123 20.3222 16.2647 20.3222H16.0877V15.6005ZM15.2968 19.6555C15.2968 22.0595 13.3486 24.0088 10.9455 24.0088H5.04057C2.6377 24.0088 0.689558 22.0598 0.689558 19.6555V10.8162C0.689558 8.41221 2.63745 6.46291 5.04057 6.46291H10.9455C13.3484 6.46291 15.2968 8.41196 15.2968 10.8162V19.6555ZM16.2625 13.1923H16.0155C15.7585 12.8659 15.5896 12.3071 15.5896 11.6697C15.5896 11.0471 15.752 10.4983 15.9993 10.1687H16.2628V13.1923H16.2625ZM16.7073 12.8669C16.7073 13.0042 16.6248 13.1205 16.5036 13.1678V10.1923C16.6248 10.2407 16.7073 10.357 16.7073 10.494V12.8669Z" fill="#313131"/>
<path d="M12.5885 9.12817H3.3979C2.76038 9.12817 2.24365 9.6449 2.24365 10.283V19.2112C2.24365 19.8493 2.76038 20.3665 3.3979 20.3665H12.5883C13.226 20.3665 13.7428 19.8493 13.7428 19.2112V10.283C13.7428 9.6449 13.226 9.12817 12.5885 9.12817ZM6.28761 16.1034C6.28512 15.7486 6.49132 15.6318 6.71221 15.6129L6.70698 15.6116L6.72192 15.6121C6.79314 15.6071 6.8671 15.6121 6.93409 15.6218C7.15149 15.655 7.39305 15.7028 7.61543 15.7519C7.89907 15.8124 8.12594 15.8727 8.19517 15.8932L8.1989 15.8944C8.22729 15.9016 8.25643 15.9101 8.2771 15.9166C8.72659 16.0514 8.64317 16.7649 8.12967 16.7995C7.9937 16.8102 7.0215 16.9027 6.63526 16.7432C6.3043 16.6079 6.28811 16.3292 6.28761 16.1034ZM7.2125 17.8143C6.9326 17.7829 6.79364 17.5088 6.78741 17.2555C6.77895 16.9617 7.05487 16.876 7.34249 16.8969C7.4827 16.9079 7.99818 16.9577 8.1349 16.9909C8.27062 17.0248 8.49026 17.0895 8.49574 17.2951C8.50545 17.5836 8.2644 17.6568 8.18595 17.6685C7.92696 17.7052 7.44808 17.8402 7.2125 17.8143ZM11.1466 13.3629C10.7806 13.7886 10.6732 14.6639 10.7484 15.053C10.7948 15.297 10.9011 15.5885 10.8787 16.0763C10.8496 16.7198 10.4481 17.2415 9.87859 17.5933C9.09465 18.0477 8.5829 17.8003 8.36874 17.691C8.52189 17.6606 8.67006 17.5843 8.72211 17.4119C8.8135 17.1047 8.49201 16.9475 8.49201 16.9475C8.49201 16.9475 8.85061 16.8521 8.87476 16.3815C8.89643 15.9412 8.56323 15.7992 8.35131 15.7207C8.14411 15.6438 7.08301 15.5334 6.68631 15.6041C6.08067 15.3732 4.66445 14.8353 4.51404 14.7486C4.24285 14.5909 3.9988 14.1285 4.1649 13.762C4.35167 13.3487 4.73916 13.4266 5.01359 13.5527C5.2148 13.6466 6.2388 14.1893 6.79314 14.4902C7.14651 14.6818 7.48967 14.7025 7.55566 14.6118C7.65079 14.4803 7.54471 14.2192 7.34548 13.9177C7.02598 13.4321 6.41238 12.5992 6.31725 12.4906C6.13446 12.2821 6.01966 11.9497 6.35884 11.6914C6.72515 11.4151 7.18685 11.6141 7.3923 11.8971C7.598 12.1804 8.77839 14.2359 8.89344 14.3756C9.13724 14.6761 9.58474 14.412 9.65746 14.0958C9.71797 13.8302 9.79044 13.0133 10.3054 12.675C10.9213 12.2686 11.6527 12.7746 11.1466 13.3629Z" fill="#313131"/>
</svg>
