<svg width="143" height="44" viewBox="0 0 143 44" fill="none" xmlns="http://www.w3.org/2000/svg">
<path d="M138.286 0H4.37614C1.95927 0 0 1.95927 0 4.37614V39.3853C0 41.8022 1.95927 43.7614 4.37614 43.7614H138.286C140.703 43.7614 142.662 41.8022 142.662 39.3853V4.37614C142.662 1.95927 140.703 0 138.286 0Z" fill="white"/>
<path d="M70.4704 26.2315C68.1105 26.2315 66.1278 27.9768 66.1278 30.4588C66.1262 31.0144 66.2369 31.5648 66.4545 32.0783C66.6729 32.5919 66.9928 33.0585 67.3959 33.4513C67.7998 33.8441 68.2792 34.1555 68.8068 34.3674C69.3343 34.5793 69.8993 34.6876 70.4704 34.6862C72.8302 34.6862 74.813 32.9408 74.813 30.4588C74.813 27.9768 72.9241 26.2315 70.4704 26.2315ZM70.4704 32.9408C69.1488 32.9408 68.0158 31.9288 68.0158 30.367C68.0158 28.8971 69.1488 27.7944 70.4704 27.7944C71.7919 27.7944 72.9241 28.8053 72.9241 30.367C72.9241 31.9288 71.7919 32.9397 70.4704 32.9397V32.9408ZM61.0302 26.2315C58.6701 26.2315 56.6873 27.9768 56.6873 30.4588C56.6858 31.0144 56.7971 31.5648 57.0148 32.0783C57.2325 32.5919 57.5524 33.0585 57.9559 33.4513C58.3595 33.8441 58.8389 34.1555 59.3664 34.3674C59.8941 34.5793 60.4594 34.6876 61.0302 34.6862C63.3902 34.6862 65.3727 32.9408 65.3727 30.4588C65.3727 27.9768 63.4845 26.2315 61.0302 26.2315ZM61.0302 32.9408C59.7087 32.9408 58.5759 31.9288 58.5759 30.367C58.5759 28.8971 59.7087 27.7944 61.0302 27.7944C62.3517 27.7944 63.4845 28.8053 63.4845 30.367C63.4845 31.9288 62.3517 32.9397 61.0302 32.9397V32.9408ZM49.7971 27.5178V29.2643H54.2331C54.14 30.2752 53.7615 31.0096 53.1945 31.4697C52.5344 32.1123 51.5901 32.7561 49.7971 32.7561C47.0587 32.7561 44.9817 30.6424 44.9817 27.9779C44.9817 25.3123 47.0587 23.1998 49.7971 23.1998C51.2129 23.1998 52.3457 23.7506 53.1002 24.4862L54.4228 23.1998C53.29 22.1889 51.8731 21.3616 49.7971 21.3616C46.1145 21.3616 43 24.3025 43 27.8862C43 31.4697 46.1145 34.4107 49.7971 34.4107C51.7788 34.4107 53.29 33.767 54.5172 32.5725C55.7443 31.3779 56.1215 29.7233 56.1215 28.4369C56.1215 27.9779 56.1215 27.6096 56.0273 27.3342H49.7971V27.5178ZM95.7701 28.8971C95.393 27.9779 94.3547 26.2315 92.0887 26.2315C89.8227 26.2315 88.0286 27.9768 88.0286 30.4588C88.0286 32.8479 89.8219 34.6862 92.2773 34.6862C94.26 34.6862 95.393 33.4916 95.8648 32.8478L94.3546 31.9299C93.8813 32.6643 93.2217 33.1233 92.1833 33.1233C91.2397 33.1233 90.5785 32.6643 90.106 31.8369L95.8648 29.5397L95.7701 28.8971ZM89.9174 30.2752C89.8227 28.6206 91.2389 27.7932 92.1833 27.7932C92.9384 27.7932 93.5988 28.1616 93.7874 28.7123L89.9174 30.2752ZM85.1976 34.4107H87.0857V22.0053H85.1976V34.4107ZM82.0819 27.1506C81.6101 26.6916 80.7604 26.2326 79.7213 26.2326C77.55 26.2326 75.5688 28.0686 75.5688 30.4588C75.5688 32.8479 77.55 34.6862 79.7213 34.6862C80.7604 34.6862 81.6101 34.226 81.9873 33.767H82.0819V34.4107C82.0819 35.9725 81.2314 36.8916 79.816 36.8916C78.683 36.8916 77.9287 36.0643 77.6447 35.4206L75.9459 35.8807C76.417 36.9834 77.6454 38.3616 79.816 38.3616C82.0819 38.3616 83.8761 37.0752 83.8761 33.9506V26.4162H82.0827V27.1529L82.0819 27.1506ZM79.9099 32.9397C78.5891 32.9397 77.55 31.8369 77.55 30.367C77.55 28.8971 78.683 27.7944 79.9099 27.7944C81.2329 27.7944 82.1758 28.8971 82.1758 30.367C82.2705 31.9288 81.2329 32.9397 79.9099 32.9397ZM104.645 22.0053H100.113V34.3178H102V29.6315H104.643C106.721 29.6315 108.797 28.1616 108.797 25.7725C108.797 23.3834 106.816 22.0053 104.645 22.0053ZM104.738 27.9779H102.002V23.7506H104.738C106.155 23.7506 107.005 24.8534 107.005 25.8643C106.91 26.7822 106.155 27.9779 104.739 27.9779H104.738ZM116.444 26.2326C115.029 26.2326 113.612 26.7834 113.044 28.1616L114.745 28.8053C115.123 28.1616 115.783 27.8862 116.444 27.8862C117.388 27.8862 118.428 28.4369 118.428 29.4479V29.5397C117.814 29.2345 117.133 29.0771 116.444 29.0806C114.651 29.0806 112.763 30.0916 112.763 31.8369C112.763 33.4916 114.273 34.5944 115.878 34.5944C117.104 34.5944 117.86 34.0424 118.331 33.3998H118.428V34.3178H120.22V29.5397C120.315 27.426 118.616 26.2315 116.444 26.2315V26.2326ZM116.162 32.9397C115.5 32.9397 114.65 32.6643 114.65 31.9288C114.65 31.0107 115.689 30.6424 116.633 30.6424C117.483 30.6424 117.86 30.826 118.333 31.0107C118.333 32.1123 117.295 32.9397 116.162 32.9397ZM126.923 26.508L124.751 31.8369H124.657L122.391 26.508H120.315L123.713 33.9506L121.824 38.0862H123.808L129 26.4151H126.923V26.508ZM109.93 34.4107H111.819V22.0053H109.93V34.4107Z" fill="#00974A"/>
<path d="M27.5998 17.1675L23.4398 21.3866L11.7602 9.53888C12.4009 9.21394 13.2001 9.37583 13.8396 9.70084L27.5998 17.1675ZM32.5601 19.927C34.48 20.9009 34.48 23.6604 32.5601 24.6342L28.5597 26.7437L24.2401 22.3616L28.7193 17.8163L32.5601 19.927ZM10.6395 10.3496L22.4799 22.3616L10.6395 34.3735C10.3204 34.0485 10 33.3985 10 32.5878V12.1354C10 11.3246 10.3204 10.6747 10.6408 10.3508L10.6395 10.3496ZM11.7602 35.1842L23.4398 23.3354L27.5998 27.5557L14.0004 35.0223C13.2001 35.3473 12.3998 35.5092 11.7602 35.1842Z" fill="#00974A"/>
<path fill-rule="evenodd" clip-rule="evenodd" d="M46.3529 14.1269C46.3032 15.0035 46.2014 15.5904 45.8602 16.0262V16.1029H49.2057V10.4709H46.5774L46.3529 14.1269ZM45.0423 17.2123V18.7623H44V16.1029H44.5333C45.0573 15.765 45.2401 15.1063 45.2968 14.0626L45.5652 9.36157H50.344V16.1029H51.259V18.7623H50.2179V17.2123H45.0423ZM54.9956 17.3262C53.3737 17.3262 52.3823 16.1673 52.3823 14.247C52.3823 12.3367 53.3783 11.1729 54.9956 11.1729C56.607 11.1729 57.603 12.3367 57.603 14.247C57.603 16.1673 56.6116 17.3262 54.9956 17.3262ZM54.9956 16.2862C55.9407 16.2862 56.4798 15.5359 56.4798 14.247C56.4798 12.9631 55.9407 12.2116 54.9956 12.2116C54.0446 12.2116 53.5114 12.9631 53.5114 14.247C53.5114 15.5421 54.0446 16.2874 54.9956 16.2874V16.2862ZM63.902 13.2244H62.8388C62.7115 12.6474 62.2651 12.2179 61.5316 12.2179C60.6177 12.2179 60.0578 12.9681 60.0578 14.2309C60.0578 15.5148 60.6224 16.2824 61.5328 16.2824C62.2234 16.2824 62.6965 15.9445 62.84 15.3081H63.902C63.7597 16.4991 62.9048 17.3262 61.5374 17.3262C59.9259 17.3262 58.9403 16.1624 58.9403 14.2309C58.9403 12.3318 59.9213 11.1729 61.5316 11.1729C62.9198 11.1729 63.7597 12.0383 63.902 13.2244ZM69.3353 11.2868V12.2723H67.5921V17.2123H66.499V12.2723H64.7543V11.2868H69.3353ZM71.3137 19.3616C71.2211 19.3616 70.9617 19.3504 70.8601 19.3344V18.3265C70.9473 18.3426 71.1149 18.3476 71.2166 18.3476C71.7347 18.3476 72.0298 18.1198 72.2171 17.5205L72.2983 17.2333L70.2972 11.2855H71.4851L72.8733 15.9928H72.9598L74.3419 11.2855H75.5018L73.4377 17.4561C72.9643 18.8973 72.4417 19.3604 71.3129 19.3604L71.3137 19.3616ZM80.5068 17.2123V12.2723H78.0058V17.2123H76.9127V11.2868H81.5954V17.2123H80.5083H80.5068ZM87.1208 17.2123V14.6445H84.5682V17.2123H83.4751V11.2868H84.5682V13.659H87.1208V11.2868H88.2078V17.2123H87.1208ZM92.4323 17.3262C90.8105 17.3262 89.819 16.1673 89.819 14.247C89.819 12.3367 90.8166 11.1729 92.4338 11.1729C94.0443 11.1729 95.0411 12.3367 95.0411 14.247C95.0411 16.1673 94.0496 17.3262 92.4323 17.3262ZM92.4323 16.2862C93.379 16.2862 93.9169 15.5359 93.9169 14.247C93.9169 12.9631 93.379 12.2116 92.4323 12.2116C91.4818 12.2116 90.9486 12.9631 90.9486 14.247C90.9486 15.5421 91.4818 16.2874 92.4323 16.2874V16.2862ZM100.822 12.1844H99.6175V13.7196H100.701C101.361 13.7196 101.677 13.4473 101.677 12.9471C101.677 12.484 101.402 12.1844 100.822 12.1844ZM100.776 14.5788H99.6175V16.3147H100.913C101.56 16.3147 101.905 16.0101 101.905 15.4492C101.905 14.8562 101.514 14.5788 100.777 14.5788H100.776ZM98.5373 17.2123V11.2868H101.034C102.116 11.2868 102.751 11.8748 102.751 12.7948C102.751 13.3928 102.354 13.9363 101.816 14.0453V14.1381C102.533 14.2248 103 14.7856 103 15.5037C103 16.5375 102.274 17.2123 101.058 17.2123H98.5358H98.5373Z" fill="#00974A"/>
</svg>
