<svg width="44" height="44" viewBox="0 0 44 44" fill="none" xmlns="http://www.w3.org/2000/svg">
<path d="M0 21.7564C0 9.74066 9.74066 0 21.7564 0C33.7721 0 43.5128 9.74066 43.5128 21.7564C43.5128 33.7721 33.7721 43.5128 21.7564 43.5128C9.74066 43.5128 0 33.7721 0 21.7564Z" fill="white"/>
<path d="M21.7564 15.974C23.5267 15.974 24.7209 16.7387 25.4018 17.3777L28.0625 14.7798C26.4283 13.2609 24.3019 12.3286 21.7564 12.3286C18.0691 12.3286 14.8846 14.4446 13.3342 17.5244L16.3825 19.8918C17.1472 17.6186 19.2632 15.974 21.7564 15.974Z" fill="#EA4335"/>
<path d="M30.807 21.9659C30.807 21.1907 30.7441 20.625 30.608 20.0384H21.7563V23.5372H26.9521C26.8473 24.4066 26.2817 25.716 25.0246 26.596L27.9996 28.9005C29.7804 27.2559 30.807 24.8361 30.807 21.9659Z" fill="#4285F4"/>
<path d="M16.393 23.621C16.194 23.0343 16.0788 22.4058 16.0788 21.7564C16.0788 21.1069 16.194 20.4784 16.3826 19.8918L13.3342 17.5243C12.6952 18.8023 12.3286 20.2374 12.3286 21.7564C12.3286 23.2753 12.6952 24.7104 13.3342 25.9884L16.393 23.621Z" fill="#FBBC05"/>
<path d="M21.7564 31.1841C24.3019 31.1841 26.4388 30.3461 27.9997 28.9005L25.0247 26.596C24.2286 27.1511 23.1601 27.5387 21.7564 27.5387C19.2633 27.5387 17.1473 25.8941 16.393 23.621L13.3447 25.9884C14.8951 29.0681 18.0691 31.1841 21.7564 31.1841Z" fill="#34A853"/>
</svg>
