<svg width="70" height="70" viewBox="0 0 70 70" fill="none" xmlns="http://www.w3.org/2000/svg">
<path fill-rule="evenodd" clip-rule="evenodd" d="M1.01953 8.82095C1.01953 4.52057 4.5401 1 8.84048 1H61.1585C65.4588 1 68.9794 4.52057 68.9794 8.82095V61.1389C68.9794 65.4393 65.4588 68.9599 61.1585 68.9599H8.84048C4.5401 68.9599 1.01953 65.4393 1.01953 61.1389V8.82095ZM8.84048 0C3.98782 0 0.0195312 3.96829 0.0195312 8.82095V61.1389C0.0195312 65.9916 3.98782 69.9599 8.84048 69.9599H61.1585C66.0111 69.9599 69.9794 65.9916 69.9794 61.1389V8.82095C69.9794 3.96829 66.0111 0 61.1585 0H8.84048ZM54.7076 28.4927C55.1944 33.9362 56.365 52.63 56.3983 54.1116C56.4277 55.4222 55.9449 56.6661 55.0389 57.6137C54.1328 58.5613 52.912 59.0994 51.6012 59.1288C50.2906 59.158 49.0468 58.6752 48.0994 57.7694C47.4678 57.1654 47.0082 56.4038 46.7703 55.5668L46.7727 55.5663C46.7716 55.5626 46.7274 55.3758 46.6485 55.0421C46.0261 52.4096 43.2428 40.6372 42.3783 37.5317C41.6296 34.8423 40.4017 33.6456 40.3499 33.5961C40.3463 33.5928 40.3432 33.5901 40.3406 33.5877C40.328 33.5764 40.3244 33.5731 40.3082 33.5559C40.2602 33.5103 38.9953 32.3236 36.2752 31.6961C33.6572 31.0923 18.2905 28.1614 18.1205 28.1294C18.1005 28.1256 18.0808 28.1214 18.0614 28.1167L18.0612 28.1171C17.2146 27.917 16.433 27.492 15.8013 26.888C14.8538 25.9821 14.3158 24.7613 14.2864 23.4507C14.2569 22.1398 14.7398 20.8961 15.6458 19.9485C16.5518 19.0009 17.7728 18.4628 19.0835 18.4334C19.6053 18.4217 41.2168 18.8172 44.7525 18.974C47.5346 19.0973 50.0003 20.0578 51.6951 21.6782C53.3901 23.299 54.4599 25.7191 54.7076 28.4927ZM17.3388 25.2802C17.6788 25.6054 18.0971 25.8355 18.55 25.9468C18.731 25.9807 19.4241 26.111 20.4453 26.3041L20.3188 20.6602C19.7196 20.6548 19.3063 20.6536 19.1336 20.6574C18.4167 20.6737 17.7491 20.9679 17.2538 21.4859C16.7584 22.004 16.4944 22.684 16.5104 23.4008C16.5266 24.1173 16.8207 24.7849 17.3388 25.2802ZM22.5445 20.6876L22.6798 26.7281C23.3507 26.8558 24.0736 26.9938 24.8275 27.1383L24.6837 20.7206C23.9122 20.708 23.1933 20.6969 22.5445 20.6876ZM41.8871 31.9883C42.1731 32.2618 43.6444 33.7855 44.521 36.9351C45.0128 38.701 45.9955 42.7179 46.9163 46.5529L53.7249 46.4002C53.3345 40.1742 52.787 31.9914 52.4918 28.6907C52.2948 26.4862 51.4441 24.5162 50.1576 23.2859C48.8712 22.056 46.8653 21.2945 44.6539 21.1963C41.3417 21.0495 33.1456 20.8694 26.9098 20.7585L27.0624 27.5681C30.9201 28.3134 35.0028 29.1199 36.775 29.5286C39.9607 30.2635 41.5614 31.6769 41.8499 31.9528C41.858 31.9604 41.8644 31.9665 41.871 31.9729C41.876 31.9776 41.881 31.9825 41.8871 31.9883ZM53.8626 48.6223L47.4459 48.7663C47.6232 49.5093 47.7931 50.2246 47.9518 50.8934L53.9914 50.758C53.9531 50.1103 53.9099 49.3928 53.8626 48.6223ZM49.6368 56.1615C50.1548 56.6569 50.8347 56.9209 51.5514 56.9049C52.2679 56.8887 52.9357 56.5943 53.4311 56.0762C53.9264 55.5581 54.1905 54.8782 54.1744 54.1614C54.1705 53.9887 54.1509 53.577 54.1187 52.9803L48.4755 53.1069C48.6686 53.9255 48.8197 54.5684 48.9108 54.956L48.9167 54.9813C49.0481 55.4287 49.2969 55.8364 49.6368 56.1615Z" fill="#313131"/>
</svg>
