<svg width="70" height="70" viewBox="0 0 70 70" fill="none" xmlns="http://www.w3.org/2000/svg">
<path fill-rule="evenodd" clip-rule="evenodd" d="M1 8.82095C1 4.52057 4.52057 1 8.82095 1H61.1389C65.4393 1 68.9599 4.52057 68.9599 8.82095V61.1389C68.9599 65.4393 65.4393 68.9599 61.1389 68.9599H8.82095C4.52057 68.9599 1 65.4393 1 61.1389V8.82095ZM8.82095 0C3.96829 0 0 3.96829 0 8.82095V61.1389C0 65.9916 3.96829 69.9599 8.82095 69.9599H61.1389C65.9916 69.9599 69.9599 65.9916 69.9599 61.1389V8.82095C69.9599 3.96829 65.9916 0 61.1389 0H8.82095ZM53.8573 37.5663C58.3084 38.7428 60.9696 43.319 59.7897 47.7673C58.6099 52.2157 54.0291 54.8784 49.5786 53.7021C43.7167 52.153 38.1441 49.7321 33.0157 46.5064C28.619 43.741 24.5986 40.4118 21.0661 36.6118C20.5799 36.0889 20.2001 35.4817 19.938 34.8282C19.5423 33.8413 19.4147 32.7489 19.5947 31.6812L20.7762 24.6711C20.3027 23.8866 19.8519 23.0892 19.4237 22.2798L18.4456 25.6383C18.2695 26.2427 17.6365 26.59 17.032 26.4148C16.6817 26.3131 16.4178 26.0583 16.2919 25.7444C16.2003 25.516 16.1818 25.2568 16.256 25.0026L17.9368 19.2327L16.4382 16.0019C16.4297 15.9832 16.4217 15.9644 16.4141 15.9454C16.1901 15.3869 16.4408 14.7445 16.9932 14.4885C17.5648 14.2238 18.2424 14.4714 18.5073 15.0422L19.9063 18.0593L26.6595 18.6176C27.287 18.6695 27.7535 19.2199 27.7007 19.8472C27.6486 20.4747 27.0973 20.9408 26.4698 20.8889L21.0391 20.4399C21.5154 21.3859 22.0213 22.3113 22.5562 23.2165L28.9938 23.475C30.7534 23.5457 32.3978 24.2965 33.6247 25.5893C39.1201 31.3795 46.1162 35.5211 53.8573 37.5663ZM31.9696 27.1578C31.1536 26.2983 30.0639 25.7988 28.901 25.752L24.035 25.5566C26.1118 28.6371 28.5348 31.4407 31.2491 33.9173L38.1873 32.609C35.9622 30.992 33.8796 29.1702 31.9696 27.1578ZM22.737 35.0599C26.135 38.7149 30.0024 41.9174 34.2315 44.5774C35.3979 45.3113 36.5894 46.0001 37.8014 46.6467L36.4235 40.7129C34.6252 39.5701 32.9025 38.3132 31.2744 36.9497C27.9969 34.2045 25.0753 31.0063 22.6132 27.4925L21.8437 32.0582C21.6612 33.1398 21.9952 34.2622 22.737 35.0599ZM40.4387 47.9656C43.5611 49.4299 46.8122 50.6134 50.1628 51.499C53.3978 52.3537 56.7277 50.4185 57.5851 47.1851C58.4427 43.9511 56.5084 40.625 53.2727 39.7696C48.8702 38.6067 44.6974 36.7979 40.8779 34.421L33.4693 35.8178C34.8812 36.952 36.3592 38.0045 37.8982 38.9687C37.9892 39.0099 38.0744 39.0621 38.1517 39.1255C42.0279 41.5194 46.2789 43.3592 50.7993 44.554C51.408 44.7146 51.7708 45.3382 51.6093 45.9468C51.4476 46.5549 50.8238 46.9178 50.2149 46.7568C46.3695 45.7406 42.6368 44.2396 39.1378 42.3183L40.4159 47.8213C40.4271 47.8695 40.4339 47.9176 40.4387 47.9656Z" fill="#313131"/>
</svg>
