<svg width="70" height="70" viewBox="0 0 70 70" fill="none" xmlns="http://www.w3.org/2000/svg">
<path fill-rule="evenodd" clip-rule="evenodd" d="M1 8.82092C1 4.52057 4.52057 1 8.82095 1H61.1389C65.4393 1 68.9599 4.52057 68.9599 8.82092V61.1389C68.9599 65.4393 65.4393 68.9599 61.1389 68.9599H8.82095C4.52057 68.9599 1 65.4393 1 61.1389V8.82092ZM8.82095 0C3.96829 0 0 3.96826 0 8.82092V61.1389C0 65.9916 3.96829 69.9599 8.82095 69.9599H61.1389C65.9916 69.9599 69.9599 65.9916 69.9599 61.1389V8.82092C69.9599 3.96826 65.9916 0 61.1389 0H8.82095ZM54.4397 26.4688C54.9936 27.8467 55.4056 29.2787 55.6623 30.7377C55.8784 31.9738 55.9865 33.2369 56 34.4932C56 42.3759 51.6906 49.6169 44.767 53.386C44.7502 53.3961 44.7333 53.4046 44.7164 53.413C44.6995 53.4214 44.6826 53.4299 44.6657 53.44L44.632 53.4603C44.6049 53.4738 44.5779 53.489 44.5508 53.5042C44.5238 53.5194 44.4968 53.5346 44.4698 53.5481C42.9365 54.3451 41.3222 54.9531 39.6741 55.3718C37.9854 55.7906 36.2427 56 34.5 56C33.399 56 32.298 55.9122 31.2173 55.7501C29.1976 55.4394 27.2253 54.8382 25.3677 53.9669C21.727 52.2512 18.6401 49.5561 16.4449 46.172C14.1888 42.7001 13 38.6608 13 34.5C13 30.92 13.8984 27.3806 15.6005 24.2465L15.587 24.2397L15.9855 23.5643C17.8498 20.4031 20.5179 17.762 23.6858 15.9113C26.9551 14.0065 30.6904 13 34.4932 13C38.8703 13 43.0784 14.3036 46.6651 16.7758C50.164 19.1873 52.8523 22.5375 54.4397 26.4688ZM36.0873 25.084C35.2295 24.4828 34.7229 24.3883 34.4932 24.3883C34.3244 24.3883 34.0272 24.4356 33.5814 24.6855C32.4263 25.2732 30.9471 26.6917 29.5218 28.5829C28.0628 30.5215 26.8132 32.7168 26.0162 34.7567C25.9486 34.9188 25.8946 35.0674 25.8406 35.216C25.7392 35.4997 25.6447 35.7834 25.5636 36.0603C25.4015 36.5872 25.2867 37.0938 25.2124 37.5599C24.9895 38.9716 25.1583 39.9645 25.7122 40.5116C26.9416 41.7342 30.5553 42.5988 34.5 42.6123C34.9323 42.6056 35.3714 42.592 35.8036 42.5718C36.2967 42.5448 36.7898 42.511 37.2626 42.457C37.2744 42.455 37.2861 42.4536 37.2978 42.4525C37.3266 42.4496 37.3554 42.4482 37.3842 42.4435L37.418 42.4367C37.9651 42.3624 39.6943 42.0854 40.6535 41.8018C40.756 41.7706 40.8614 41.7365 40.9639 41.7032C41.0168 41.6861 41.069 41.6693 41.1195 41.6531C42.1057 41.3222 42.869 40.9102 43.281 40.5049C43.7538 40.032 43.943 39.2283 43.8484 38.107C43.6863 36.1819 42.6596 33.5544 41.0452 30.893C39.4917 28.3466 37.6409 26.1783 36.0873 25.084ZM45.6857 39.593C47.3608 38.6 48.8468 37.4315 49.9951 36.1684C52.3593 33.5746 53.3184 30.6364 52.7713 27.6711V27.6575C52.751 27.5698 52.7375 27.4887 52.7173 27.4009L52.7105 27.3536C52.7016 27.3181 52.6941 27.2839 52.6866 27.2505C52.6771 27.2076 52.6679 27.1658 52.6565 27.124C49.6371 19.6938 42.511 14.8981 34.4865 14.8981C29.6434 14.8981 24.9557 16.7556 21.3825 19.9438C22.7537 19.4507 24.1857 19.2007 25.6852 19.2007C25.7965 19.2007 25.9123 19.2007 26.0328 19.2045C26.0586 19.2053 26.0845 19.2063 26.1107 19.2075C26.1445 19.2142 26.1783 19.2142 26.2121 19.2142H26.2729C26.3292 19.2189 26.3855 19.2204 26.4418 19.2231C26.4665 19.2242 26.4913 19.2257 26.516 19.2278C26.5836 19.2345 26.6444 19.2346 26.7119 19.2413L26.7794 19.248C26.8005 19.2516 26.8234 19.2533 26.8472 19.2551C26.8692 19.2567 26.8919 19.2583 26.9146 19.2615C26.9585 19.2649 27.004 19.27 27.0496 19.275C27.0952 19.2801 27.1408 19.2852 27.1847 19.2886H27.2117C27.2219 19.2886 27.232 19.2903 27.2421 19.292C27.2523 19.2937 27.2624 19.2953 27.2725 19.2953C27.2861 19.3021 27.2996 19.3021 27.3131 19.3021H27.3198C27.4144 19.3088 27.509 19.3223 27.6035 19.3359L27.6981 19.3494C27.8062 19.3629 27.9075 19.3764 28.0155 19.3967L28.0561 19.4034C30.7377 19.8492 33.4936 21.0245 36.2562 22.9023L36.2967 22.9293C36.3311 22.95 36.3637 22.9723 36.3955 22.9946C36.4261 23.0162 36.456 23.0378 36.4859 23.0577L36.5737 23.1185C36.5972 23.1353 36.6223 23.152 36.6475 23.1688C36.673 23.1858 36.6985 23.2028 36.7223 23.2198C36.7561 23.2401 36.7966 23.267 36.8304 23.2941L36.9587 23.3886L37.1816 23.5507C38.9378 24.7869 40.9777 27.1645 42.6528 29.9136C44.4158 32.8113 45.5371 35.7429 45.7262 37.9449C45.7735 38.5392 45.76 39.0931 45.6857 39.593ZM17.4814 24.7233C17.4629 24.7551 17.4444 24.787 17.4243 24.8206C15.7559 27.7589 14.8778 31.1024 14.8913 34.4932C14.8913 41.9099 19.1467 48.7523 25.7663 52.0553C24.8746 50.8732 24.1789 49.4615 23.6926 47.8337C22.7672 44.7198 22.6456 40.8561 23.3549 37.2221C23.4427 36.6818 23.5778 36.1008 23.7601 35.4997C23.8547 35.1957 23.956 34.8782 24.0708 34.5608C24.1316 34.3919 24.1924 34.2231 24.2667 34.0407C26.1107 29.3192 29.8326 24.4626 32.7303 22.9833C32.7303 22.9833 32.7321 22.9816 32.7347 22.9799C32.7372 22.9782 32.7405 22.9766 32.7438 22.9766C30.7512 21.9567 28.2925 21.0718 25.6987 21.0718C22.7537 21.0718 20.0654 22.2133 17.7215 24.4559L17.6742 24.4964C17.6364 24.5288 17.6029 24.5656 17.5668 24.5997C17.5578 24.6083 17.5486 24.6166 17.5391 24.6248C17.5187 24.6587 17.5 24.691 17.4814 24.7233ZM31.0787 53.7371C31.0838 53.7388 31.0889 53.7405 31.0957 53.744L31.17 53.8182L31.3523 53.879C31.3586 53.879 31.3634 53.8805 31.3681 53.882C31.3735 53.8839 31.3788 53.8858 31.3861 53.8858L31.4402 53.9061C31.4697 53.9145 31.4965 53.9229 31.524 53.9313C31.5406 53.9364 31.5574 53.9415 31.5752 53.9466C32.5412 54.0884 33.5273 54.1627 34.5068 54.1627C36.1008 54.1627 37.6882 53.9669 39.2282 53.5886C40.7278 53.2036 42.207 52.6429 43.612 51.9202C43.6593 51.8932 43.7066 51.8729 43.7538 51.8459L43.7809 51.8324C43.7972 51.8202 43.8159 51.8104 43.8356 51.8002C43.8486 51.7934 43.862 51.7864 43.8754 51.7784C50.1978 48.3335 54.1222 41.7275 54.1222 34.5405C54.1222 34.1285 54.1087 33.7165 54.0817 33.3044C53.7034 34.2636 53.1833 35.2025 52.5214 36.1211C50.4545 38.9783 47.5365 40.8629 45.4493 41.9436C42.8217 43.3013 39.9442 44.1794 37.5598 44.3618H37.5261H37.4855H37.3977C36.9182 44.4091 36.4183 44.4496 35.9117 44.4766C35.4524 44.5036 34.9796 44.5172 34.5135 44.5172H34.5068C30.3054 44.4969 26.5903 43.6052 24.7936 42.2138V42.4299V42.538C24.7936 42.7001 24.8004 42.8488 24.8071 42.9771V43.0109C24.8139 43.1459 24.8206 43.2878 24.8341 43.4431L24.8409 43.5444C24.8476 43.6863 24.8611 43.8349 24.8746 43.9767L24.8814 44.0713C24.8876 44.1462 24.8953 44.2183 24.9031 44.2867C24.9122 44.3665 24.9214 44.4413 24.9287 44.5104V44.5239C24.9489 44.6522 24.9692 44.7941 24.9895 44.9562L25.003 45.044C25.0233 45.1859 25.0503 45.3277 25.0705 45.4628L25.084 45.5438C25.1014 45.6482 25.1188 45.7413 25.1362 45.8287C25.1458 45.8771 25.1555 45.9236 25.1651 45.9694V45.9761C25.1854 46.0977 25.2191 46.2328 25.2529 46.3882L25.2732 46.4625C25.3002 46.5908 25.334 46.7259 25.3677 46.8542L25.388 46.9285C25.4285 47.0771 25.4691 47.2122 25.5028 47.327C25.5174 47.3767 25.532 47.4251 25.5466 47.4728C25.5658 47.5354 25.585 47.5967 25.6041 47.658C25.6075 47.6715 25.6126 47.6851 25.6176 47.6985C25.6227 47.712 25.6278 47.7256 25.6312 47.7391L25.6717 47.8539L25.7122 47.9755C25.719 48.0025 25.7325 48.0295 25.7392 48.0566L25.7798 48.1646C25.8 48.2051 25.8135 48.2457 25.8271 48.2862C25.8406 48.3065 25.8473 48.3267 25.8541 48.347L25.8946 48.4483C25.9052 48.4696 25.914 48.4928 25.9229 48.5168C25.9309 48.5385 25.939 48.561 25.9486 48.5834C25.952 48.5936 25.9554 48.6021 25.9588 48.6105C25.9622 48.6189 25.9655 48.6273 25.9689 48.6375L26.0094 48.7253C26.0197 48.7526 26.0316 48.7781 26.0435 48.8037C26.0553 48.8288 26.0669 48.8539 26.077 48.8806C26.0837 48.9009 26.0905 48.9144 26.0972 48.9279L26.1378 49.009C26.1513 49.036 26.1631 49.063 26.1749 49.0901C26.1868 49.1171 26.1986 49.144 26.2121 49.1711L26.2323 49.2116L26.2729 49.2859L26.3539 49.448L26.3877 49.5156C26.4054 49.551 26.425 49.5865 26.4445 49.6219C26.4622 49.654 26.4797 49.6861 26.4958 49.7182L26.5363 49.7925C26.5701 49.8533 26.6106 49.9208 26.6444 49.9816L26.6781 50.0356L26.7997 50.2383L26.8267 50.2856C26.8504 50.3193 26.8723 50.3531 26.8943 50.3869C26.9162 50.4207 26.9382 50.4545 26.9618 50.4882L26.9888 50.522L27.1307 50.7246L27.151 50.7584C27.1982 50.8259 27.2455 50.8935 27.2996 50.9611L27.3198 50.988L27.4819 51.1907L27.509 51.2245C27.536 51.2549 27.5613 51.2853 27.5866 51.3157C27.612 51.3461 27.6373 51.3765 27.6643 51.4069C27.6737 51.4116 27.6799 51.4196 27.685 51.4263C27.6872 51.4291 27.6893 51.4318 27.6913 51.4339C27.7454 51.4947 27.8062 51.5555 27.8602 51.6163L27.8872 51.6432C27.924 51.6846 27.9639 51.7229 28.0027 51.7623C28.0209 51.7808 28.0388 51.7995 28.0561 51.8189L28.0831 51.8459C28.1439 51.9 28.1979 51.9608 28.2587 52.0148L28.2857 52.0418C28.3244 52.0805 28.3666 52.1192 28.4097 52.1579L28.4614 52.2039C28.4654 52.2121 28.472 52.2178 28.478 52.2225C28.482 52.2255 28.4857 52.2282 28.4884 52.2309C28.5275 52.2657 28.5667 52.3005 28.6058 52.3335C28.6274 52.3517 28.6491 52.3694 28.6707 52.3863L28.7045 52.4133L28.8869 52.5551H28.8937C28.9004 52.5585 28.9054 52.5618 28.9104 52.5652C28.9155 52.5686 28.9206 52.572 28.9274 52.5754C28.995 52.6227 29.0558 52.6632 29.1166 52.7105L29.1503 52.7375C29.2111 52.778 29.2719 52.8253 29.3395 52.8658L29.3462 52.8726C29.353 52.8793 29.3665 52.8861 29.38 52.8929C29.4201 52.9196 29.4601 52.9464 29.5021 52.9731C29.5238 52.9869 29.5461 53.0007 29.5691 53.0145L29.5759 53.0212L29.6164 53.0414C29.6507 53.0643 29.6849 53.0872 29.7204 53.1088C29.7479 53.1255 29.7761 53.1416 29.8055 53.1563L29.8596 53.1833C29.8897 53.2001 29.9215 53.2168 29.9533 53.2336C29.9857 53.2506 30.018 53.2676 30.0487 53.2847L30.0622 53.2914L30.1027 53.3116C30.1635 53.3455 30.2243 53.3724 30.2919 53.4062L30.3121 53.413L30.3527 53.4332C30.4202 53.467 30.481 53.494 30.5418 53.5211L30.6026 53.5481C30.6367 53.5617 30.669 53.5754 30.7014 53.5891C30.7332 53.6024 30.765 53.6158 30.7985 53.6292L30.866 53.6561C30.8996 53.6696 30.9316 53.6813 30.9635 53.6931C30.9957 53.705 31.028 53.7169 31.0619 53.7305C31.0686 53.7338 31.0736 53.7355 31.0787 53.7371Z" fill="black"/>
</svg>
