<svg width="70" height="70" viewBox="0 0 70 70" fill="none" xmlns="http://www.w3.org/2000/svg">
<path fill-rule="evenodd" clip-rule="evenodd" d="M1 8.82095C1 4.52057 4.52057 1 8.82095 1H61.1389C65.4393 1 68.9599 4.52057 68.9599 8.82095V61.1389C68.9599 65.4393 65.4393 68.9599 61.1389 68.9599H8.82095C4.52057 68.9599 1 65.4393 1 61.1389V8.82095ZM8.82095 0C3.96829 0 0 3.96829 0 8.82095V61.1389C0 65.9916 3.96829 69.9599 8.82095 69.9599H61.1389C65.9916 69.9599 69.9599 65.9916 69.9599 61.1389V8.82095C69.9599 3.96829 65.9916 0 61.1389 0H8.82095ZM57.2647 29.1926L34.3801 11.728L10.9034 29.1851C10.4602 29.5146 10.368 30.1411 10.6976 30.5842C11.0271 31.0274 11.6536 31.1195 12.0968 30.79L34.3644 14.232L56.0513 30.7825C56.4904 31.1175 57.1179 31.0332 57.4529 30.5942C57.788 30.1552 57.7037 29.5276 57.2647 29.1926ZM18.3643 32.9198C18.3643 32.3675 17.9165 31.9198 17.3643 31.9198C16.812 31.9198 16.3643 32.3675 16.3643 32.9198V47.98C16.3643 50.7414 18.6028 52.98 21.3643 52.98H46.4996C49.261 52.98 51.4996 50.7414 51.4996 47.98V32.9198C51.4996 32.3675 51.0519 31.9198 50.4996 31.9198C49.9473 31.9198 49.4996 32.3675 49.4996 32.9198V47.98C49.4996 49.6368 48.1565 50.98 46.4996 50.98H21.3643C19.7074 50.98 18.3643 49.6368 18.3643 47.98V32.9198ZM26.9209 31.9349C26.9209 29.1735 29.1595 26.9349 31.9209 26.9349H36.5626C38.8202 26.9349 40.6502 28.765 40.6502 31.0225C40.6502 32.7595 39.5525 34.3068 37.913 34.8807L28.9209 38.0279V39.4763C28.9209 41.1332 30.264 42.4763 31.9209 42.4763H40.6502V44.4763H31.9209C29.1595 44.4763 26.9209 42.2377 26.9209 39.4763V31.9349ZM28.9209 35.9089L37.2523 32.9929C38.0896 32.6999 38.6502 31.9097 38.6502 31.0225C38.6502 29.8696 37.7156 28.9349 36.5626 28.9349H31.9209C30.264 28.9349 28.9209 30.2781 28.9209 31.9349V35.9089Z" fill="#313131"/>
</svg>
