<svg width="70" height="70" viewBox="0 0 70 70" fill="none" xmlns="http://www.w3.org/2000/svg">
<path fill-rule="evenodd" clip-rule="evenodd" d="M1 8.82095C1 4.52057 4.52057 1 8.82095 1H61.1389C65.4393 1 68.9599 4.52057 68.9599 8.82095V61.1389C68.9599 65.4393 65.4393 68.9599 61.1389 68.9599H8.82095C4.52057 68.9599 1 65.4393 1 61.1389V8.82095ZM8.82095 0C3.96829 0 0 3.96829 0 8.82095V61.1389C0 65.9916 3.96829 69.9599 8.82095 69.9599H61.1389C65.9916 69.9599 69.9599 65.9916 69.9599 61.1389V8.82095C69.9599 3.96829 65.9916 0 61.1389 0H8.82095ZM17.478 30.0717C20.4983 30.0717 22.9557 27.62 22.9557 24.6063C22.9557 23.3608 22.5261 22.1465 21.7449 21.1793C21.7365 21.1674 21.7277 21.1558 21.7189 21.1442L18.5596 17.1265C18.2933 16.7878 17.8942 16.5938 17.4636 16.5938H17.4601C17.0284 16.5948 16.6287 16.791 16.3634 17.1314L13.2175 21.1712L13.2164 21.1726C12.4317 22.1409 12 23.3594 12 24.6063C12 27.62 14.4574 30.0717 17.478 30.0717ZM14.6223 22.2918C14.6311 22.2809 14.6399 22.2701 14.6483 22.2585L17.465 18.6412L20.2674 22.2055C20.2832 22.2286 20.3 22.2511 20.3183 22.2729C20.8601 22.927 21.1588 23.756 21.1588 24.6063C21.1588 26.6292 19.5076 28.2748 17.4777 28.2748C15.4481 28.2748 13.7969 26.6292 13.7969 24.6063C13.7969 23.7528 14.0822 22.9523 14.6223 22.2918ZM35 30.0717C38.0203 30.0717 40.478 27.62 40.478 24.6063C40.478 23.3612 40.0484 22.1472 39.2676 21.1796C39.2591 21.1677 39.2504 21.1558 39.2409 21.1442L36.0816 17.1265C35.8156 16.7878 35.4162 16.5938 34.9856 16.5938H34.9824C34.5504 16.5948 34.1507 16.7906 33.8854 17.1314L30.7394 21.1712L30.7385 21.1724L30.7377 21.1737C29.9536 22.1416 29.522 23.3598 29.522 24.6063C29.522 27.62 31.9793 30.0717 35 30.0717ZM32.1443 22.2918C32.1534 22.2806 32.1625 22.269 32.171 22.2574L34.987 18.6412L37.7894 22.2051C37.8051 22.2283 37.822 22.2511 37.8402 22.2729C38.3821 22.927 38.6808 23.756 38.6808 24.6063C38.6808 26.6292 37.0295 28.2748 34.9996 28.2748C32.9701 28.2748 31.3188 26.6292 31.3188 24.6063C31.3188 23.7528 31.6042 22.9523 32.1443 22.2918ZM58.0001 24.6063C58.0001 27.62 55.5427 30.0717 52.5221 30.0717C49.5018 30.0717 47.0444 27.62 47.0444 24.6063C47.0444 23.3594 47.4761 22.1409 48.2608 21.1726L48.2613 21.172L48.2615 21.1712L51.4078 17.1314C51.6728 16.791 52.0729 16.5948 52.5045 16.5938H52.5081C52.9383 16.5938 53.3377 16.7878 53.6041 17.1265L56.7634 21.1442C56.7725 21.1558 56.7809 21.1674 56.7893 21.1793C57.5705 22.1469 58.0001 23.3612 58.0001 24.6063ZM49.6806 22.2744C49.676 22.2803 49.6712 22.286 49.6664 22.2918C49.1266 22.9523 48.8413 23.7528 48.8413 24.6063C48.8413 26.6292 50.4925 28.2748 52.5221 28.2748C54.552 28.2748 56.2032 26.6292 56.2032 24.6063C56.2032 23.756 55.9046 22.927 55.3627 22.2729C55.3445 22.2511 55.3276 22.2286 55.3118 22.2055L52.5095 18.6412L49.6924 22.2585C49.6886 22.2639 49.6846 22.2692 49.6806 22.2744ZM57.1016 37.9766H53.1484V36.7833C53.1484 36.2874 52.7462 35.8849 52.25 35.8849C51.7538 35.8849 51.3516 36.2874 51.3516 36.7833V37.9766H35.8984V36.7833C35.8984 36.2874 35.4962 35.8849 35 35.8849C34.5038 35.8849 34.1016 36.2874 34.1016 36.7833V37.9766H18.6484V36.7833C18.6484 36.2874 18.2462 35.8849 17.75 35.8849C17.2538 35.8849 16.8516 36.2874 16.8516 36.7833V37.9766H12.8984C12.4022 37.9766 12 38.3791 12 38.875C12 39.3712 12.4022 39.7734 12.8984 39.7734H57.1016C57.5978 39.7734 58 39.3712 58 38.875C58 38.3791 57.5978 37.9766 57.1016 37.9766ZM12.8984 32.2266H57.1016C57.5978 32.2266 58 32.6291 58 33.125C58 33.6212 57.5978 34.0234 57.1016 34.0234H44.535V35.2167C44.535 35.7129 44.1325 36.1151 43.6366 36.1151C43.1403 36.1151 42.7381 35.7129 42.7381 35.2167V34.0234H27.285V35.2167C27.285 35.7129 26.8825 36.1151 26.3866 36.1151C25.8903 36.1151 25.4881 35.7129 25.4881 35.2167V34.0234H12.8984C12.4022 34.0234 12 33.6212 12 33.125C12 32.6291 12.4022 32.2266 12.8984 32.2266ZM51.163 46.7156L51.6238 46.2548V54.5078C51.6238 55.0037 52.026 55.4062 52.5223 55.4062C53.0185 55.4062 53.4207 55.0037 53.4207 54.5078V46.2548L53.8819 46.716C54.2325 47.0666 54.8014 47.0666 55.1523 46.716C55.5033 46.365 55.5033 45.7961 55.1523 45.4452L53.1579 43.4507C52.9894 43.2823 52.7606 43.1875 52.5226 43.1875C52.2843 43.1875 52.0555 43.2823 51.8871 43.4507L49.8926 45.4452C49.5416 45.7961 49.5416 46.365 49.8926 46.716C50.2435 47.0666 50.8124 47.0666 51.163 46.7156ZM34.3743 46.3458L33.9135 46.8066C33.5629 47.1575 32.994 47.1575 32.6431 46.8069C32.2921 46.456 32.2921 45.8871 32.6431 45.5361L34.6375 43.5417C34.806 43.3732 35.0348 43.2784 35.2731 43.2784C35.5111 43.2784 35.7399 43.3732 35.9083 43.5417L37.9028 45.5361C38.2538 45.8871 38.2538 46.456 37.9028 46.8069C37.5518 47.1575 36.983 47.1575 36.6324 46.8069L36.1712 46.3458V54.5988C36.1712 55.0947 35.769 55.4972 35.2728 55.4972C34.7765 55.4972 34.3743 55.0947 34.3743 54.5988V46.3458ZM16.1186 46.7156L16.5794 46.2548V54.5078C16.5794 55.0037 16.9816 55.4062 17.4778 55.4062C17.9741 55.4062 18.3763 55.0037 18.3763 54.5078V46.2548L18.8371 46.716C19.188 47.0666 19.7569 47.0666 20.1079 46.716C20.4588 46.365 20.4588 45.7961 20.1079 45.4452L18.1134 43.4507C17.945 43.2823 17.7161 43.1875 17.4778 43.1875C17.2399 43.1875 17.0111 43.2823 16.8426 43.4507L14.8482 45.4452C14.4972 45.7961 14.4972 46.365 14.8482 46.716C15.1991 47.0666 15.7677 47.0666 16.1186 46.7156Z" fill="#313131"/>
</svg>
