<svg width="70" height="70" viewBox="0 0 70 70" fill="none" xmlns="http://www.w3.org/2000/svg">
<path fill-rule="evenodd" clip-rule="evenodd" d="M1.02051 8.82095C1.02051 4.52057 4.54108 1 8.84146 1H61.1594C65.4598 1 68.9804 4.52057 68.9804 8.82095V61.1389C68.9804 65.4393 65.4598 68.9599 61.1594 68.9599H8.84146C4.54108 68.9599 1.02051 65.4393 1.02051 61.1389V8.82095ZM8.84146 0C3.98879 0 0.0205078 3.96829 0.0205078 8.82095V61.1389C0.0205078 65.9916 3.98879 69.9599 8.84146 69.9599H61.1594C66.0121 69.9599 69.9804 65.9916 69.9804 61.1389V8.82095C69.9804 3.96829 66.0121 0 61.1594 0H8.84146ZM34.1142 47.4638C34.1422 47.4297 34.1659 47.3936 34.1869 47.3554L40.4103 35.7792C40.5243 35.5678 40.5159 35.3142 40.3894 35.1104C40.2628 34.9065 40.0355 34.7811 39.7907 34.7811H37.6927V26.6732C37.7018 26.4959 37.6445 26.322 37.5277 26.1823C37.2612 25.8639 36.6437 25.8666 36.3793 26.185C36.3612 26.2068 36.3444 26.23 36.329 26.2552L30.0153 36.1901L29.4055 37.1496C29.2719 37.3603 29.2656 37.6241 29.3894 37.8403C29.5125 38.0564 29.7461 38.19 30 38.19H32.7973L32.7987 47.0049C32.7994 47.1652 32.8533 47.3315 32.9498 47.4529C33.082 47.6213 33.3197 47.7351 33.5372 47.7351C33.7505 47.7351 33.982 47.6261 34.1142 47.4638ZM41.7903 19.6997H28C26.8954 19.6997 26 20.5951 26 21.6997V51.98C26 53.0846 26.8954 53.98 28 53.98H41.7903C42.8949 53.98 43.7903 53.0846 43.7903 51.98V21.6997C43.7903 20.5951 42.8949 19.6997 41.7903 19.6997ZM28 17.6997C25.7909 17.6997 24 19.4906 24 21.6997V51.98C24 54.1891 25.7909 55.98 28 55.98H41.7903C43.9995 55.98 45.7903 54.1891 45.7903 51.98V21.6997C45.7903 19.4906 43.9995 17.6997 41.7903 17.6997H40.3104C40.426 17.4468 40.4904 17.1655 40.4904 16.8693V14.98C40.4904 13.8754 39.595 12.98 38.4904 12.98H31.3008C30.1962 12.98 29.3008 13.8754 29.3008 14.98V16.8693C29.3008 17.1655 29.3652 17.4468 29.4808 17.6997H28ZM31.3008 14.98L38.4904 14.98L38.4904 16.8693L31.3008 16.8693L31.3008 14.98Z" fill="#313131"/>
</svg>
