<svg width="18" height="18" viewBox="0 0 18 18" fill="none" xmlns="http://www.w3.org/2000/svg">
<path d="M9.00011 3.81818C9.60153 3.81818 10.0908 4.30778 10.0908 4.90958C10.0908 5.51084 9.60153 6 9.00011 6C8.39869 6 7.90942 5.51084 7.90942 4.90958C7.90942 4.30778 8.39869 3.81818 9.00011 3.81818Z" fill="#979797"/>
<path d="M9.81818 8.45455C9.81818 8.00269 9.45185 7.63636 9 7.63636C8.54815 7.63636 8.18182 8.00269 8.18182 8.45455V13.3636C8.18182 13.8155 8.54815 14.1818 9 14.1818C9.45185 14.1818 9.81818 13.8155 9.81818 13.3636V8.45455Z" fill="#979797"/>
<path fill-rule="evenodd" clip-rule="evenodd" d="M9 0C13.9626 0 18 4.03745 18 9.00006C18 13.9627 13.9626 18 9 18C4.0374 18 0 13.9627 0 9.00006C0 4.03745 4.0374 0 9 0ZM9 16.3636C13.0604 16.3636 16.3636 13.0604 16.3636 9.00006C16.3636 4.93975 13.0604 1.63636 9 1.63636C4.93964 1.63636 1.63636 4.93975 1.63636 9.00006C1.63636 13.0604 4.93969 16.3636 9 16.3636Z" fill="#979797"/>
</svg>
