<svg width="17" height="31" viewBox="0 0 17 31" fill="none" xmlns="http://www.w3.org/2000/svg">
<path d="M16.3917 9.92852H16.0933V9.09462C16.0933 7.71091 15.2058 6.52382 13.9724 6.07587C12.9633 5.1256 12.7596 3.65334 12.7596 1.70332C12.7596 0.196001 10.2658 -0.0326092 8.0307 0.00340672C5.79656 -0.0326092 3.30086 0.196001 3.30086 1.70332C3.30086 3.66872 3.09393 5.14824 2.06638 6.09746C0.861899 6.56175 0 7.73241 0 9.09557V21.3639C0 22.8136 0.973959 24.0449 2.2991 24.4403C3.12584 25.3916 3.30076 26.7877 3.30076 28.5956C3.30076 30.1029 5.79647 30.3334 8.0306 30.2964C10.2638 30.3315 12.7595 30.103 12.7595 28.5956C12.7595 26.7959 12.9345 25.404 13.7498 24.4525C15.0986 24.0737 16.0932 22.8301 16.0932 21.3639V20.5628H16.2723C16.4515 20.5628 16.5956 20.4167 16.5956 20.2376V15.6849C16.5956 15.5068 16.4515 15.3605 16.2723 15.3605H16.0932V13.4321H16.3916C16.7027 13.4321 16.958 13.1788 16.958 12.8668V10.4937C16.9581 10.1818 16.7028 9.92852 16.3917 9.92852ZM14.8707 19.3745C14.8707 21.6689 13.0213 23.5285 10.7402 23.5285H5.13452C2.85338 23.5285 1.00405 21.6688 1.00405 19.3745V10.94C1.00405 8.64609 2.85338 6.78635 5.13452 6.78635H10.7402C13.0213 6.78635 14.8707 8.64609 14.8707 10.94V19.3745ZM16.0953 15.6004H16.2724C16.3197 15.6004 16.3568 15.6384 16.3568 15.6849V20.2376C16.3568 20.285 16.3197 20.322 16.2724 20.322H16.0953V15.6004ZM16.2703 13.1921H16.0232C15.7659 12.8659 15.597 12.3068 15.597 11.6695C15.597 11.0466 15.7596 10.4978 16.0068 10.1683H16.2703V13.1921ZM16.715 12.8668C16.715 13.0038 16.6328 13.1201 16.5112 13.1676V10.1921C16.6327 10.2404 16.715 10.3568 16.715 10.4937V12.8668Z" fill="#313131"/>
<path d="M13.6893 8.71069H2.18555V20.2106H13.6893V8.71069Z" fill="#313131"/>
</svg>
