<svg width="190" height="81" viewBox="0 0 190 81" fill="none" xmlns="http://www.w3.org/2000/svg">
<path fill-rule="evenodd" clip-rule="evenodd" d="M52.8417 41.2591C51.6187 39.6537 51.4156 37.8704 51.4049 35.9437V1.06787H47.0536V35.5892C47.0151 37.6779 47.4586 39.833 48.1823 41.4782C49.0069 43.4155 50.672 45.1205 52.6186 45.9464C54.5904 46.7524 56.7123 46.9741 58.8316 46.9502H67.9605V43.8046H58.3482C56.0365 43.8324 54.2744 43.134 52.8417 41.2591Z" fill="white"/>
<path fill-rule="evenodd" clip-rule="evenodd" d="M29.8395 1.06752L8.47578 1.04761C3.2932 0.973246 -0.0888284 3.32884 0.00279288 8.05863L0.0227097 35.5888C-0.0211091 37.6775 0.431684 39.8326 1.15138 41.4778C1.97995 43.4152 3.64109 45.1201 5.58771 45.946C7.56089 46.752 9.68013 46.9738 11.8007 46.9499H41.6573V43.8042H11.3187C9.00824 43.8321 7.23822 43.135 5.80548 41.2587C4.58785 39.6534 4.38203 37.8701 4.37273 35.9434V30.0026L32.3996 22.1006C37.1187 20.7966 41.1447 18.4676 41.9507 13.8573C42.2415 12.1524 42.2455 10.4063 41.9507 8.7013C40.9814 3.15091 35.4655 1.10736 29.8395 1.06752ZM37.3644 13.5785C36.9873 16.3895 34.6184 17.8621 31.7489 18.6827L4.37273 26.185L4.3568 7.27918C4.34352 5.34451 6.44019 4.21983 8.39079 4.19726L29.708 4.19327C33.4725 4.19327 36.6473 5.73092 37.3073 8.90048C37.5848 10.2243 37.5396 12.2506 37.3644 13.5785Z" fill="white"/>
<path fill-rule="evenodd" clip-rule="evenodd" d="M157.39 22.0977C162.111 20.7965 166.133 18.4674 166.943 13.8558C167.233 12.1509 167.241 10.4047 166.943 8.69714C165.973 3.15073 160.458 1.10717 154.832 1.07132H134.993C129.814 0.986339 126.436 3.33131 126.525 8.06242C126.528 21.0288 126.522 33.9753 126.522 46.9497H130.875C130.875 33.719 130.888 20.507 130.878 7.27767C130.87 5.34699 132.961 4.22097 134.914 4.19973L154.697 4.19707C158.464 4.19707 161.636 5.73073 162.3 8.9003C162.579 10.2255 162.53 12.2478 162.357 13.573C161.977 16.3907 159.611 17.8619 156.746 18.6825L146.351 21.637C145.523 21.799 144.606 22.6939 144.606 23.7363C144.606 24.3737 144.888 24.9407 145.317 25.3523L165.303 47.0108H170.823L149.697 24.2714L157.39 22.0977Z" fill="white"/>
<path d="M176.706 1.12744H172.351V47.0085H176.706V1.12744Z" fill="white"/>
<path fill-rule="evenodd" clip-rule="evenodd" d="M101.868 3.03547C101.305 2.30516 100.631 1.70099 99.8524 1.24421C99.0703 0.774155 98.1276 0.535144 97.0427 0.523193C95.9021 0.535144 94.9328 0.775484 94.148 1.22297C93.3739 1.68506 92.7259 2.27461 92.1828 3.00626C91.649 3.73657 91.167 4.53727 90.7487 5.37779L69.1274 46.9513H73.8028C76.4704 41.7554 78.3055 38.1756 79.7648 35.3592L109.922 26.8398C112.398 31.6227 114.083 34.8599 120.28 46.9513H124.965L103.334 5.37779C102.922 4.54789 102.423 3.77376 101.868 3.03547ZM81.8588 31.2907C84.7867 25.6195 86.7307 21.9174 94.7057 6.42945C94.8823 6.08553 95.0802 5.70046 95.2926 5.30874C95.4998 4.90508 95.7375 4.55718 96.0229 4.26107C96.2965 3.96894 96.6351 3.81624 97.0427 3.795C97.4464 3.81492 97.7797 3.96894 98.0638 4.26107C98.3453 4.55585 98.5883 4.90508 98.7902 5.30874C99.0013 5.70046 99.1925 6.08553 99.3837 6.42945C103.893 15.1945 106.448 20.1474 108.306 23.7273L81.8588 31.2907Z" fill="white"/>
<path d="M185.646 8.45572C183.401 8.45572 181.396 6.89683 181.396 4.22919C181.396 1.56155 183.401 0 185.646 0C187.882 0 189.883 1.56155 189.883 4.22919C189.883 6.89683 187.881 8.45572 185.646 8.45572ZM185.646 0.987921C183.976 0.987921 182.612 2.28257 182.612 4.23052C182.612 6.17847 183.976 7.48506 185.646 7.48506C187.273 7.48506 188.667 6.1798 188.667 4.23052C188.667 2.28124 187.271 0.987921 185.646 0.987921ZM184.947 6.49715H183.976V1.94928H185.666C186.838 1.94928 187.535 2.28124 187.535 3.32227C187.535 4.16279 187.038 4.46422 186.441 4.50671L187.601 6.49848H186.452L185.399 4.58373H184.947V6.49715V6.49715ZM184.947 3.80959H185.799C186.242 3.80959 186.496 3.72992 186.496 3.22268C186.496 2.75926 185.987 2.72607 185.622 2.72607H184.947V3.80959Z" fill="white"/>
<path d="M25.3939 58.468H21.8525V62.0107H25.3939V58.468Z" fill="white"/>
<path d="M25.3898 63.4473H21.8564V80.9735H25.3898V63.4473Z" fill="white"/>
<path d="M40.2152 63.4458H35.3261C33.5003 63.4458 30.8712 63.7313 29.1237 66.205C27.9579 67.9419 27.7959 69.9203 27.7959 71.7979C27.7959 74.9011 28.1982 76.3192 28.5488 77.2089C29.5234 79.6707 31.6201 80.9733 34.6091 80.9733H40.6083C41.1806 80.9733 42.369 80.9733 43.0967 80.0704C43.6371 79.4397 43.75 78.4491 43.75 77.7294V58.4478H40.2166V63.4458H40.2152ZM34.9676 66.784H40.2152V77.2899C40.2152 77.4359 40.2073 77.5488 40.198 77.6311C40.1488 77.6351 40.0864 77.6364 40.0094 77.6364H34.9676C33.2401 77.6364 32.2654 77.092 31.806 75.8691C31.5989 75.3114 31.3877 74.4178 31.3877 72.0316C31.3877 70.5975 31.4382 69.1117 32.0423 68.0879C32.6053 67.2089 33.5601 66.784 34.9676 66.784Z" fill="white"/>
<path d="M58.3348 58.4612L50.1407 58.4492C49.5869 58.4492 48.2166 58.5315 47.4398 59.295C46.582 60.1409 46.582 61.2642 46.582 61.8684V80.9734H50.1739V73.0529L59.3493 73.0648C60.6306 73.0648 61.8761 72.6678 62.7658 71.9773C64.6394 70.5339 64.8784 68.1544 64.8784 66.241C64.8784 63.653 64.5518 61.166 62.9557 59.793C61.5322 58.5634 59.891 58.4612 58.3348 58.4612ZM50.1739 61.8286C50.2256 61.8233 50.2934 61.8193 50.3797 61.8193L58.4835 61.8299C59.7742 61.8299 60.3305 62.2097 60.5364 62.4261C60.9307 62.8855 61.1671 64.459 61.1671 65.8294C61.1671 67.9845 60.8497 68.8077 60.5775 69.1238C60.4673 69.2592 59.9906 69.6987 58.4224 69.6987L50.1739 69.6894V62.1048C50.1739 62.0211 50.1739 61.9122 50.1739 61.8286Z" fill="white"/>
<path d="M76.1003 63.4472H70.2272V58.4492H66.6938V80.9734H70.2272V66.7828H76.2504C77.0683 66.7828 77.6287 66.881 78.0708 67.383C78.606 67.9977 78.606 69.1131 78.606 69.4783V80.9721H82.142V69.6536C82.142 68.0243 81.9402 66.1773 80.4384 64.8122C79.3721 63.8695 78.0336 63.4472 76.1003 63.4472Z" fill="white"/>
<path d="M92.8234 63.1179C90.7161 63.1179 88.067 63.3423 86.2904 65.0885C84.0078 67.2196 84.0078 70.9283 84.0078 72.1473C84.0078 73.6677 84.0078 76.8332 86.2904 78.9711C88.2357 80.7889 90.9511 80.9987 92.8234 80.9987C93.9016 80.9987 97.184 80.9987 99.3776 78.9525C100.223 78.1173 101.639 76.1029 101.639 71.968C101.639 68.817 100.874 66.5026 99.3643 65.0924C97.5213 63.3529 95.0236 63.1179 92.8234 63.1179ZM87.662 72.1181C87.662 70.838 87.6621 68.6962 88.6739 67.5569C89.5423 66.5716 91.4597 66.4574 92.8234 66.4574C94.1884 66.4574 96.1045 66.5717 96.9822 67.5609C97.9847 68.6949 97.9847 70.8367 97.9847 72.1181C97.9847 73.2414 97.9847 75.3301 96.9689 76.4721C95.9744 77.5197 94.3145 77.6605 92.822 77.6605C91.3309 77.6605 89.6724 77.5197 88.6646 76.4641C87.6567 75.4244 87.6594 73.3782 87.6607 72.2761V72.1181H87.662Z" fill="white"/>
<path d="M113.038 63.4473H106.292C105.823 63.4473 104.73 63.4473 103.941 64.4299C103.451 65.0911 103.386 65.8573 103.386 66.4495V80.9735H106.924V66.7828H113.126C114.105 66.7828 114.544 66.9329 114.935 67.4016C115.281 67.8172 115.391 68.3417 115.391 69.566V80.9735H118.925V69.1862C118.925 67.3153 118.415 65.8653 117.412 64.8774C116.131 63.6199 114.555 63.4473 113.038 63.4473Z" fill="white"/>
<path d="M124.793 75.6435C124.673 75.2278 124.588 74.5082 124.564 73.7181H133.221C133.645 73.7181 134.775 73.7181 135.552 73.0024C136.22 72.4155 136.542 71.5325 136.542 70.3042C136.542 67.7574 135.436 65.6501 133.505 64.5214C132.047 63.6836 130.239 63.5083 128.979 63.5083C127.417 63.5083 125.14 63.6743 123.378 65.119C121.099 67.0284 120.908 69.8434 120.908 72.3305C120.908 74.9437 121.017 76.9275 122.405 78.6882C123.624 80.2272 125.248 80.9761 127.366 80.9761H136.124V77.6379H127.366C125.85 77.6366 125.035 76.5663 124.793 75.6435ZM128.712 66.8438C130.173 66.8438 131.265 66.9155 132.033 67.8344C132.784 68.7546 132.879 69.9125 132.891 70.3772H124.604C124.671 69.3827 124.825 68.8077 125.167 68.254C125.975 66.9448 127.146 66.8438 128.712 66.8438Z" fill="white"/>
<path d="M9.55782 69.4317C11.0676 67.8277 19.2976 58.9896 19.3852 58.894L19.8287 58.4199L14.9622 58.4425L14.8785 58.5301C14.8002 58.6138 7.30978 66.6473 6.35108 67.6551H3.59315V58.4505H0V80.9734H3.59315V71.1991H6.31789C7.46249 72.3782 15.7589 80.8698 15.7589 80.8698L15.8425 80.9548L20.8857 80.9442L20.4156 80.4661C20.316 80.3679 11.0941 71.0026 9.55782 69.4317Z" fill="white"/>
<path d="M156.206 70.0293C156.324 69.9177 156.416 69.8102 156.49 69.7172C157.247 68.801 157.582 67.4666 157.582 65.3911C157.582 63.1843 157.267 61.8591 156.504 60.8286C155.201 59.0307 153.221 59.0308 152.273 59.0308H142.877V62.4938H152.527C153.002 62.4938 153.25 62.6013 153.473 62.8935C153.89 63.4591 153.889 64.4205 153.889 65.2703V65.3898C153.889 66.1892 153.889 67.2846 153.465 67.764C153.266 67.9764 152.715 68.2261 151.819 68.2261H142.936V71.6904H151.964C152.642 71.6904 153.173 71.9042 153.377 72.0941C154.003 72.7208 154.003 74.3581 154.003 74.8959C154.003 76.1918 153.809 76.9991 153.424 77.2953C153.112 77.5356 152.256 77.5356 151.564 77.5356H142.426V80.9986H152.472C153.739 80.9986 155.185 80.8233 156.331 79.5314C157.25 78.477 157.695 76.8863 157.695 74.6714C157.695 72.7235 157.275 71.2509 156.473 70.3254C156.396 70.2298 156.307 70.1275 156.206 70.0293Z" fill="white"/>
<path d="M173.43 69.7874V77.3362C173.43 77.4212 173.424 77.4876 173.418 77.5354C173.377 77.5367 173.329 77.5367 173.29 77.5367L167.46 77.5049C165.055 77.5049 164.088 75.784 163.844 75.2449C163.553 74.6208 163.063 73.111 163.063 69.9866C163.063 67.0043 163.491 65.5662 163.859 64.8704C164.635 63.3421 166.185 62.463 168.116 62.463L176.61 62.4962V59.0306L168.541 59C167.2 59 165.208 59.1328 163.375 60.2548C159.806 62.3701 159.313 66.2368 159.313 70.0955C159.313 73.5665 159.7 77.0826 162.491 79.2921C163.851 80.373 165.626 80.9679 167.49 80.9679L173.686 80.9997C174.193 80.9997 175.453 80.9161 176.174 80.1924C177.064 79.397 177.064 78.19 177.064 77.7346V69.7874H173.43V69.7874Z" fill="white"/>
</svg>
