<svg width="20" height="31" viewBox="0 0 20 31" fill="none" xmlns="http://www.w3.org/2000/svg">
<path d="M18.8174 9.92856H18.5194V9.0946C18.5194 7.7109 17.6325 6.5238 16.4001 6.07587C15.392 5.12565 15.1884 3.6534 15.1884 1.70339C15.1884 0.196018 11.7391 -0.0325244 9.50582 0.00341285C7.27364 -0.0326419 3.29788 0.196018 3.29788 1.70339C3.29788 3.6689 3.09112 5.14832 2.0645 6.0976C0.861051 6.56197 0 7.73251 0 9.09566V21.364C0 22.8137 0.972994 24.0449 2.29707 24.4403C3.12304 25.3917 3.29788 26.7876 3.29788 28.5956C3.29788 30.103 7.27364 30.3335 9.50582 30.2964C11.7372 30.3315 15.1884 30.103 15.1884 28.5956C15.1884 26.7961 15.3633 25.404 16.178 24.4526C17.5255 24.0738 18.5194 22.8302 18.5194 21.364V20.5629H18.6983C18.8772 20.5629 19.0213 20.4168 19.0213 20.2376V15.6849C19.0213 15.5067 18.8772 15.3604 18.6983 15.3604H18.5194V13.4321H18.8174C19.1282 13.4321 19.3833 13.1788 19.3833 12.8668V10.4937C19.3834 10.1819 19.1283 9.92856 18.8174 9.92856ZM16.5539 19.4117C16.5539 22.5542 15.6699 23.5675 12.8633 23.5675H5.67251C2.86864 23.5675 1.98189 22.6621 1.98189 19.4117V10.9736C1.98189 7.91772 2.89129 6.81822 5.67251 6.81822H12.8634C16.352 6.81822 16.554 8.67862 16.554 10.9736V19.4117H16.5539ZM18.5213 15.6004H18.6985C18.7455 15.6004 18.7826 15.6385 18.7826 15.685V20.2377C18.7826 20.2851 18.7456 20.3223 18.6985 20.3223H18.5213V15.6004ZM18.6961 13.1922H18.4492C18.1924 12.8659 18.0235 12.3069 18.0235 11.6696C18.0235 11.0468 18.1859 10.4979 18.4329 10.1685H18.6961V13.1922ZM19.1406 12.867C19.1406 13.0039 19.0583 13.1203 18.9369 13.1677V10.1922C19.0583 10.2406 19.1406 10.3569 19.1406 10.4938V12.867Z" fill="#313131"/>
<path d="M15.0273 8.2854H3.50781V19.899H15.0273V8.2854Z" fill="#313131"/>
</svg>
