<svg width="18" height="32" viewBox="0 0 18 32" fill="none" xmlns="http://www.w3.org/2000/svg">
<path d="M6.6591 17.2051C5.89412 16.4078 7.7546 13.3507 8.62489 13.3455C9.49408 13.3508 11.3538 16.4079 10.5889 17.2051C10.2806 17.5265 9.46007 17.7195 8.62425 17.7229C7.78788 17.7195 6.96673 17.5265 6.6591 17.2051ZM4.33252 15.7543C4.33252 18.2365 6.25436 20.2499 8.62425 20.2499C10.9936 20.2499 12.9154 18.2365 12.9154 15.7543C12.9154 13.2715 10.9936 11.2585 8.62425 11.2585C6.25436 11.2584 4.33252 13.2715 4.33252 15.7543Z" fill="#313131"/>
<path d="M16.6015 10.5331H16.3166V9.69935C16.3166 8.31571 15.4696 7.12865 14.2923 6.68075C13.3294 5.73078 13.135 4.25849 13.135 2.30869C13.135 0.801629 10.7549 0.572948 8.6216 0.609151C6.48923 0.572948 4.1074 0.801629 4.1074 2.30869C4.1074 4.27387 3.90982 5.75322 2.9292 6.70243C1.77964 7.16667 0.957031 8.33729 0.957031 9.70021V21.9672C0.957031 23.4166 1.8865 24.6478 3.15113 25.0433C3.94018 25.9944 4.10731 27.3903 4.10731 29.198C4.10731 30.7053 6.48914 30.936 8.62151 30.8987C10.7527 30.9339 13.1349 30.7054 13.1349 29.198C13.1349 27.3986 13.3017 26.0068 14.08 25.0557C15.3674 24.6769 16.3165 23.4332 16.3165 21.9672V21.1663H16.4876C16.6585 21.1663 16.796 21.0203 16.796 20.8411V16.2889C16.796 16.1108 16.6585 15.9645 16.4876 15.9645H16.3165V14.0363H16.6015C16.8981 14.0363 17.142 13.7829 17.142 13.471V11.0982C17.142 10.7864 16.8982 10.5331 16.6015 10.5331ZM14.7958 20.8679C14.7958 22.2621 13.7078 23.4038 12.3753 23.4038H5.08528C3.75372 23.4038 2.6657 22.2621 2.6657 20.8679V10.798C2.6657 9.40361 3.75372 8.26298 5.08528 8.26298H5.4375C5.68559 8.22439 6.1288 8.03783 6.51421 7.25006C6.71544 6.83864 7.08662 6.56039 7.89236 6.56039C8.14656 6.56039 8.65059 6.54291 8.73074 6.54529C8.81079 6.543 9.31482 6.56039 9.56902 6.56039C10.3748 6.56039 10.7459 6.83864 10.9472 7.25006C11.3327 8.03783 11.7758 8.22439 12.024 8.26298H12.3753C13.7078 8.26298 14.7958 9.40361 14.7958 10.798V20.8679ZM16.3186 16.2044H16.4877C16.5328 16.2044 16.5682 16.2424 16.5682 16.289V20.8412C16.5682 20.8884 16.5328 20.9254 16.4877 20.9254H16.3186V16.2044ZM16.4858 13.7965H16.2499C16.0042 13.47 15.8431 12.9112 15.8431 12.2741C15.8431 11.6512 15.9981 11.1025 16.234 10.7727H16.4858V13.7965ZM16.9102 13.471C16.9102 13.608 16.8317 13.7244 16.7156 13.7718V10.7966C16.8316 10.8449 16.9102 10.9613 16.9102 11.0983V13.471Z" fill="#313131"/>
<path d="M8.70521 6.89771C8.39585 6.89771 8.14502 7.16049 8.14502 7.48459C8.14502 7.8087 8.39585 8.07149 8.70521 8.07149C9.01449 8.07149 9.26532 7.8087 9.26532 7.48459C9.26532 7.16049 9.0144 6.89771 8.70521 6.89771ZM8.70521 7.7235C8.57921 7.7235 8.47709 7.61651 8.47709 7.4845C8.47709 7.35249 8.57921 7.2455 8.70521 7.2455C8.83113 7.2455 8.93325 7.35249 8.93325 7.4845C8.93325 7.61651 8.83104 7.7235 8.70521 7.7235Z" fill="#313131"/>
</svg>
