<svg width="18" height="16" viewBox="0 0 18 16" fill="none" xmlns="http://www.w3.org/2000/svg">
<path d="M16.2302 1.55146C13.5961 -1.0832 10.9843 0.0680816 8.89353 1.94742C6.80171 0.0680816 4.2116 -1.1038 1.55635 1.55146C-0.513791 3.62045 -0.52377 6.94535 1.55635 9.00323C8.87077 15.5829 8.86906 15.5712 8.86906 15.5712C8.86906 15.5712 8.87961 15.5928 16.2296 9.00317C18.3109 6.94529 18.3003 3.62045 16.2302 1.55146Z" fill="#0DB7FF"/>
<path d="M8.89272 1.94695L8.8877 1.94307V15.5551C9.00502 15.4561 9.86769 14.7069 16.2293 9.00269C18.31 6.94539 18.3 3.62049 16.2293 1.55149C13.5952 -1.0831 10.984 0.0681826 8.89272 1.94695Z" fill="#149BD6"/>
</svg>
