<svg width="15" height="12" viewBox="0 0 15 12" fill="none" xmlns="http://www.w3.org/2000/svg">
<path d="M14.4383 6.2709C14.9148 5.79853 14.6519 5.21935 14.4383 5.04272L9.25447 0.224485C8.91353 -0.0918013 8.38365 -0.071263 8.06737 0.26967C7.75108 0.610602 7.77162 1.14049 8.11255 1.45266L11.7314 4.81681L0.837954 4.81681C0.373793 4.81681 -2.67575e-07 5.1906 -2.47286e-07 5.65476C-2.26997e-07 6.11892 0.373793 6.49271 0.837954 6.49271L11.7355 6.49271L8.11666 9.85686C7.77572 10.1731 7.75929 10.703 8.07147 11.044C8.38776 11.3849 8.91764 11.4013 9.25858 11.0891L14.4383 6.2709V6.2709Z" fill="#0DB7FF"/>
</svg>
