<svg width="17" height="17" viewBox="0 0 17 17" fill="none" xmlns="http://www.w3.org/2000/svg">
<path d="M8.48071 17C4.03671 17 0.391972 13.6046 6.75537e-07 9.27275L6.93169 9.27275L6.93169 11.5909C6.93169 11.9031 7.12073 12.1851 7.4096 12.3049C7.69918 12.4246 8.0323 12.3582 8.25367 12.1372L11.3517 9.04623C11.6545 8.74414 11.6545 8.25586 11.3517 7.95363L8.25367 4.86276C8.0323 4.64175 7.69918 4.57525 7.4096 4.69509C7.12073 4.8148 6.93169 5.09693 6.93169 5.40906L6.93169 7.72725L8.1065e-07 7.72725C0.391973 3.39536 4.03671 -1.13329e-06 8.48072 -7.4478e-07C13.1857 -3.33461e-07 17 3.80568 17 8.49993C17 13.1943 13.1857 17 8.48071 17Z" fill="#979797"/>
</svg>
