<svg width="83" height="22" viewBox="0 0 83 22" fill="none" xmlns="http://www.w3.org/2000/svg">
<path fill-rule="evenodd" clip-rule="evenodd" d="M22.9923 19.3086C22.4602 18.5573 22.3718 17.7228 22.3671 16.8211V0.5H20.4738V16.6552C20.457 17.6327 20.65 18.6412 20.9649 19.4111C21.3237 20.3177 22.0482 21.1156 22.8952 21.5021C23.7532 21.8793 24.6765 21.9831 25.5986 21.9719H29.5708V20.4998H25.3883C24.383 20.5122 23.6157 20.186 22.9923 19.3086Z" fill="#313131"/>
<path fill-rule="evenodd" clip-rule="evenodd" d="M12.9834 0.500354L3.68757 0.491033C1.43251 0.456235 -0.0390761 1.5586 0.000790319 3.77202L0.00887912 16.6555C-0.0101874 17.633 0.186833 18.6415 0.499987 19.4114C0.860518 20.318 1.58331 21.1159 2.43033 21.5024C3.2889 21.8796 4.21103 21.9834 5.13373 21.9722H18.125V20.5001H4.92458C3.91925 20.5131 3.14908 20.1869 2.52566 19.3089C1.99584 18.5576 1.90629 17.7231 1.90224 16.8214V14.0413L14.0973 10.3433C16.1507 9.7331 17.9025 8.64317 18.2532 6.48567C18.3798 5.6878 18.3815 4.87066 18.2532 4.07278C17.8315 1.47533 15.432 0.518375 12.9834 0.500354ZM16.2576 6.35456C16.0935 7.67006 15.0628 8.35919 13.8142 8.74321L1.90224 12.2541L1.89531 3.40602C1.88953 2.50064 2.80184 1.97431 3.65059 1.96375L12.9262 1.96251C14.5642 1.96251 15.9456 2.68209 16.2328 4.16537C16.3541 4.78552 16.3339 5.73316 16.2576 6.35456Z" fill="#313131"/>
<path fill-rule="evenodd" clip-rule="evenodd" d="M68.4839 10.3413C70.5385 9.73232 72.2886 8.64238 72.641 6.48426C72.767 5.68638 72.7704 4.86924 72.641 4.07011C72.2186 1.47452 69.8191 0.518187 67.3711 0.501409H58.7386C56.4853 0.46164 55.0154 1.55903 55.0541 3.77309C55.0553 9.84107 55.053 15.8997 55.053 21.9714H56.9469C56.9469 15.7798 56.9527 9.59686 56.9481 3.40584C56.9446 2.50232 57.8546 1.97537 58.7045 1.96543L67.3122 1.96419C68.9513 1.96419 70.3316 2.68191 70.6205 4.16519C70.7419 4.78535 70.7205 5.73174 70.6454 6.3519C70.4801 7.67051 69.4505 8.35902 68.2037 8.74305L63.6809 10.1257C63.3203 10.2015 62.9217 10.6203 62.9217 11.1081C62.9217 11.4064 63.0442 11.6717 63.2308 11.8643L71.9274 22H74.3293L65.1369 11.3585L68.4839 10.3413Z" fill="#313131"/>
<path d="M76.8883 0.527588H74.9932V21.9988H76.8883V0.527588Z" fill="#313131"/>
<path fill-rule="evenodd" clip-rule="evenodd" d="M44.3247 1.42068C44.0797 1.07891 43.7868 0.796177 43.4482 0.582415C43.1079 0.36244 42.6977 0.250588 42.2256 0.244995C41.7293 0.250588 41.3075 0.363061 40.9661 0.572473C40.6292 0.78872 40.3473 1.06462 40.111 1.40701C39.8787 1.74878 39.669 2.12349 39.487 2.51683L30.0779 21.9716H32.1122C33.273 19.5401 34.0715 17.8648 34.7064 16.5468L47.8283 12.5599C48.9059 14.7982 49.6391 16.3132 52.3356 21.9716H54.3739L44.962 2.51621C44.7834 2.12908 44.5662 1.76618 44.3247 1.42068ZM35.6188 14.6441C36.8928 11.9901 37.7386 10.2576 41.2087 3.0096C41.2856 2.84866 41.3717 2.66846 41.4641 2.48514C41.5543 2.29624 41.6577 2.13343 41.7819 1.99486C41.9009 1.85815 42.0482 1.78669 42.2256 1.77675C42.4013 1.78607 42.5463 1.85815 42.6699 1.99486C42.7924 2.13281 42.8982 2.29624 42.986 2.48514C43.0778 2.66846 43.161 2.84866 43.2442 3.0096C45.2064 7.11146 46.318 9.42929 47.1263 11.1046L35.6188 14.6441Z" fill="#313131"/>
<path d="M80.7784 3.95709C79.8014 3.95709 78.929 3.22757 78.929 1.97917C78.929 0.73077 79.8014 0 80.7784 0C81.7514 0 82.6221 0.73077 82.6221 1.97917C82.6221 3.22757 81.7514 3.95709 80.7784 3.95709ZM80.7784 0.462324C80.0516 0.462324 79.4582 1.06819 79.4582 1.97979C79.4582 2.89139 80.0516 3.50285 80.7784 3.50285C81.4862 3.50285 82.0928 2.89201 82.0928 1.97979C82.0928 1.06757 81.4862 0.462324 80.7784 0.462324ZM80.4751 3.04115H80.0521V0.912841H80.7876C81.2978 0.912841 81.6012 1.06819 81.6012 1.55537C81.6012 1.94872 81.3845 2.08978 81.1251 2.10966L81.6295 3.04177H81.1297L80.6715 2.1457H80.4751V3.04115ZM80.4751 1.7828H80.8454C81.0384 1.7828 81.1488 1.74552 81.1488 1.50814C81.1488 1.29127 80.9275 1.27574 80.7686 1.27574H80.4751V1.7828Z" fill="#313131"/>
</svg>
