<svg width="68" height="18" viewBox="0 0 68 18" fill="none" xmlns="http://www.w3.org/2000/svg">
<path fill-rule="evenodd" clip-rule="evenodd" d="M18.8118 15.7981C18.3764 15.1834 18.3041 14.5006 18.3003 13.7629V0.409302H16.7512V13.6271C16.7375 14.4269 16.8954 15.252 17.153 15.882C17.4466 16.6237 18.0394 17.2765 18.7324 17.5928C19.4343 17.9014 20.1898 17.9863 20.9442 17.9771H24.1942V16.7727H20.7721C19.9496 16.7829 19.3218 16.516 18.8118 15.7981Z" fill="#313131"/>
<path fill-rule="evenodd" clip-rule="evenodd" d="M10.6227 0.409281L3.01709 0.401654C1.17205 0.373183 -0.0319712 1.27511 0.000646622 3.08609L0.0072647 13.6271C-0.00833512 14.4268 0.152863 15.252 0.409078 15.8819C0.704057 16.6237 1.29543 17.2765 1.98844 17.5927C2.69091 17.9013 3.44537 17.9862 4.20031 17.9771H14.8295V16.7726H4.02918C3.20665 16.7833 2.57651 16.5164 2.06644 15.798C1.63296 15.1833 1.55968 14.5005 1.55637 13.7628V11.4882L11.5341 8.46258C13.2142 7.96331 14.6475 7.07155 14.9344 5.30634C15.0379 4.65353 15.0394 3.98497 14.9344 3.33216C14.5893 1.20698 12.6261 0.424025 10.6227 0.409281ZM13.3016 5.19906C13.1674 6.27538 12.324 6.83921 11.3025 7.15341L1.55637 10.026L1.5507 2.78663C1.54597 2.04587 2.2924 1.61524 2.98683 1.6066L10.5759 1.60558C11.9161 1.60558 13.0464 2.19433 13.2813 3.40791C13.3806 3.91531 13.364 4.69065 13.3016 5.19906Z" fill="#313131"/>
<path fill-rule="evenodd" clip-rule="evenodd" d="M56.032 8.46105C57.713 7.96281 59.1449 7.07104 59.4332 5.30531C59.5363 4.65251 59.5391 3.98394 59.4332 3.33011C59.0877 1.20646 57.1244 0.424005 55.1215 0.410277H48.0586C46.215 0.377739 45.0124 1.2756 45.044 3.08709C45.045 8.05178 45.0431 13.0088 45.0431 17.9766H46.5927C46.5927 12.9107 46.5974 7.85197 46.5936 2.78662C46.5908 2.04738 47.3353 1.61624 48.0307 1.60811L55.0733 1.60709C56.4144 1.60709 57.5438 2.19431 57.7801 3.4079C57.8794 3.9153 57.8619 4.68962 57.8004 5.19702C57.6652 6.27588 56.8229 6.8392 55.8027 7.15341L52.1022 8.28463C51.8073 8.34666 51.4811 8.68933 51.4811 9.08844C51.4811 9.33248 51.5813 9.54957 51.734 9.70718L58.8494 18H60.8145L53.2935 9.29333L56.032 8.46105Z" fill="#313131"/>
<path d="M62.9082 0.431641H61.3577V17.9989H62.9082V0.431641Z" fill="#313131"/>
<path fill-rule="evenodd" clip-rule="evenodd" d="M36.2656 1.16224C36.0651 0.882611 35.8254 0.651282 35.5484 0.476387C35.27 0.296408 34.9344 0.204893 34.5481 0.200317C34.1421 0.204893 33.797 0.296916 33.5176 0.468252C33.242 0.645181 33.0113 0.870918 32.818 1.15105C32.6279 1.43068 32.4563 1.73726 32.3074 2.05909L24.6091 17.9766H26.2736C27.2233 15.9871 27.8766 14.6164 28.3961 13.5381L39.1322 10.2761C40.0138 12.1074 40.6137 13.3469 42.8199 17.9766H44.4876L36.787 2.05858C36.6409 1.74183 36.4632 1.44492 36.2656 1.16224ZM29.1426 11.9813C30.1849 9.80988 30.877 8.39242 33.7162 2.46226C33.779 2.33058 33.8495 2.18314 33.9251 2.03316C33.9988 1.8786 34.0835 1.74539 34.1851 1.63202C34.2825 1.52016 34.403 1.4617 34.5481 1.45356C34.6919 1.46119 34.8105 1.52016 34.9117 1.63202C35.0119 1.74488 35.0984 1.8786 35.1703 2.03316C35.2454 2.18314 35.3135 2.33058 35.3816 2.46226C36.9869 5.81831 37.8965 7.7147 38.5578 9.08539L29.1426 11.9813Z" fill="#313131"/>
<path d="M66.0911 3.23761C65.2917 3.23761 64.5779 2.64072 64.5779 1.61931C64.5779 0.5979 65.2917 0 66.0911 0C66.8871 0 67.5995 0.5979 67.5995 1.61931C67.5995 2.64072 66.8871 3.23761 66.0911 3.23761ZM66.0911 0.378263C65.4964 0.378263 65.0109 0.873971 65.0109 1.61982C65.0109 2.36567 65.4964 2.86595 66.0911 2.86595C66.6701 2.86595 67.1665 2.36618 67.1665 1.61982C67.1665 0.873462 66.6701 0.378263 66.0911 0.378263ZM65.8429 2.4882H65.4969V0.746866H66.0986C66.516 0.746866 66.7642 0.873971 66.7642 1.27257C66.7642 1.5944 66.5869 1.70981 66.3747 1.72608L66.7874 2.48871H66.3785L66.0036 1.75557H65.8429V2.4882ZM65.8429 1.45865H66.1459C66.3038 1.45865 66.3941 1.42815 66.3941 1.23393C66.3941 1.05649 66.213 1.04378 66.083 1.04378H65.8429V1.45865Z" fill="#313131"/>
</svg>
