<svg width="44" height="44" viewBox="0 0 44 44" fill="none" xmlns="http://www.w3.org/2000/svg">
<path fill-rule="evenodd" clip-rule="evenodd" d="M0.255157 21.754C0.255157 9.73962 10.0478 0 22.1276 0C34.2074 0 44 9.73962 44 21.754C44 33.7685 34.2074 43.5081 22.1276 43.5081C10.0478 43.5081 0.255157 33.7685 0.255157 21.754ZM22.1127 22.1033C25.338 22.1033 27.9599 19.5858 27.9599 16.491C27.9599 13.3952 25.338 10.877 22.1127 10.877C18.8881 10.877 16.2656 13.3952 16.2656 16.491C16.2656 19.5858 18.8881 22.1033 22.1127 22.1033ZM27.8888 25.3353C26.8315 25.9728 25.6836 26.4249 24.4934 26.6852L27.7621 29.8237C28.4317 30.4653 28.4317 31.5072 27.7621 32.1494C27.0932 32.7916 26.009 32.7916 25.3408 32.1494L22.127 29.0653L18.916 32.1494C18.5812 32.4702 18.1425 32.6307 17.7037 32.6307C17.2657 32.6307 16.8277 32.4702 16.4929 32.1494C15.8239 31.5072 15.8239 30.466 16.4922 29.8237L19.7612 26.6852C18.571 26.4249 17.4231 25.9722 16.3659 25.3353C15.5658 24.851 15.3254 23.8363 15.8295 23.0674C16.3323 22.2976 17.3896 22.0658 18.1911 22.5502C20.5848 23.9958 23.6684 23.9961 26.0636 22.5502C26.8651 22.0658 27.922 22.2976 28.4258 23.0674C28.9299 23.8356 28.6889 24.851 27.8888 25.3353Z" fill="#F68634"/>
<path d="M22.1127 14.167C23.4478 14.167 24.5337 15.2092 24.5337 16.491C24.5337 17.7717 23.4478 18.8146 22.1127 18.8146C20.7787 18.8146 19.6917 17.7717 19.6917 16.491C19.6917 15.2092 20.7787 14.167 22.1127 14.167Z" fill="#F68634"/>
</svg>
