<svg width="15" height="17" viewBox="0 0 15 17" fill="none" xmlns="http://www.w3.org/2000/svg">
<path d="M9.58333 12.25C9.58333 12.5261 9.35948 12.75 9.08333 12.75H3C2.72386 12.75 2.5 12.5261 2.5 12.25V11.55C2.5 11.2739 2.72386 11.05 3 11.05H9.08333C9.35948 11.05 9.58333 11.2739 9.58333 11.55V12.25ZM12.5 8.85C12.5 9.12614 12.2761 9.35 12 9.35H3C2.72386 9.35 2.5 9.12614 2.5 8.85V8.15C2.5 7.87386 2.72386 7.65 3 7.65H12C12.2761 7.65 12.5 7.87386 12.5 8.15V8.85ZM12.5 5.45C12.5 5.72614 12.2761 5.95 12 5.95H3C2.72386 5.95 2.5 5.72614 2.5 5.45V4.75C2.5 4.47386 2.72386 4.25 3 4.25H12C12.2761 4.25 12.5 4.47386 12.5 4.75V5.45ZM0 15.7758C0 16.2236 0.543514 16.4456 0.857036 16.1258L0.892964 16.0892C1.089 15.8892 1.411 15.8892 1.60704 16.0892L2.14296 16.6358C2.339 16.8358 2.661 16.8358 2.85704 16.6358L3.39296 16.0892C3.589 15.8892 3.911 15.8892 4.10704 16.0892L4.64296 16.6358C4.839 16.8358 5.161 16.8358 5.35704 16.6358L5.89296 16.0892C6.089 15.8892 6.411 15.8892 6.60704 16.0892L7.14296 16.6358C7.339 16.8358 7.661 16.8358 7.85704 16.6358L8.39296 16.0892C8.589 15.8892 8.911 15.8892 9.10704 16.0892L9.64296 16.6358C9.839 16.8358 10.161 16.8358 10.357 16.6358L10.893 16.0892C11.089 15.8892 11.411 15.8892 11.607 16.0892L12.143 16.6358C12.339 16.8358 12.661 16.8358 12.857 16.6358L13.393 16.0892C13.589 15.8892 13.911 15.8892 14.107 16.0892L14.143 16.1258C14.4565 16.4456 15 16.2236 15 15.7758V1.22421C15 0.776369 14.4565 0.554384 14.143 0.874177L14.107 0.910823C13.911 1.11078 13.589 1.11078 13.393 0.910823L12.857 0.364177C12.661 0.164224 12.339 0.164225 12.143 0.364177L11.607 0.910823C11.411 1.11078 11.089 1.11078 10.893 0.910823L10.357 0.364177C10.161 0.164224 9.839 0.164225 9.64296 0.364177L9.10704 0.910823C8.911 1.11078 8.589 1.11078 8.39296 0.910823L7.85704 0.364177C7.661 0.164224 7.339 0.164225 7.14296 0.364177L6.60704 0.910823C6.411 1.11078 6.089 1.11078 5.89296 0.910823L5.35704 0.364177C5.161 0.164224 4.839 0.164225 4.64296 0.364177L4.10704 0.910823C3.911 1.11078 3.589 1.11078 3.39296 0.910823L2.85704 0.364177C2.661 0.164224 2.339 0.164225 2.14296 0.364177L1.60704 0.910823C1.411 1.11078 1.089 1.11078 0.892964 0.910823L0.857036 0.874177C0.543514 0.554384 0 0.77637 0 1.22421V15.7758Z" fill="#979797"/>
</svg>
