<svg width="56" height="40" viewBox="0 0 56 40" fill="none" xmlns="http://www.w3.org/2000/svg">
<rect x="11.5312" y="5.99634" width="33.6716" height="24.4465" fill="white"/>
<path d="M44.2204 0H11.5914C5.18964 0 0 5.21251 0 11.6425V28.0254C0 34.4554 5.18964 39.6679 11.5914 39.6679H44.2204C50.6222 39.6679 55.8118 34.4554 55.8118 28.0254V11.6425C55.8118 5.21251 50.6222 0 44.2204 0ZM36.3812 20.631L21.1196 27.942C20.7129 28.1368 20.2432 27.839 20.2432 27.3865V12.3076C20.2432 11.8487 20.7253 11.5513 21.1328 11.7587L36.3944 19.5267C36.8482 19.7576 36.8403 20.4112 36.3812 20.631Z" fill="#F61C0D"/>
</svg>
