<svg width="16" height="16" viewBox="0 0 16 16" fill="none" xmlns="http://www.w3.org/2000/svg">
<path d="M8 0C3.58149 0 0 3.58149 0 8C0 12.4185 3.58149 16 8 16C12.4185 16 16 12.418 16 8C16 3.58201 12.4185 0 8 0ZM8 15C4.13399 15 1 11.866 1 8C1 4.13399 4.13399 1 8 1C11.866 1 15 4.13399 15 8C15 11.866 11.866 15 8 15ZM11 7.5H8.5V5C8.5 4.724 8.276 4.5 8 4.5C7.724 4.5 7.5 4.724 7.5 5V7.5H5C4.724 7.5 4.5 7.724 4.5 8C4.5 8.276 4.724 8.5 5 8.5H7.5V11C7.5 11.276 7.724 11.5 8 11.5C8.276 11.5 8.5 11.276 8.5 11V8.5H11C11.276 8.5 11.5 8.276 11.5 8C11.5 7.724 11.276 7.5 11 7.5Z" fill="#0DB7FF"/>
</svg>
