<svg width="18" height="18" viewBox="0 0 18 18" fill="none" xmlns="http://www.w3.org/2000/svg">
<path d="M16.8261 3.49636H15.5158C15.6887 3.22237 15.8027 2.91481 15.8352 2.58954C15.9391 1.55001 15.3926 0.618146 14.4622 0.205005C13.607 -0.174749 12.6459 -0.0195086 11.9539 0.609271L10.2994 2.11131C9.97722 1.75829 9.51404 1.53642 8.99998 1.53642C8.48502 1.53642 8.02109 1.75899 7.69882 2.11311L6.04226 0.609095C5.34908 -0.0196847 4.38841 -0.174326 3.53358 0.205217C2.60342 0.618393 2.05681 1.55057 2.16102 2.59007C2.19361 2.91509 2.30758 3.22251 2.48037 3.49636H1.1739C0.52555 3.49636 0 4.02287 0 4.67232V6.43628C0 6.76099 0.262792 7.02428 0.586968 7.02428H17.413C17.7372 7.02428 18 6.76102 18 6.43628V4.67232C18 4.02287 17.4744 3.49636 16.8261 3.49636ZM7.23911 3.30037V3.49636H4.47784C3.74828 3.49636 3.17411 2.81504 3.35633 2.05412C3.43659 1.71902 3.67804 1.43337 3.99033 1.28877C4.41917 1.09021 4.8942 1.15395 5.25437 1.48053L7.23961 3.28305C7.2395 3.28886 7.23911 3.29456 7.23911 3.30037ZM14.6705 2.43342C14.6267 3.04455 14.0757 3.49643 13.464 3.49643H10.7609V3.30045C10.7609 3.29351 10.7604 3.28664 10.7604 3.2797C11.2101 2.87132 12.1857 1.98552 12.7148 1.50504C13.0156 1.23199 13.4363 1.10454 13.8253 1.22076C14.3835 1.38755 14.7113 1.86306 14.6705 2.43342Z" fill="#E6151A"/>
<path d="M1.1739 8.20024V16.824C1.1739 17.4735 1.69945 18 2.3478 18H7.82605V8.20024H1.1739Z" fill="#E6151A"/>
<path d="M10.1739 8.20024V18H15.6521C16.3005 18 16.826 17.4735 16.826 16.824V8.20024H10.1739Z" fill="#E6151A"/>
</svg>
