<svg width="18" height="17" viewBox="0 0 18 17" fill="none" xmlns="http://www.w3.org/2000/svg">
<path d="M17.7936 2.41919C17.7936 2.81104 17.476 3.12821 17.0846 3.12821H16.0835V4.12982C16.0835 4.52167 15.7658 4.83884 15.3744 4.83884C14.9831 4.83884 14.6654 4.52167 14.6654 4.12982V3.12821H13.6638C13.2724 3.12821 12.9548 2.81104 12.9548 2.41919C12.9548 2.02733 13.2724 1.71016 13.6638 1.71016H14.6654V0.709023C14.6654 0.317169 14.9831 0 15.3744 0C15.7658 0 16.0835 0.317169 16.0835 0.709023V1.71016H17.0846C17.476 1.71016 17.7936 2.0278 17.7936 2.41919ZM15.7148 12.8825L10.7247 11.3231C11.8024 10.0388 12.4585 8.00298 12.4585 6.0976C12.4585 3.21471 10.815 1.35234 8.27288 1.35234C5.72985 1.35234 4.08633 3.21471 4.08633 6.0976C4.08633 8.0025 4.74194 10.0388 5.8206 11.3231L0.830029 12.8825C0.336077 13.0366 0 13.4927 0 14.0108V15.8183C0 16.472 0.528931 17 1.1817 17H15.3631C16.0159 17 16.5448 16.472 16.5448 15.8183V14.0108C16.5448 13.4936 16.2087 13.037 15.7148 12.8825Z" fill="#979797"/>
</svg>
