<svg width="17" height="17" viewBox="0 0 17 17" fill="none" xmlns="http://www.w3.org/2000/svg">
<path d="M2.13806 9.39697C2.13806 9.14069 2.05135 8.88441 2.05135 8.5427C2.05135 8.20099 2.05135 7.94471 2.13806 7.68843L0.317094 6.23617C0.143668 6.06531 0.14367 5.89446 0.230382 5.72361L1.96464 2.73366C2.05135 2.64824 2.22474 2.56281 2.48491 2.64824L4.65273 3.50251C5.0863 3.1608 5.60657 2.90452 6.12685 2.64824L6.4737 0.427135C6.38699 0.170854 6.64716 0 6.82055 0H10.2891C10.4625 0 10.7226 0.170854 10.7226 0.341708L11.0695 2.64824C11.5898 2.81909 12.0233 3.1608 12.5436 3.50251L14.6247 2.64824C14.8848 2.56281 15.0583 2.64824 15.2317 2.81909L16.966 5.80903C17.0527 5.89446 16.966 6.15074 16.7926 6.3216L14.9716 7.68843C14.9716 7.94471 15.0583 8.20099 15.0583 8.5427C15.0583 8.88441 15.0583 9.14069 14.9716 9.39697L16.7926 10.8492C16.966 11.0201 16.966 11.1909 16.8793 11.3618L15.145 14.3518C15.0583 14.4372 14.8849 14.5226 14.6247 14.4372L12.4569 13.5829C12.0234 13.9246 11.5031 14.1809 10.9828 14.4372L10.6359 16.6583C10.6359 16.8291 10.4625 17 10.2024 17H6.73387C6.56041 17 6.30031 16.8291 6.30031 16.6583L5.95346 14.4372C5.43318 14.1809 4.91291 13.9246 4.47934 13.5829L2.31152 14.4372C2.13806 14.5226 1.87796 14.4372 1.79121 14.2663L0.0569559 11.2764C-0.0297569 11.1055 -0.0297573 10.8492 0.143702 10.7638L2.13806 9.39697ZM8.55481 11.5326C10.2024 11.5326 11.5898 10.1658 11.5898 8.5427C11.5898 6.91958 10.2024 5.55275 8.55481 5.55275C6.90727 5.55275 5.51986 6.91958 5.51986 8.5427C5.51986 10.1658 6.90727 11.5326 8.55481 11.5326Z" fill="#979797"/>
</svg>
