<svg width="16" height="18" viewBox="0 0 16 18" fill="none" xmlns="http://www.w3.org/2000/svg">
<path d="M12.9621 11.564C11.9859 11.564 11.1154 12.0573 10.5586 12.8198L5.89604 10.0577C6.00529 9.72508 6.0652 9.36628 6.0652 8.99626C6.0652 8.62251 6.00529 8.26744 5.89251 7.93106L10.5515 5.17276C11.1048 5.93895 11.9789 6.43605 12.9586 6.43605C14.6291 6.43605 15.993 4.99336 15.993 3.21802C15.993 1.44269 14.6326 0 12.9586 0C11.2846 0 9.92423 1.44269 9.92423 3.21802C9.92423 3.59178 9.98414 3.95058 10.0969 4.28322L5.44141 7.04153C4.88811 6.27159 4.0141 5.77824 3.03436 5.77824C1.36388 5.77824 0 7.22093 0 8.99626C0 10.7716 1.36388 12.2143 3.03789 12.2143C4.01762 12.2143 4.89163 11.7172 5.44846 10.9473L10.1075 13.7093C9.99471 14.0457 9.93128 14.4082 9.93128 14.782C9.93128 16.5536 11.2916 18 12.9656 18C14.6396 18 16 16.5573 16 14.782C16 13.0066 14.6361 11.564 12.9621 11.564ZM12.9621 1.01287C14.111 1.01287 15.0449 2.00332 15.0449 3.22176C15.0449 4.4402 14.111 5.43065 12.9621 5.43065C11.8132 5.43065 10.8793 4.4402 10.8793 3.22176C10.8793 2.00332 11.8167 1.01287 12.9621 1.01287ZM3.03789 11.2051C1.88899 11.2051 0.955066 10.2147 0.955066 8.99626C0.955066 7.77782 1.88899 6.78738 3.03789 6.78738C4.18678 6.78738 5.1207 7.77782 5.1207 8.99626C5.1207 10.2147 4.18326 11.2051 3.03789 11.2051ZM12.9621 16.9871C11.8132 16.9871 10.8793 15.9967 10.8793 14.7782C10.8793 13.5598 11.8132 12.5694 12.9621 12.5694C14.111 12.5694 15.0449 13.5598 15.0449 14.7782C15.0449 15.9967 14.111 16.9871 12.9621 16.9871Z" fill="#979797"/>
</svg>
