<svg width="171" height="74" viewBox="0 0 171 74" fill="none" xmlns="http://www.w3.org/2000/svg">
<path fill-rule="evenodd" clip-rule="evenodd" d="M47.8 36.8C46.7 35.3 46.5 33.7 46.5 32V0.5H42.6V31.7C42.6 33.6 43 35.5 43.6 37C44.3 38.8 45.8 40.3 47.6 41C49.4 41.7 51.3 41.9 53.2 41.9H61.4V39.1H52.8C50.6 39.1 49 38.5 47.8 36.8Z" fill="#313131"/>
<path fill-rule="evenodd" clip-rule="evenodd" d="M27.1 0.5H8C3.4 0.4 0.3 2.6 0.4 6.8V31.7C0.4 33.6 0.8 35.5 1.4 37C2.1 38.8 3.6 40.3 5.4 41C7.2 41.7 9.1 41.9 11 41.9H37.7V39.1H10.6C8.5 39.1 6.9 38.5 5.7 36.8C4.6 35.3 4.4 33.7 4.4 32V26.6L29.5 19.5C33.7 18.3 37.3 16.2 38.1 12.1C38.4 10.6 38.4 9 38.1 7.4C37.1 2.4 32.2 0.5 27.1 0.5ZM33.9 11.8C33.6 14.3 31.4 15.7 28.9 16.4L4.4 23.2V6.1C4.4 4.4 6.3 3.3 8 3.3H27C30.4 3.3 33.2 4.7 33.8 7.6C34.1 8.7 34 10.6 33.9 11.8Z" fill="#313131"/>
<path fill-rule="evenodd" clip-rule="evenodd" d="M141.4 19.5C145.6 18.3 149.2 16.2 150 12.1C150.3 10.6 150.3 9 150 7.4C149.1 2.4 144.2 0.500001 139.2 0.500001H121.4C116.8 0.400001 113.7 2.5 113.8 6.8C113.8 18.5 113.8 30.2 113.8 41.9H117.7C117.7 30 117.7 18 117.7 6.1C117.7 4.4 119.6 3.3 121.3 3.3H139C142.4 3.3 145.2 4.7 145.8 7.5C146.1 8.7 146 10.5 145.9 11.7C145.6 14.2 143.4 15.6 140.9 16.3L131.6 19C130.9 19.1 130 20 130 20.9C130 21.5 130.3 22 130.6 22.4L148.5 42H153.4L134.5 21.5L141.4 19.5Z" fill="#313131"/>
<path d="M158.7 0.5H154.8V41.9H158.7V0.5Z" fill="#313131"/>
<path d="M166.794 7.58718C164.778 7.58718 163 6.16458 163 3.79359C163 1.4226 164.778 0 166.794 0C168.809 0 170.587 1.4226 170.587 3.79359C170.587 6.16458 168.809 7.58718 166.794 7.58718ZM166.794 0.829847C165.253 0.829847 164.067 2.01534 164.067 3.67504C164.067 5.45328 165.253 6.63878 166.794 6.63878C168.216 6.63878 169.52 5.45328 169.52 3.67504C169.52 2.01534 168.216 0.829847 166.794 0.829847ZM166.201 5.80893H165.371V1.77824H166.912C167.979 1.77824 168.572 2.13389 168.572 2.96374C168.572 3.67504 168.098 4.03069 167.624 4.03069L168.691 5.80893H167.624L166.675 4.14924H166.201V5.80893ZM166.201 3.43794H166.912C167.268 3.43794 167.505 3.31939 167.505 2.96374C167.505 2.60809 167.031 2.48954 166.675 2.48954H166.201V3.43794Z" fill="#313131"/>
<path fill-rule="evenodd" clip-rule="evenodd" d="M91.7 2.3C91.2 1.6 90.6 1.1 89.9 0.699999C89.2 0.299999 88.4 0.1 87.4 0C86.4 0 85.5 0.199998 84.8 0.599998C84.1 0.999998 83.5 1.5 83 2.2C82.5 2.9 82.1 3.6 81.7 4.3L62.3 41.9H66.5C68.9 37.2 70.5 34 71.8 31.4L98.8 23.7C101 28 102.5 30.9 108.1 41.9H112.3L93 4.4C92.6 3.6 92.2 2.9 91.7 2.3ZM73.8 27.8C76.4 22.7 78.2 19.3 85.3 5.4C85.5 5.1 85.6 4.7 85.8 4.4C86 4 86.2 3.7 86.5 3.5C86.7 3.2 87 3.1 87.4 3.1C87.8 3.1 88.1 3.3 88.3 3.5C88.6 3.8 88.8 4.1 89 4.4C89.2 4.8 89.4 5.1 89.5 5.4C93.5 13.3 95.8 17.8 97.5 21L73.8 27.8Z" fill="#313131"/>
<path d="M14.1 61L5.2 57.8C3.5 57.2 3.4 56.3 3.4 54.9C3.4 54.2 3.4 53.2 3.9 52.7C4.2 52.3 5 52.1 5.7 52.1H18.3V48.9H5.9C3.7 48.9 2.3 49.7 1.8 50.2C0.199999 51.6 0 53.4 0 54.8C0 56 0.0999992 57.7 1.3 59C2 59.8 3.1 60.5 4.5 60.9L13.6 64.1C15.8 64.9 15.9 65.9 15.9 67.1C15.9 70.3 14.6 70.3 14 70.3H0.299999V73.5H13.8C15.2 73.5 16.9 73.3 18.1 71.7C19.3 70.2 19.4 68 19.4 67.1C19.4 65.3 18.8 63.8 17.8 62.8C16.9 62 15.6 61.5 14.1 61Z" fill="#313131"/>
<path d="M43.2 54.5H27.1C25.9 54.5 25 55 24.5 55.8C24.1 56.6 24 57.5 24 58.2V73.5H27.3V58.1C27.3 58 27.3 57.7 27.3 57.7C27.3 57.7 27.4 57.7 27.6 57.7H34.9V73.6H38.2V57.7H43.3C44 57.7 44.8 57.8 45.3 58.3C45.6 58.7 45.8 59.3 45.8 60.3V73.6H49.1V60.4C49.1 58.3 48.6 56.8 47.5 55.9C46.4 55 45 54.5 43.2 54.5Z" fill="#313131"/>
<path d="M63.4 54.5H54.1V57.6H63.3C63.9 57.6 64.3 57.9 64.5 58.1C64.8 58.4 65 59.2 65 59.7V61.5H58.3C56.7 61.5 55.5 61.9 54.6 62.6C53.1 63.9 52.9 65.9 52.9 67.3C52.9 69.8 53.5 71.5 54.7 72.5C55.9 73.5 57.4 73.5 58.3 73.5H65C65.7 73.5 66.7 73.5 67.5 72.8C68.2 72.1 68.3 71.1 68.3 70.4V60C68.3 58.2 67.9 56.9 67 56C66.2 55.1 64.8 54.5 63.4 54.5ZM56.2 67.4C56.2 66.3 56.3 65.5 56.6 65.2C56.7 65.1 57 64.7 57.9 64.7H65V70.5C64.9 70.5 64.9 70.5 64.8 70.5H57.8C57.3 70.5 56.9 70.3 56.7 70C56.2 69.3 56.2 67.9 56.2 67.4Z" fill="#313131"/>
<path d="M74.6 56.2C73 57.7 72.8 59.6 72.8 61.4V73.7H76.1V61.7C76.1 60.1 76.3 59.2 76.8 58.6C77.5 57.8 78.6 57.7 79.5 57.7H81.3V54.6H79.3C77.3 54.5 75.7 55.1 74.6 56.2Z" fill="#313131"/>
<path d="M91.6 70.2C90.9 69.7 90.9 68.1 91 66.9V57.7H95.8V54.6H91V49H87.7V54.6H85.3V57.7H87.7V67C87.7 69.2 87.8 71.1 89.1 72.4C90.3 73.7 92.2 73.7 93.4 73.7H96V70.6H94.3C92.8 70.4 91.9 70.3 91.6 70.2Z" fill="#313131"/>
<path d="M120.6 61.1C120.9 60.9 121.1 60.6 121.3 60.3C122.3 59 122.4 57.4 122.4 55.9C122.4 55 122.4 52.1 120.7 50.4C120.2 49.8 118.9 48.9 116.7 48.9H106.1C105.3 48.9 104.3 49 103.5 50C103 50.7 102.7 51.7 102.7 52.7V69.8C102.7 70.6 102.8 71.7 103.6 72.6C104.5 73.5 105.6 73.6 106.5 73.6H117.2C118.4 73.6 119.7 73.5 121.1 72C122.7 70.2 122.7 68.4 122.7 66.6V66.5C122.7 65 122.7 63.4 121.6 62C121.4 61.7 121.1 61.4 120.6 61.1ZM118.5 58.9C118 59.5 117.1 59.6 116.1 59.6H106.2V52.6C106.2 52.4 106.3 52.2 106.3 52.1C106.3 52.1 106.4 52.1 106.5 52.1H116.6C117.2 52.1 117.8 52.1 118.2 52.6C118.7 53.1 119 54.2 119 55.8C119 57.2 118.8 58.4 118.5 58.9ZM106.2 69.4V62.7H117.2C117.9 62.7 118.6 63.1 118.9 63.6C119.2 64 119.4 65.3 119.4 66.6C119.4 68 119.2 69.2 118.8 69.7C118.3 70.4 117.4 70.5 116.5 70.5H107.2C107 70.5 106.4 70.5 106.3 70.5C106.2 70.3 106.2 70.2 106.2 69.4Z" fill="#313131"/>
<path d="M135.5 54.2C133.3 54.2 130.5 54.4 128.5 56.3C126.9 57.9 126.1 60.4 126.1 63.8C126.1 68.1 127.4 70.3 128.5 71.4C130.5 73.4 133.4 73.6 135.5 73.6C137.5 73.6 140.5 73.4 142.5 71.4C143.6 70.3 144.9 68.1 144.9 63.8C144.9 60.4 144.1 57.9 142.5 56.3C140.6 54.5 137.8 54.2 135.5 54.2ZM130.8 58.7C131.9 57.5 133.9 57.3 135.6 57.3C137.3 57.3 139.3 57.5 140.4 58.6C141.6 59.9 141.6 62.5 141.6 64C141.6 65.4 141.6 67.7 140.4 69C139.3 70.3 137.4 70.4 135.7 70.4C134 70.4 132.1 70.2 130.9 69C129.7 67.7 129.7 65.4 129.7 63.9C129.6 62.6 129.6 60.1 130.8 58.7Z" fill="#313131"/>
<path d="M156.9 70.4C155.4 70.4 154.6 70.3 154.3 70.1C153.6 69.6 153.6 68 153.7 66.8V57.6H158.5V54.5H153.7V48.9H150.4V54.5H148V57.6H150.4V66.9C150.4 69.1 150.5 71 151.8 72.3C153 73.6 154.9 73.6 156.1 73.6H158.7V70.5H156.9V70.4Z" fill="#313131"/>
</svg>
