<svg width="170" height="105" viewBox="0 0 170 105" fill="none" xmlns="http://www.w3.org/2000/svg">
<path fill-rule="evenodd" clip-rule="evenodd" d="M164.784 5.80893H165.614V4.14924H166.088L167.036 5.80893H168.103L167.036 4.03069C167.51 4.03069 167.985 3.67504 167.985 2.96374C167.985 2.13389 167.392 1.77824 166.325 1.77824H164.784V5.80893ZM166.325 3.43794H165.614V2.48954H166.088C166.443 2.48954 166.918 2.60809 166.918 2.96374C166.918 3.31939 166.681 3.43794 166.325 3.43794Z" fill="#313131"/>
<path fill-rule="evenodd" clip-rule="evenodd" d="M162.413 3.79359C162.413 6.16458 164.191 7.58718 166.206 7.58718C168.222 7.58718 170 6.16458 170 3.79359C170 1.4226 168.222 0 166.206 0C164.191 0 162.413 1.4226 162.413 3.79359ZM163.48 3.67504C163.48 2.01534 164.665 0.829847 166.206 0.829847C167.629 0.829847 168.933 2.01534 168.933 3.67504C168.933 5.45328 167.629 6.63878 166.206 6.63878C164.665 6.63878 163.48 5.45328 163.48 3.67504Z" fill="#313131"/>
<path fill-rule="evenodd" clip-rule="evenodd" d="M91.4016 2.72699C90.9274 2.13424 90.3346 1.5415 89.6233 1.18585C88.912 0.711649 88.0822 0.474549 87.1338 0.474549C86.0668 0.474549 85.237 0.711648 84.5257 1.0673C83.8144 1.42295 83.2216 2.01569 82.7474 2.60844C82.2732 3.31974 81.799 4.03104 81.4434 4.74234L62.2383 41.9669H66.3876C68.7586 37.3435 70.4183 34.1426 71.7223 31.6531L98.6331 24.0659C99.9768 26.6119 101.025 28.6517 102.835 32.1735C104.06 34.5552 105.632 37.6147 107.88 41.9669H112.029L92.7056 4.74234C92.3499 4.03104 91.8757 3.31974 91.4016 2.72699ZM77.5954 20.3002L77.5959 20.2993C79.2645 17.0963 81.5022 12.8006 85.1184 5.80928C85.1777 5.63146 85.2666 5.48327 85.3555 5.33508C85.4444 5.1869 85.5333 5.03871 85.5926 4.86088C85.6861 4.7206 85.7612 4.58032 85.8324 4.44731C85.9417 4.24311 86.0418 4.05606 86.1854 3.91249C86.4225 3.67539 86.7781 3.55684 87.1338 3.43829C87.4894 3.43829 87.8451 3.55684 88.0822 3.91249C88.3193 4.14959 88.5564 4.50524 88.6749 4.86088C88.8402 5.10886 88.9479 5.35684 89.0381 5.56463L89.0386 5.56557C89.0776 5.65543 89.1133 5.73775 89.1491 5.80928C90.4518 8.33808 91.5688 10.5078 92.54 12.3944C94.5738 16.345 95.9686 19.0544 97.0919 21.2207L73.6191 27.9781C74.901 25.4726 75.9825 23.3964 77.5954 20.3002Z" fill="#313131"/>
<path fill-rule="evenodd" clip-rule="evenodd" d="M8.06118 0.94853H27.1477C32.1268 0.94853 37.1058 2.84533 37.8171 7.70586C38.0542 9.24701 38.0542 10.7881 37.8171 12.3293C37.1058 16.4785 33.5494 18.4939 29.2816 19.6794L4.2676 26.7924V32.1271C4.2676 33.7868 4.50469 35.4465 5.57164 36.8691C6.87569 38.5288 8.53538 39.1215 10.5507 39.1215H37.6986V41.9667H11.0249C9.12813 41.9667 7.23134 41.7296 5.45309 41.0183C3.7934 40.1885 2.25225 38.7659 1.54095 36.9876C0.829656 35.565 0.474007 33.6682 0.474007 31.7714V7.23166C0.355458 2.96387 3.43775 0.829981 8.06118 0.94853ZM28.8074 16.5971C31.2969 15.8858 33.4308 14.5817 33.7865 12.0922C34.0236 10.9067 34.0236 9.12846 33.7865 7.94296C33.1937 5.21632 30.3485 3.79372 27.0291 3.79372H7.94263C6.28294 3.79372 4.38615 4.74212 4.38615 6.52036V23.3544L28.8074 16.5971Z" fill="#313131"/>
<path d="M47.6567 36.8691C46.5897 35.4465 46.3526 33.7868 46.3526 32.1271V0.948579H42.4405V31.7715C42.4405 33.6683 42.7961 35.5651 43.5074 36.9877C44.2187 38.7659 45.7599 40.1885 47.4196 41.0184C49.1978 41.7297 51.0946 41.9668 52.9914 41.9668H61.1713V39.1216H52.6357C50.5018 39.1216 48.9607 38.5288 47.6567 36.8691Z" fill="#313131"/>
<path fill-rule="evenodd" clip-rule="evenodd" d="M94.8395 85.593H90.3346V80.1398H87.0152V100.649C87.0152 101.123 87.0152 102.546 88.0822 103.375C88.912 103.968 89.979 104.087 91.1645 104.087H94.8395C96.7363 104.087 99.5815 103.731 101.241 100.886C102.308 99.1077 102.427 96.9738 102.427 95.077C102.427 93.6544 102.427 90.9278 101.123 88.7939C99.463 85.593 96.025 85.593 94.8395 85.593ZM90.3346 88.6753H94.721C96.8549 88.6753 98.0404 89.2681 98.6331 90.5721C99.1073 91.6391 99.2259 93.8915 99.2259 95.4327C99.2259 96.7367 99.1073 98.0407 98.6331 99.1077C97.8033 100.649 96.1436 100.886 94.6024 100.886H90.3346V88.6753Z" fill="#313131"/>
<path d="M57.0224 80.1402H34.9722V83.3411H44.3376V104.087H47.657V83.3411H57.0224V80.1402Z" fill="#313131"/>
<path d="M67.5733 100.412C67.5733 100.53 67.5733 100.768 67.4548 100.886C67.4548 100.886 67.2177 101.005 66.862 101.005H62.2386C60.9345 101.005 59.9861 100.886 59.5119 100.175C59.1563 99.7006 59.0377 98.8708 59.0377 97.6852V85.5932H55.7183V98.1595C55.7183 99.1078 55.7183 101.242 57.378 102.664C58.8006 103.968 60.3418 103.968 62.0015 103.968H66.6249C67.6919 103.968 68.7588 103.968 69.7072 103.257C70.7741 102.309 70.7741 100.886 70.7741 100.412V85.5932H67.4548V100.412H67.5733Z" fill="#313131"/>
<path d="M75.1603 92.1133C75.1603 90.4536 75.3974 88.5568 76.9385 87.1342C78.0054 86.0672 79.5466 85.593 81.6805 85.4745H83.5773V88.5568H81.799C80.9692 88.5568 79.9022 88.6753 79.1909 89.5052C78.7167 90.0979 78.4797 90.9278 78.4797 92.4689V103.968H75.1603V92.1133Z" fill="#313131"/>
<path fill-rule="evenodd" clip-rule="evenodd" d="M114.756 85.3558C116.89 85.3558 119.616 85.5929 121.513 87.4897C123.054 89.0308 123.884 91.4018 123.884 94.7212C123.884 98.8705 122.58 101.004 121.513 102.071C119.616 103.968 116.653 104.205 114.756 104.205C112.859 104.205 109.895 103.968 107.999 102.071C106.932 101.004 105.628 98.8705 105.628 94.7212C105.628 91.4018 106.457 89.0308 107.999 87.4897C109.777 85.5929 112.622 85.3558 114.756 85.3558ZM110.132 99.8189C111.199 101.004 113.096 101.123 114.756 101.123C116.416 101.123 118.194 101.004 119.379 99.9374C120.565 98.6334 120.565 96.2624 120.565 95.0769C120.565 93.6543 120.565 91.1647 119.379 89.8607C118.312 88.6752 116.416 88.5566 114.756 88.5566C113.096 88.5566 111.199 88.6752 110.132 89.8607C108.947 91.1647 108.947 93.6543 108.947 94.9583C108.947 96.2624 108.947 98.5148 110.132 99.8189Z" fill="#313131"/>
<path d="M140.955 19.6794C145.223 18.4939 148.78 16.4785 149.491 12.3293C149.728 10.7881 149.728 9.24701 149.491 7.70586C148.661 2.72678 143.682 0.94853 138.703 0.94853H121.039C116.416 0.829981 113.452 2.96387 113.452 7.23166V41.9667H117.364V6.52036C117.364 4.74212 119.261 3.79372 120.92 3.79372H138.584C141.904 3.79372 144.749 5.21632 145.342 7.94296C145.579 9.12846 145.579 10.9067 145.342 12.0922C144.986 14.5817 142.852 15.8858 140.363 16.5971L131.116 19.2052C130.404 19.3237 129.575 20.1536 129.575 21.102C129.575 21.6947 129.812 22.1689 130.167 22.5246L148.068 41.9667H153.047L134.198 21.6947L140.955 19.6794Z" fill="#313131"/>
<path d="M154.352 0.948579H158.264V41.9668H154.352V0.948579Z" fill="#313131"/>
<path d="M5.21618 57.7346L14.1074 60.8169C15.6486 61.2911 16.834 61.7653 17.7824 62.5951C18.8494 63.662 19.4421 65.0846 19.4421 66.8629C19.4421 67.6927 19.3236 69.8266 18.1381 71.3678C16.9526 72.9089 15.2929 73.146 13.8703 73.146H0.355649V70.0637H13.9889C14.5816 70.0637 15.8856 70.0637 15.8856 66.9814C15.8856 65.7959 15.6486 64.729 13.5147 64.0177L4.38634 60.9354C3.08229 60.4612 2.01534 59.8685 1.30405 59.0386C0.118549 57.7346 0 56.0749 0 54.8894C0 53.4668 0.11855 51.6885 1.77824 50.3845C2.37099 49.9103 3.67504 49.0804 5.92748 49.0804H18.2566V52.1627H5.69038C4.97908 52.1627 4.26779 52.3998 3.91214 52.7555C3.43794 53.2297 3.43794 54.1781 3.43794 54.8894C3.43794 56.1934 3.55649 57.1418 5.21618 57.7346Z" fill="#313131"/>
<path d="M43.0333 54.4152H27.0291C25.8436 54.4152 25.0137 54.8894 24.421 55.7192C23.9468 56.4305 23.9468 57.3789 23.9468 58.0902V73.2646H27.2662V57.4975H34.8534V73.2646H38.1728V57.4975H43.2704C43.9817 57.4975 44.8115 57.616 45.2857 58.0902C45.6414 58.4459 45.7599 59.1572 45.7599 59.987V73.146H49.0793V60.1056C49.0793 57.9717 48.6051 56.5491 47.5382 55.6007C46.2341 54.7708 44.8115 54.4152 43.0333 54.4152Z" fill="#313131"/>
<path fill-rule="evenodd" clip-rule="evenodd" d="M53.9403 54.4152H63.1872C64.6098 54.4152 66.0324 54.8894 66.6251 55.7192C67.5735 56.6676 67.9292 57.9717 67.9292 59.7499V70.0637C67.9292 70.775 67.8106 71.7234 67.0993 72.4347C66.388 73.146 65.2025 73.146 64.6098 73.146H57.971C57.1412 73.146 55.6 73.146 54.4145 72.1976C53.229 71.1307 52.6363 69.471 52.6363 66.9814C52.6363 65.6774 52.7548 63.662 54.296 62.358C55.1258 61.6467 56.3113 61.2911 57.971 61.2911H64.7283V59.5128C64.7283 59.0386 64.4912 58.3273 64.2541 57.9717C64.1356 57.7346 63.6614 57.4975 63.0686 57.4975H53.9403V54.4152ZM56.4299 64.9661C56.1928 65.3217 56.0742 66.033 56.0742 67.2185C56.0742 67.5742 56.0742 68.9968 56.5484 69.7081C56.667 69.9452 57.1412 70.1823 57.6154 70.1823H64.8469V64.4919H57.7339C56.9041 64.4919 56.5484 64.8475 56.4299 64.9661Z" fill="#313131"/>
<path d="M74.4492 55.9562C72.9081 57.4973 72.671 59.2755 72.671 61.0538V73.1459H75.9904V61.4094C75.9904 59.8683 76.2275 58.9199 76.7017 58.3271C77.413 57.4973 78.4799 57.3788 79.4283 57.3788H81.2065V54.2965H79.1912C77.0573 54.415 75.5162 54.8892 74.4492 55.9562Z" fill="#313131"/>
<path d="M90.8055 67.0754C90.7925 68.1732 90.7779 69.4103 91.4019 69.8263C91.639 70.0634 92.5874 70.182 94.0099 70.0634H95.6696V73.1457H93.1801C91.9946 73.1457 90.0978 73.1457 88.9123 71.9602C87.6083 70.6562 87.4897 68.7594 87.4897 66.6255V57.4972H85.1187V54.4149H87.4897V48.843H90.8091V54.4149H95.5511V57.4972H90.8091V66.6255C90.8091 66.7705 90.8073 66.9207 90.8055 67.0737V67.0754Z" fill="#313131"/>
<path fill-rule="evenodd" clip-rule="evenodd" d="M120.328 60.8166L121.039 60.1053C121.988 58.8012 122.225 57.2601 122.225 55.8375C122.225 54.8891 122.225 52.0439 120.565 50.3842C119.972 49.7914 118.787 48.843 116.534 48.843H105.983C105.154 48.843 104.205 48.9616 103.375 49.91C102.901 50.5027 102.546 51.5697 102.546 52.6366V69.4707C102.546 70.3005 102.664 71.3675 103.494 72.1973C104.324 73.0272 105.509 73.1457 106.339 73.1457H117.009C118.194 73.1457 119.498 73.0272 120.802 71.6046C122.343 69.8263 122.343 68.0481 122.343 66.2698V66.1513C122.343 64.7287 122.343 63.069 121.276 61.765C121.205 61.6932 121.133 61.6106 121.055 61.5204C120.874 61.3126 120.659 61.0645 120.328 60.8166ZM118.076 58.6827C117.601 59.2754 116.653 59.394 115.705 59.394H105.746V52.5181C105.746 52.3995 105.865 52.0439 105.865 52.0439H116.179C116.771 52.0439 117.364 52.0439 117.838 52.5181C118.313 52.9923 118.668 54.1778 118.668 55.6004C118.668 57.023 118.431 58.327 118.076 58.6827ZM105.865 69.115V62.4762H116.771C117.483 62.4762 118.194 62.9504 118.431 63.3061C118.668 63.6617 118.905 64.9658 118.905 66.2698C118.905 67.5739 118.668 68.8779 118.313 69.2336C117.838 69.9449 116.89 69.9449 116.06 69.9449H105.983C105.865 70.0634 105.865 69.8263 105.865 69.115Z" fill="#313131"/>
<path fill-rule="evenodd" clip-rule="evenodd" d="M128.152 56.193C130.168 54.2962 132.894 54.0591 135.147 54.0591C137.399 54.0591 140.126 54.2962 142.141 56.3115C143.682 57.8527 144.512 60.3422 144.512 63.6616C144.512 67.8108 143.208 70.0633 142.141 71.1302C140.126 73.027 137.162 73.2641 135.147 73.2641C133.013 73.2641 130.168 73.027 128.152 71.1302C127.085 69.9447 125.781 67.8108 125.781 63.543C125.781 60.2236 126.611 57.7341 128.152 56.193ZM135.147 57.2599C133.487 57.2599 131.472 57.3785 130.405 58.564C129.219 59.868 129.219 62.3575 129.219 63.7801C129.219 65.3213 129.219 67.5737 130.405 68.8778C131.59 70.1818 133.487 70.3004 135.147 70.3004C136.806 70.3004 138.703 70.0633 139.889 68.8778C141.074 67.5737 141.074 65.2027 141.074 63.8987C141.074 62.4761 141.074 59.868 139.889 58.564C138.822 57.3785 136.806 57.2599 135.147 57.2599Z" fill="#313131"/>
<path d="M156.367 70.1821C154.944 70.1821 153.996 70.0636 153.759 69.945C153.135 69.529 153.15 68.2919 153.163 67.1941C153.164 67.0406 153.166 66.8897 153.166 66.7442V57.6159H157.908V54.5336H153.166V48.9617H149.847V54.5336H147.476V57.6159H149.847V66.7442C149.847 68.8781 149.965 70.7749 151.269 72.0789C152.455 73.2644 154.352 73.2644 155.537 73.2644H158.145V70.1821H156.367Z" fill="#313131"/>
</svg>
