<svg width="226" height="139" viewBox="0 0 226 139" fill="none" xmlns="http://www.w3.org/2000/svg">
<path fill-rule="evenodd" clip-rule="evenodd" d="M215.219 5.02702C215.219 8.16891 217.576 10.054 220.246 10.054C222.917 10.054 225.273 8.16891 225.273 5.02702C225.273 1.88513 222.917 0 220.246 0C217.576 0 215.219 1.88513 215.219 5.02702ZM216.633 4.86993C216.633 2.67061 218.204 1.09966 220.246 1.09966C222.132 1.09966 223.86 2.67061 223.86 4.86993C223.86 7.22635 222.132 8.79729 220.246 8.79729C218.204 8.79729 216.633 7.22635 216.633 4.86993ZM218.361 7.69763H219.461V5.49831H220.089L221.346 7.69763H222.76L221.346 5.34121C221.974 5.34121 222.603 4.86993 222.603 3.92736C222.603 2.8277 221.817 2.35642 220.404 2.35642H218.361V7.69763ZM220.404 4.55574H219.461V3.29898H220.089C220.561 3.29898 221.189 3.45608 221.189 3.92736C221.189 4.39865 220.875 4.55574 220.404 4.55574ZM121.12 3.61363C120.491 2.82816 119.706 2.04269 118.763 1.57141C117.821 0.943028 116.721 0.628838 115.464 0.628838C114.051 0.628838 112.951 0.943027 112.008 1.41431C111.066 1.88559 110.28 2.67107 109.652 3.45654C109.023 4.39911 108.395 5.34167 107.924 6.28424L82.4745 55.6119H87.9728C91.1147 49.4852 93.3141 45.2437 95.0421 41.9447L130.703 31.8906C132.483 35.2645 133.872 37.9674 136.271 42.6344C137.893 45.7904 139.977 49.8446 142.956 55.6119H148.454L122.848 6.28424C122.377 5.34167 121.748 4.39911 121.12 3.61363ZM97.5556 37.0748C99.2544 33.7545 100.687 31.0035 102.825 26.9003C105.036 22.6556 108.001 16.964 112.794 7.69809C112.872 7.46245 112.99 7.26609 113.108 7.06972C113.226 6.87335 113.344 6.67698 113.422 6.44133C113.546 6.25543 113.646 6.06953 113.74 5.89328L113.74 5.8932L113.74 5.89311C113.885 5.62259 114.017 5.37479 114.208 5.18458C114.522 4.87039 114.993 4.71329 115.464 4.5562C115.936 4.5562 116.407 4.71329 116.721 5.18458C117.035 5.49877 117.35 5.97005 117.507 6.44133C117.726 6.76992 117.868 7.09851 117.988 7.37385C118.04 7.49342 118.087 7.60296 118.135 7.69809C119.86 11.0462 121.339 13.9193 122.625 16.4178C125.322 21.6565 127.171 25.2485 128.66 28.1204L97.5556 37.0748ZM10.6825 1.25697H35.9747C42.5727 1.25697 49.1706 3.77048 50.1132 10.2114C50.4274 12.2536 50.4274 14.2958 50.1132 16.338C49.1706 21.8363 44.4578 24.507 38.8024 26.0779L5.65547 35.5036V42.5728C5.65547 44.7721 5.96966 46.9715 7.38351 48.8566C9.11155 51.0559 11.3109 51.8414 13.9815 51.8414H49.9561V55.6117H14.6099C12.0963 55.6117 9.58283 55.2975 7.22641 54.3549C5.02709 53.2552 2.98486 51.3701 2.0423 49.0137C1.09973 47.1286 0.628444 44.6151 0.628444 42.1015V9.58298C0.47135 3.92758 4.55581 1.09988 10.6825 1.25697ZM38.174 21.9934C41.473 21.0509 44.3007 19.3228 44.772 16.0239C45.0862 14.4529 45.0862 12.0965 44.772 10.5255C43.9865 6.91237 40.2163 5.02724 35.8176 5.02724H10.5254C8.32607 5.02724 5.81256 6.28399 5.81256 8.64041V30.9478L38.174 21.9934ZM63.152 48.8566C61.7382 46.9715 61.424 44.7722 61.424 42.5729V1.25702H56.2399V42.1016C56.2399 44.6151 56.7112 47.1286 57.6537 49.0137C58.5963 51.3702 60.6385 53.2553 62.8378 54.355C65.1943 55.2975 67.7078 55.6117 70.2213 55.6117H81.0608V51.8414H69.75C66.9223 51.8414 64.8801 51.056 63.152 48.8566ZM125.676 113.423H119.706V106.196H115.307V133.374C115.307 134.002 115.307 135.887 116.721 136.987C117.821 137.772 119.235 137.929 120.806 137.929H125.676C128.189 137.929 131.959 137.458 134.159 133.688C135.572 131.331 135.73 128.504 135.73 125.99C135.73 124.105 135.73 120.492 134.002 117.664C131.802 113.423 127.246 113.423 125.676 113.423ZM119.706 133.059V117.507H125.518C128.346 117.507 129.917 118.292 130.703 120.02C131.331 121.434 131.488 124.419 131.488 126.461C131.488 128.189 131.331 129.917 130.703 131.331C129.603 133.374 127.404 133.688 125.361 133.688H120.177H119.706V133.059ZM75.5624 106.197H46.3428V110.438H58.7533V137.93H63.1519V110.438H75.5624V106.197ZM89.5439 133.06C89.5439 133.217 89.5439 133.531 89.3868 133.688C89.3868 133.688 89.0726 133.845 88.6013 133.845H82.4746C80.7466 133.845 79.4898 133.688 78.8614 132.745C78.3902 132.117 78.2331 131.017 78.2331 129.446V113.423H73.8344V130.075C73.8344 131.331 73.8344 134.159 76.0337 136.044C77.9189 137.772 79.9611 137.772 82.1604 137.772H88.2871C89.701 137.772 91.1148 137.772 92.3716 136.83C93.7854 135.573 93.7854 133.688 93.7854 133.06V113.423H89.3868V133.06H89.5439ZM99.5979 122.063C99.5979 119.863 99.912 117.35 101.954 115.465C103.368 114.051 105.41 113.423 108.238 113.265H110.752V117.35H108.395C107.295 117.35 105.882 117.507 104.939 118.607C104.311 119.392 103.996 120.492 103.996 122.534V137.772H99.5979V122.063ZM152.068 113.108C154.895 113.108 158.508 113.422 161.022 115.936C163.064 117.978 164.164 121.12 164.164 125.519C164.164 131.017 162.436 133.845 161.022 135.258C158.508 137.772 154.581 138.086 152.068 138.086C149.554 138.086 145.627 137.772 143.113 135.258C141.699 133.845 139.971 131.017 139.971 125.519C139.971 121.12 141.071 117.978 143.113 115.936C145.47 113.422 149.24 113.108 152.068 113.108ZM145.941 132.274C147.355 133.845 149.868 134.002 152.068 134.002C154.267 134.002 156.623 133.845 158.194 132.431C159.765 130.703 159.765 127.561 159.765 125.99C159.765 124.105 159.765 120.806 158.194 119.078C156.78 117.507 154.267 117.35 152.068 117.35C149.868 117.35 147.355 117.507 145.941 119.078C144.37 120.806 144.37 124.105 144.37 125.833C144.37 127.561 144.37 130.546 145.941 132.274ZM186.785 26.0779C192.441 24.507 197.154 21.8363 198.096 16.338C198.41 14.2958 198.41 12.2536 198.096 10.2114C196.996 3.61339 190.398 1.25697 183.8 1.25697H160.393C154.267 1.09988 150.339 3.92758 150.339 9.58298V55.6117H155.523V8.64041C155.523 6.28399 158.037 5.02724 160.236 5.02724H183.643C188.042 5.02724 191.812 6.91237 192.598 10.5255C192.912 12.0965 192.912 14.4529 192.598 16.0239C192.126 19.3228 189.299 21.0509 186 21.9934L173.746 25.4495C172.804 25.6066 171.704 26.7063 171.704 27.963C171.704 28.7485 172.018 29.3769 172.49 29.8482L196.211 55.6117H202.809L177.831 28.7485L186.785 26.0779ZM204.537 1.25702H209.721V55.6117H204.537V1.25702ZM6.91216 76.5062L18.6942 80.5907C20.7365 81.2191 22.3074 81.8474 23.5642 82.9471C24.978 84.3609 25.7635 86.2461 25.7635 88.6025C25.7635 89.7022 25.6064 92.5299 24.0355 94.5721C22.4645 96.6143 20.2652 96.9285 18.3801 96.9285H0.471283V92.844H18.5371C19.3226 92.844 21.0507 92.844 21.0507 88.7596C21.0507 87.1886 20.7365 85.7748 17.9088 84.8322L5.8125 80.7478C4.08446 80.1194 2.67061 79.3339 1.72804 78.2343C0.157094 76.5062 0 74.3069 0 72.736C0 70.8508 0.157095 68.4944 2.35642 66.7664C3.14189 66.138 4.86993 65.0383 7.85472 65.0383H24.1926V69.1228H7.54054C6.59797 69.1228 5.6554 69.437 5.18412 69.9082C4.55574 70.5366 4.55574 71.7934 4.55574 72.736C4.55574 74.464 4.71283 75.7207 6.91216 76.5062ZM57.0252 72.1076H35.8174C34.2465 72.1076 33.1468 72.7359 32.3613 73.8356C31.733 74.7782 31.733 76.0349 31.733 76.9775V97.0856H36.1316V76.6633V76.192H36.4458H46.1857V97.0856H50.5843V76.192H57.3394C58.2819 76.192 59.3816 76.3491 60.01 76.9775C60.4813 77.4488 60.6383 78.3913 60.6383 79.491V96.9285H65.037V79.6481C65.037 76.8204 64.4086 74.9353 62.9948 73.6785C61.2667 72.5788 59.3816 72.1076 57.0252 72.1076ZM71.4779 72.1076H83.7313C85.6164 72.1076 87.5015 72.7359 88.287 73.8356C89.5438 75.0924 90.015 76.8204 90.015 79.1768V92.844C90.015 93.7866 89.858 95.0434 88.9154 95.9859C87.9728 96.9285 86.4019 96.9285 85.6164 96.9285H76.8191C75.7195 96.9285 73.6772 96.9285 72.1063 95.6717C70.5353 94.2579 69.7499 92.0586 69.7499 88.7596C69.7499 87.0315 69.907 84.3609 71.9492 82.6329C73.0488 81.6903 74.6198 81.219 76.8191 81.219H85.7735V78.8626C85.7735 78.2343 85.4593 77.2917 85.1451 76.8204C84.988 76.5062 84.3596 76.192 83.5742 76.192H71.4779V72.1076ZM74.7769 86.089C74.4627 86.5603 74.3056 87.5028 74.3056 89.0738C74.3056 89.5451 74.3056 91.4302 74.934 92.3728C75.0911 92.687 75.7195 93.0011 76.3478 93.0011H85.6164H85.9306V85.4606H76.5049C75.4053 85.4606 74.934 85.9319 74.7769 86.089ZM98.6553 74.1496C96.6131 76.1918 96.2989 78.5482 96.2989 80.9047V96.9283H100.698V81.3759C100.698 79.3337 101.012 78.077 101.64 77.2915C102.583 76.1918 103.997 76.0347 105.253 76.0347H107.61V71.9503H104.939C102.111 72.1074 100.069 72.7357 98.6553 74.1496ZM120.33 88.8842C120.312 90.3389 120.293 91.9782 121.12 92.5295C121.434 92.8437 122.691 93.0007 124.576 92.8436H126.775V96.9281H123.476C121.905 96.9281 119.392 96.9281 117.821 95.3572C116.093 93.6291 115.936 91.1156 115.936 88.2879V76.1916H112.794V72.1072H115.936V64.7237H120.334V72.1072H126.618V76.1916H120.334V88.2879C120.334 88.4807 120.332 88.6807 120.33 88.8842ZM159.451 80.5903L160.394 79.6477C161.65 77.9197 161.964 75.8774 161.964 73.9923C161.964 72.7356 161.964 68.9653 159.765 66.766C158.98 65.9805 157.409 64.7237 154.424 64.7237H140.443C139.343 64.7237 138.086 64.8808 136.986 66.1376C136.358 66.9231 135.887 68.3369 135.887 69.7508V92.0582C135.887 93.1578 136.044 94.5717 137.144 95.6713C138.243 96.771 139.814 96.9281 140.914 96.9281H155.052C156.623 96.9281 158.351 96.771 160.079 94.8859C162.122 92.5295 162.122 90.173 162.122 87.8166V87.6595C162.122 85.7744 162.122 83.5751 160.708 81.847C160.613 81.7521 160.518 81.6429 160.414 81.5236L160.414 81.523L160.414 81.5228C160.174 81.2475 159.889 80.9189 159.451 80.5903ZM156.466 77.7626C155.838 78.548 154.581 78.7051 153.324 78.7051H140.128V69.5937C140.128 69.4366 140.285 68.9653 140.285 68.9653H140.6H153.953C154.738 68.9653 155.524 68.9653 156.152 69.5937C156.78 70.222 157.252 71.793 157.252 73.6781C157.252 75.5633 156.937 77.2913 156.466 77.7626ZM140.285 91.5869V82.7896H154.738C155.681 82.7896 156.623 83.418 156.937 83.8893C157.252 84.3605 157.566 86.0886 157.566 87.8166C157.566 89.5447 157.252 91.2727 156.78 91.744C156.152 92.6866 154.895 92.6866 153.796 92.6866H141.542H140.443C140.285 92.8437 140.285 92.5295 140.285 91.5869ZM169.819 74.4634C172.49 71.9499 176.103 71.6357 179.088 71.6357C182.073 71.6357 185.686 71.9499 188.356 74.6205C190.399 76.6627 191.498 79.9617 191.498 84.3603C191.498 89.8587 189.77 92.8434 188.356 94.2573C185.686 96.7708 181.758 97.085 179.088 97.085C176.26 97.085 172.49 96.7708 169.819 94.2573C168.405 92.6864 166.677 89.8587 166.677 84.2033C166.677 79.8046 167.777 76.5056 169.819 74.4634ZM179.088 75.8772C176.888 75.8772 174.218 76.0343 172.804 77.6053C171.233 79.3333 171.233 82.6323 171.233 84.5174C171.233 86.5597 171.233 89.5445 172.804 91.2725C174.375 93.0005 176.888 93.1576 179.088 93.1576C181.287 93.1576 183.801 92.8434 185.372 91.2725C186.942 89.5445 186.942 86.4026 186.942 84.6745C186.942 82.7894 186.942 79.3333 185.372 77.6053C183.958 76.0343 181.287 75.8772 179.088 75.8772ZM207.207 93.0009C205.322 93.0009 204.066 92.8438 203.751 92.6868C202.924 92.1355 202.944 90.4962 202.961 89.0415C202.964 88.8379 202.966 88.638 202.966 88.4452V76.3489H209.25V72.2645H202.966V64.881H198.567V72.2645H195.425V76.3489H198.567V88.4452C198.567 91.2729 198.724 93.7864 200.452 95.5145C202.023 97.0854 204.537 97.0854 206.108 97.0854H209.564V93.0009H207.207Z" fill="#4D4D4F"/>
</svg>
