<svg width="45" height="44" viewBox="0 0 45 44" fill="none" xmlns="http://www.w3.org/2000/svg">
<path fill-rule="evenodd" clip-rule="evenodd" d="M22.5591 0C10.5447 0 0.805054 9.73962 0.805054 21.754C0.805054 33.7685 10.5447 43.5081 22.5591 43.5081C34.5735 43.5081 44.3131 33.7685 44.3131 21.754C44.3131 9.73962 34.5735 0 22.5591 0ZM21.9532 18.4347L21.9076 17.682C21.7706 15.731 22.9727 13.949 24.8748 13.2577C25.5747 13.0119 26.7616 12.9812 27.5377 13.1962C27.842 13.2884 28.4202 13.5957 28.8311 13.8722L29.5767 14.3791L30.3984 14.118C30.8549 13.9797 31.4635 13.7493 31.7374 13.5957C31.9961 13.4574 32.2243 13.3806 32.2243 13.4267C32.2243 13.6878 31.6613 14.5788 31.1896 15.0704C30.5505 15.7617 30.7331 15.8232 32.0265 15.3623C32.8026 15.1011 32.8178 15.1011 32.6656 15.393C32.5743 15.5466 32.1026 16.0843 31.6005 16.5759C30.7483 17.4208 30.7027 17.513 30.7027 18.2196C30.7027 19.3103 30.1853 21.5839 29.668 22.8282C28.7093 25.1633 26.6551 27.5751 24.6009 28.7887C21.7097 30.4939 17.86 30.924 14.6189 29.9255C13.5385 29.5875 11.6821 28.7272 11.6821 28.5736C11.6821 28.5275 12.2451 28.4661 12.9298 28.4507C14.3602 28.42 15.7905 28.0206 17.0078 27.3139L17.8295 26.8224L16.8861 26.4998C15.5471 26.0389 14.345 24.9789 14.0406 23.9804C13.9493 23.6578 13.9798 23.6424 14.8319 23.6424L15.7144 23.6271L14.9688 23.2737C14.0863 22.8282 13.2798 22.0755 12.8842 21.3074C12.5951 20.7544 12.2299 19.3564 12.3364 19.2489C12.3668 19.2028 12.6864 19.295 13.0516 19.4179C14.1015 19.8019 14.2384 19.7097 13.6298 19.0645C12.4885 17.897 12.1386 16.1611 12.6864 14.5174L12.945 13.78L13.9493 14.7785C16.0036 16.791 18.423 17.9892 21.1924 18.3425L21.9532 18.4347Z" fill="#55ACEE"/>
</svg>
