<svg width="45" height="44" viewBox="0 0 45 44" fill="none" xmlns="http://www.w3.org/2000/svg">
<path fill-rule="evenodd" clip-rule="evenodd" d="M22.6589 0C10.6445 0 0.904877 9.73962 0.904877 21.754C0.904877 33.7685 10.6445 43.5081 22.6589 43.5081C34.6733 43.5081 44.413 33.7685 44.413 21.754C44.413 9.73962 34.6733 0 22.6589 0ZM24.4302 28.6212C24.2157 28.8474 23.7969 28.8931 23.7969 28.8931H22.41C22.41 28.8931 19.3502 29.0735 16.6548 26.3196C13.7153 23.3151 11.1198 17.3539 11.1198 17.3539C11.1198 17.3539 10.97 16.9628 11.1323 16.7746C11.315 16.5618 11.8132 16.5484 11.8132 16.5484L15.1283 16.5273C15.1283 16.5273 15.4404 16.5774 15.664 16.7389C15.849 16.8726 15.9523 17.121 15.9523 17.121C15.9523 17.121 16.488 18.4512 17.1973 19.6544C18.583 22.0039 19.2277 22.5174 19.6975 22.2657C20.383 21.8991 20.1776 18.9447 20.1776 18.9447C20.1776 18.9447 20.1901 17.873 19.8326 17.3951C19.5557 17.0252 19.0336 16.9172 18.8032 16.8871C18.6159 16.8626 18.9224 16.437 19.3196 16.2465C19.9166 15.9602 20.9698 15.9435 22.2148 15.9558C23.1852 15.9658 23.4643 16.0248 23.8434 16.1151C24.7232 16.3234 24.6957 16.9913 24.6364 18.4326C24.6187 18.8637 24.5981 19.3639 24.5981 19.9418C24.5981 20.0716 24.5943 20.21 24.5903 20.3524C24.5697 21.0909 24.5462 21.9364 25.0419 22.2512C25.2961 22.4116 25.9169 22.2746 27.4706 19.6855C28.2072 18.4579 28.7588 17.0152 28.7588 17.0152C28.7588 17.0152 28.8802 16.7579 29.0675 16.6476C29.2593 16.5351 29.518 16.5696 29.518 16.5696L33.0068 16.5484C33.0068 16.5484 34.0555 16.4248 34.2246 16.8904C34.4027 17.3773 33.833 18.5158 32.4075 20.3807C31.0554 22.1502 30.3973 22.8017 30.4577 23.3779C30.5019 23.7989 30.9296 24.1797 31.7504 24.9271C33.4639 26.4887 33.9232 27.3103 34.0336 27.5077C34.0427 27.524 34.0494 27.5361 34.0543 27.544C34.8227 28.795 33.202 28.8931 33.202 28.8931L30.1025 28.9354C30.1025 28.9354 29.4374 29.0646 28.5613 28.4742C28.1023 28.1652 27.6538 27.6604 27.2267 27.1797C26.5743 26.4455 25.9716 25.7673 25.4573 25.9275C24.5936 26.1971 24.6197 28.023 24.6197 28.023C24.6197 28.023 24.6265 28.414 24.4302 28.6212Z" fill="#4C6C91"/>
</svg>
